<?xml version="1.0" standalone="no"?>
<!DOCTYPE svg PUBLIC "-//W3C//DTD SVG 1.1//EN" "http://www.w3.org/Graphics/SVG/1.1/DTD/svg11.dtd" >
<svg xmlns="http://www.w3.org/2000/svg" xmlns:xlink="http://www.w3.org/1999/xlink" version="1.1">
<metadata>
Created by FontForge 20190801 at Tue Jun  4 06:51:13 2019
 By Unknown
Copyright (c) 2019 by Sandra Garcia. All rights reserved. Desktop use is strictly prohibited.
</metadata>
<defs>
<font id="" horiz-adv-x="0" >
  <font-face 
    font-family=""
    font-weight="700"
    font-stretch="normal"
    units-per-em="2048"
    panose-1="0 0 8 0 0 0 0 0 0 0"
    ascent="1638"
    descent="-410"
    x-height="1028"
    cap-height="1399"
    bbox="-872 -494 4520 1823"
    underline-thickness="0"
    underline-position="0"
    unicode-range="U+0020-FB02"
  />
<missing-glyph horiz-adv-x="1085" 
d="M102 1495h881v-1495h-881v1495zM236 1423l307 -587l307 587h-614zM498 748l-314 598v-1196zM590 748l311 -598v1196zM543 659l-307 -587h614z" />
    <glyph glyph-name="uniFB01" unicode="fi" horiz-adv-x="1236" 
d="M1087 1028v-1026h-163v879h-615v-295h393v-146h-393v-440h-164v1028h942z" />
    <glyph glyph-name="uniFB02" unicode="fl" horiz-adv-x="1581" 
d="M1087 152h455v-152h-618v881h-615v-295h393v-146h-393v-440h-164v1028h942v-876z" />
    <glyph glyph-name=".notdef" horiz-adv-x="1085" 
d="M102 1495h881v-1495h-881v1495zM236 1423l307 -587l307 587h-614zM498 748l-314 598v-1196zM590 748l311 -598v1196zM543 659l-307 -587h614z" />
    <glyph glyph-name="glyph1" 
 />
    <glyph glyph-name="glyph2" horiz-adv-x="681" 
 />
    <glyph glyph-name="space" unicode=" " horiz-adv-x="479" 
 />
    <glyph glyph-name="exclam" unicode="!" horiz-adv-x="477" 
d="M334 1419l-45 -1104h-101l-45 1104h191zM131 80q0 45 31 75.5t76 30.5t75.5 -30.5t30.5 -75.5t-30.5 -76t-75.5 -31t-76 31t-31 76z" />
    <glyph glyph-name="quotedbl" unicode="&#x22;" horiz-adv-x="669" 
d="M92 1008q43 166 43 305q0 55 -6 106h174v-53q-6 -203 -119 -403zM379 1008q43 166 43 305q0 55 -6 106h174v-53q-6 -203 -119 -403z" />
    <glyph glyph-name="numbersign" unicode="#" horiz-adv-x="1380" 
d="M639 1401l-68 -402h336l68 402h160l-68 -402h246v-153h-271l-45 -271h254v-153h-280l-70 -422h-160l70 422h-336l-69 -422h-160l69 422h-247v153h274l45 271h-258v153h283l67 402h160zM502 575h336l45 271h-336z" />
    <glyph glyph-name="dollar" unicode="$" horiz-adv-x="1011" 
d="M936 375q0 -154 -95.5 -256.5t-293.5 -122.5l-15 -154h-155l12 152q-197 16 -321 84l30 153q152 -74 305 -84l46 525q-27 12 -80 41q-125 68 -195 146.5t-70 195.5q0 158 106.5 251t303.5 101l12 143l156 2l-14 -153q141 -14 237 -64l-31 -147q-90 41 -219 57l-43 -481
q72 -35 121 -66.5t100.5 -78t77 -107.5t25.5 -137zM279 1059q0 -72 47 -122t137 -101l37 413q-221 -18 -221 -190zM559 152q213 29 213 202q0 137 -174 240z" />
    <glyph glyph-name="percent" unicode="%" horiz-adv-x="1138" 
d="M915 1483l-532 -1546h-164l533 1546h163zM293 1409q104 0 168.5 -72.5t64.5 -171.5q0 -92 -65.5 -166.5t-168 -74.5t-167 73.5t-64.5 168t65 169t167 74.5zM293 1288q-51 0 -83 -37t-32 -84t32 -85t83 -38q53 0 85 38t32 85q0 49 -33 85t-84 36zM846 467
q104 0 168.5 -72.5t64.5 -171.5q0 -92 -65.5 -166.5t-168 -74.5t-167 73.5t-64.5 167.5t65 169t167 75zM846 346q-51 0 -83 -37t-32 -84t32 -85t83 -38t84 38t33 85q0 49 -33 85t-84 36z" />
    <glyph glyph-name="ampersand" unicode="&#x26;" horiz-adv-x="1280" 
d="M1282 137l-90 -137q-152 102 -225 156q-143 -168 -402 -168q-219 0 -349 108.5t-130 290.5q0 106 64.5 199.5t166.5 144.5q-129 178 -129 328q0 147 113 248.5t277 101.5q168 0 277.5 -95t109.5 -235q0 -145 -131 -282l-119 94q82 100 82 182q0 78 -61.5 135.5
t-151.5 57.5q-100 0 -165 -58.5t-65 -150.5q0 -244 543 -651q25 86 25 184v67h170v-102q0 -147 -43 -258q106 -76 233 -160zM561 141q166 0 262 117q-252 190 -395 344q-172 -66 -172 -231q0 -106 92 -168t213 -62z" />
    <glyph glyph-name="quotesingle" unicode="'" horiz-adv-x="382" 
d="M92 1008q43 166 43 305q0 55 -6 106h174v-53q-6 -203 -119 -403z" />
    <glyph glyph-name="parenleft" unicode="(" horiz-adv-x="581" 
d="M539 1413q-156 -172 -226.5 -338t-70.5 -379t70.5 -378.5t226.5 -337.5l-103 -109q-180 178 -264 371.5t-84 453.5t84 453.5t264 372.5z" />
    <glyph glyph-name="parenright" unicode=")" horiz-adv-x="581" 
d="M43 1413l102 109q180 -178 264.5 -372t84.5 -454t-84 -453.5t-265 -371.5l-102 109q156 172 226.5 337.5t70.5 378.5t-70.5 379t-226.5 338z" />
    <glyph glyph-name="asterisk" unicode="*" horiz-adv-x="733" 
d="M315 1313l-133 186l90 51l95 -209l94 209l90 -51l-133 -186l227 22v-102l-227 22l133 -186l-90 -51l-94 209l-95 -209l-90 51l133 186l-227 -22v102z" />
    <glyph glyph-name="plus" unicode="+" horiz-adv-x="907" 
d="M829 614v-143h-301v-305h-147v305h-303v143h303v304h147v-304h301z" />
    <glyph glyph-name="comma" unicode="," horiz-adv-x="411" 
d="M293 207q10 -233 -121 -461l-90 47q43 166 43 307q0 55 -6 107h174z" />
    <glyph glyph-name="hyphen" unicode="-" horiz-adv-x="739" 
d="M614 565v-139h-489v139h489z" />
    <glyph glyph-name="period" unicode="." horiz-adv-x="405" 
d="M203 213q45 0 75.5 -30.5t30.5 -76t-30.5 -76t-75.5 -30.5t-76 30.5t-31 76t31 76t76 30.5z" />
    <glyph glyph-name="slash" unicode="/" horiz-adv-x="739" 
d="M666 1399l-428 -1399h-160l422 1399h166z" />
    <glyph glyph-name="zero" unicode="0" horiz-adv-x="1335" 
d="M104 692q0 322 155 517.5t409 195.5t408.5 -195.5t154.5 -517.5q0 -315 -154.5 -508.5t-408.5 -193.5t-409 193.5t-155 508.5zM279 692q0 -248 102 -388t286.5 -140t287 140t102.5 388q0 250 -106.5 394.5t-282.5 144.5q-184 0 -286.5 -143.5t-102.5 -395.5z" />
    <glyph glyph-name="one" unicode="1" horiz-adv-x="520" 
d="M176 1313l164 104v-1417h-164v1313z" />
    <glyph glyph-name="two" unicode="2" horiz-adv-x="1015" 
d="M371 156h577v-156h-887v41q307 301 482.5 530.5t175.5 399.5q0 139 -83 209.5t-218 70.5q-129 0 -297 -61l-37 153q178 70 338 70q207 0 339 -109.5t132 -312.5q0 -104 -54.5 -228t-144.5 -242t-165.5 -201.5t-157.5 -163.5z" />
    <glyph glyph-name="three" unicode="3" horiz-adv-x="1017" 
d="M530 946q180 -25 286 -148.5t106 -285.5q0 -293 -221.5 -448.5t-587.5 -155.5l-37 151q324 0 499 107.5t175 316.5q0 150 -104.5 243t-301.5 93q-23 0 -80 -4l305 426h-491v158h758v-45z" />
    <glyph glyph-name="four" unicode="4" horiz-adv-x="1204" 
d="M930 1401v-899h198v-156h-198v-346h-164v346h-739v41l862 1014h41zM317 502h451v540z" />
    <glyph glyph-name="five" unicode="5" horiz-adv-x="952" 
d="M360 956q233 0 366.5 -122.5t133.5 -337.5q0 -264 -201.5 -424t-564.5 -166l-35 153q328 10 478.5 123t150.5 299q0 162 -105.5 251t-306.5 89q-59 0 -114 -8l49 586h606v-148h-473l-18 -295h34z" />
    <glyph glyph-name="six" unicode="6" horiz-adv-x="1081" 
d="M600 870q178 0 296 -108.5t118 -306.5q0 -209 -128 -337t-333 -128q-211 0 -334 140t-123 380q0 307 193.5 580.5t511.5 410.5l53 -129q-207 -104 -350.5 -261t-202.5 -337q133 96 299 96zM555 133q129 0 211 83t82 220q0 133 -77 212t-202 79q-86 0 -171 -38t-138 -97
v-55q0 -195 77 -299.5t218 -104.5z" />
    <glyph glyph-name="seven" unicode="7" horiz-adv-x="974" 
d="M41 1399h907v-41l-567 -1358h-191l529 1243h-678v156z" />
    <glyph glyph-name="eight" unicode="8" horiz-adv-x="1150" 
d="M174 1071q0 150 113.5 247t288 97t288 -97t113.5 -247q0 -176 -164 -283q240 -123 240 -382q0 -182 -132.5 -296t-345.5 -114t-345 113.5t-132 296.5q0 260 242 382q-166 107 -166 283zM338 1065q0 -90 66.5 -148.5t170.5 -58.5q102 0 169 58.5t67 148.5t-66.5 148.5
t-169.5 58.5q-104 0 -170.5 -58.5t-66.5 -148.5zM262 416q0 -119 88 -197t225.5 -78t224.5 77t87 198q0 129 -87 211t-224.5 82t-225.5 -82t-88 -211z" />
    <glyph glyph-name="nine" unicode="9" horiz-adv-x="1067" 
d="M520 1403q188 0 319.5 -149.5t131.5 -374.5q0 -303 -196.5 -586t-510.5 -412l-53 133q213 109 359.5 272t205.5 353q-137 -104 -295 -104q-172 0 -293.5 119.5t-121.5 308.5q0 193 129.5 316.5t324.5 123.5zM221 965q0 -121 80 -205t197 -84q190 0 309 135l2 49
q0 170 -85 278.5t-216 108.5q-127 0 -207 -78.5t-80 -203.5z" />
    <glyph glyph-name="colon" unicode=":" horiz-adv-x="462" 
d="M231 831q45 0 76 -30.5t31 -75.5t-31 -76t-76 -31t-75.5 31t-30.5 76t30.5 75.5t75.5 30.5zM231 213q45 0 76 -30.5t31 -76t-31 -76t-76 -30.5t-75.5 30.5t-30.5 76t30.5 76t75.5 30.5z" />
    <glyph glyph-name="semicolon" unicode=";" horiz-adv-x="516" 
d="M262 831q45 0 76 -30.5t31 -75.5t-31 -76t-76 -31t-75.5 31t-30.5 76t30.5 75.5t75.5 30.5zM346 207q10 -233 -121 -461l-90 47q43 166 43 307q0 55 -6 107h174z" />
    <glyph glyph-name="less" unicode="&#x3c;" horiz-adv-x="1021" 
d="M883 895v-166l-516 -225l516 -209v-176l-826 379v16z" />
    <glyph glyph-name="equal" unicode="=" horiz-adv-x="899" 
d="M764 760v-144h-629v144h629zM764 467v-143h-629v143h629z" />
    <glyph glyph-name="greater" unicode="&#x3e;" horiz-adv-x="1021" 
d="M139 895l826 -381v-16l-826 -379v176l516 209l-516 225v166z" />
    <glyph glyph-name="question" unicode="?" horiz-adv-x="946" 
d="M49 1292q160 127 387 127q178 0 299 -105.5t121 -301.5q0 -113 -38 -198t-93 -136t-110.5 -97t-93.5 -110.5t-38 -146.5l-2 -91h-162v91q0 96 38 171.5t92.5 127t108.5 99.5t92 117.5t38 157.5q0 129 -79 193.5t-197 64.5q-170 0 -291 -96zM291 43q0 45 31.5 77t76.5 32
t77 -32t32 -77t-32 -75.5t-77 -30.5t-76.5 30.5t-31.5 75.5z" />
    <glyph glyph-name="at" unicode="@" horiz-adv-x="1593" 
d="M795 1350q172 0 310 -60.5t224 -162t132 -226.5t46 -260q0 -182 -78.5 -334.5t-218.5 -251.5l-170 328q-104 43 -245 43q-119 0 -203 -35l-37 -78h-141l370 756h21l436 -807q133 162 133 379q0 233 -155.5 408.5t-424 175.5t-424 -175.5t-155.5 -408.5t154.5 -404
t423.5 -174v-133q-305 2 -508 205t-203 506q0 135 46 260t132 226.5t224.5 162t310.5 60.5zM803 530q90 0 174 -24l-172 328l-154 -320q78 16 152 16z" />
    <glyph glyph-name="A" unicode="A" horiz-adv-x="1277" 
d="M1094 0l-156 360h-606l-152 -360h-184l625 1413h36l625 -1413h-188zM395 512h479l-243 565z" />
    <glyph glyph-name="B" unicode="B" horiz-adv-x="1124" 
d="M784 731q252 -70 252 -346q0 -197 -133 -297t-385 -100q-199 0 -342 20l2 1391h332q227 0 336.5 -98.5t109.5 -274.5q0 -209 -172 -295zM340 1243v-467h190q131 0 199 65.5t68 174.5q0 111 -64.5 169t-222.5 58h-170zM514 143q186 0 274.5 57.5t88.5 182.5
q0 127 -83 193.5t-237 66.5h-217v-487q86 -13 174 -13z" />
    <glyph glyph-name="C" unicode="C" horiz-adv-x="1294" 
d="M92 698q0 326 205 519.5t504 193.5q248 0 430 -100l-35 -154q-186 98 -395 98q-233 0 -386 -157.5t-153 -399t153.5 -398.5t385.5 -157q209 0 395 99l35 -154q-182 -100 -430 -100q-299 0 -504 193t-205 517z" />
    <glyph glyph-name="D" unicode="D" horiz-adv-x="1505" 
d="M686 1399q334 0 530.5 -189.5t196.5 -504.5q0 -317 -197.5 -511t-529.5 -194h-510v1399h510zM340 156h346q260 0 408.5 149.5t148.5 392.5q0 246 -149.5 395.5t-407.5 149.5h-346v-1087z" />
    <glyph glyph-name="E" unicode="E" horiz-adv-x="1007" 
d="M905 1399v-156h-565v-446h491v-156h-491v-485h565v-156h-729v1399h729z" />
    <glyph glyph-name="F" unicode="F" horiz-adv-x="956" 
d="M905 1399v-156h-565v-446h491v-156h-491v-641h-164v1399h729z" />
    <glyph glyph-name="G" unicode="G" horiz-adv-x="1433" 
d="M1171 696h164v-563q-41 -39 -193.5 -92t-334.5 -53q-311 0 -513 196.5t-202 515.5q0 326 208 518.5t521 192.5q268 0 471 -100l-35 -154q-209 98 -436 98q-246 0 -402.5 -156.5t-156.5 -398.5q0 -246 153.5 -401.5t391.5 -155.5q207 0 364 88v465z" />
    <glyph glyph-name="H" unicode="H" horiz-adv-x="1466" 
d="M1126 1399h164v-1399h-164v631h-786v-631h-164v1399h164v-613h786v613z" />
    <glyph glyph-name="I" unicode="I" horiz-adv-x="516" 
d="M340 1399v-1399h-164v1399h164z" />
    <glyph glyph-name="J" unicode="J" horiz-adv-x="532" 
d="M360 1399v-1206q0 -135 -35.5 -233.5t-98 -151t-132 -75t-151.5 -22.5l-47 150q301 0 301 332v1206h163z" />
    <glyph glyph-name="K" unicode="K" horiz-adv-x="1228" 
d="M176 0v1399h164v-1399h-164zM627 719l604 -719h-205l-606 715l586 684h202z" />
    <glyph glyph-name="L" unicode="L" horiz-adv-x="987" 
d="M340 1399v-1243h610v-156h-774v1399h164z" />
    <glyph glyph-name="M" unicode="M" horiz-adv-x="1742" 
d="M1677 0h-168l-200 985l-412 -954h-51l-424 950l-189 -981h-167l294 1399h41l471 -1049l469 1049h41z" />
    <glyph glyph-name="N" unicode="N" horiz-adv-x="1452" 
d="M1112 1399h164v-1409h-41l-895 1042v-1032h-164v1409h41l895 -1036v1026z" />
    <glyph glyph-name="O" unicode="O" horiz-adv-x="1605" 
d="M90 702q0 135 46 260t132 226.5t224.5 162t310.5 60.5t310 -60.5t224 -162t132.5 -226t46.5 -260.5q0 -303 -205 -506.5t-508 -203.5t-508 203.5t-205 506.5zM260 702.5q0 -223.5 143.5 -387t399.5 -163.5t399.5 163.5t143.5 387t-143.5 386t-399.5 162.5t-399.5 -162.5
t-143.5 -386z" />
    <glyph glyph-name="P" unicode="P" horiz-adv-x="1067" 
d="M471 1399q256 0 395.5 -121t139.5 -336q0 -209 -141.5 -335t-366.5 -124l-49 152q391 -6 391 307q0 150 -96.5 225.5t-272.5 75.5h-131v-1243h-164v1399h295z" />
    <glyph glyph-name="Q" unicode="Q" horiz-adv-x="1605" 
d="M2103 -268q197 0 400 59l-23 -149q-197 -53 -385 -54q-330 0 -609.5 112t-471.5 320q-102 -29 -211 -28q-303 0 -508 203.5t-205 506.5q0 135 46 260t132 226.5t224.5 162t310.5 60.5t310 -60.5t224 -162t132.5 -226t46.5 -260.5q0 -201 -94.5 -363.5t-258.5 -254.5
q160 -166 407.5 -259t532.5 -93zM260 702.5q0 -223.5 143.5 -387t399.5 -163.5t399.5 163.5t143.5 387t-143.5 386t-399.5 162.5t-399.5 -162.5t-143.5 -386z" />
    <glyph glyph-name="R" unicode="R" horiz-adv-x="1204" 
d="M788 592l371 -592h-192l-400 643q309 98 310 340q0 260 -336 260h-201v-1243h-164v1399h365q236 0 368.5 -107.5t132.5 -300.5q0 -276 -254 -399z" />
    <glyph glyph-name="S" unicode="S" horiz-adv-x="962" 
d="M121 1071q0 152 106.5 244t294.5 92q176 0 318 -72l-31 -147q-145 63 -281 63q-115 0 -174 -47t-59 -129q0 -76 59.5 -139.5t143.5 -112.5t169 -106.5t144 -147.5t59 -204q0 -162 -111.5 -267.5t-328.5 -105.5q-188 0 -346 86l31 153q178 -86 313 -86q279 0 279 199
q0 86 -60.5 155.5t-146.5 122t-172 108.5t-146.5 143t-60.5 198z" />
    <glyph glyph-name="T" unicode="T" horiz-adv-x="1214" 
d="M1182 1399v-156h-490v-1243h-170v1243h-489v156h1149z" />
    <glyph glyph-name="U" unicode="U" horiz-adv-x="1402" 
d="M328 1399v-817q0 -211 98 -324t276.5 -113t276.5 113t98 324v817h164v-817q0 -287 -138 -439.5t-403 -152.5q-266 0 -402 152.5t-136 439.5v817h166z" />
    <glyph glyph-name="V" unicode="V" horiz-adv-x="1230" 
d="M1049 1399h170l-580 -1409h-41l-594 1409h189l432 -1086l110 279z" />
    <glyph glyph-name="W" unicode="W" horiz-adv-x="1814" 
d="M1614 1399h172l-488 -1409h-38l-312 903l-39 115l-346 -1018h-39l-504 1409h179l280 -838l66 -196l63 196l277 840h41l301 -834l61 -202l58 202z" />
    <glyph glyph-name="X" unicode="X" horiz-adv-x="1208" 
d="M1208 0h-200l-404 592l-403 -592h-197l498 717l-455 682h203l352 -555l363 555h196l-456 -682z" />
    <glyph glyph-name="Y" unicode="Y" horiz-adv-x="1304" 
d="M225 1399l432 -651l439 651h186l-549 -813v-586h-166v594l-542 805h200z" />
    <glyph glyph-name="Z" unicode="Z" horiz-adv-x="1155" 
d="M1079 1399v-39l-780 -1208h825v-152h-1083v39l778 1208h-737v152h997z" />
    <glyph glyph-name="bracketleft" unicode="[" horiz-adv-x="692" 
d="M643 1538v-166h-324v-1345h324v-166h-477v1677h477z" />
    <glyph glyph-name="backslash" unicode="\" horiz-adv-x="747" 
d="M248 1399l422 -1399h-170l-428 1399h176z" />
    <glyph glyph-name="bracketright" unicode="]" horiz-adv-x="692" 
d="M49 -139v166h324v1345h-324v166h477v-1677h-477z" />
    <glyph glyph-name="asciicircum" unicode="^" horiz-adv-x="843" 
d="M86 1243l336 215l336 -215l-43 -90l-293 125l-293 -125z" />
    <glyph glyph-name="underscore" unicode="_" horiz-adv-x="1024" 
d="M920 0v-143h-816v143h816z" />
    <glyph glyph-name="grave" unicode="`" horiz-adv-x="759" 
d="M637 1571l-31 -96l-483 131l74 163z" />
    <glyph glyph-name="a" unicode="a" horiz-adv-x="1062" 
d="M879 0l-99 211h-501l-101 -211h-172l516 1042h21l512 -1042h-176zM342 344h377l-187 401z" />
    <glyph glyph-name="b" unicode="b" horiz-adv-x="940" 
d="M440 1028q172 0 271.5 -69.5t99.5 -204.5q0 -152 -133 -215q84 -25 135 -85.5t51 -156.5q0 -307 -467 -307q-150 0 -252 10v1028h295zM309 586h148q190 0 190 151q0 145 -196 146h-142v-297zM309 145q49 -2 148 -2q242 0 241 152q0 158 -221 158h-168v-308z" />
    <glyph glyph-name="c" unicode="c" horiz-adv-x="985" 
d="M80 516q0 240 151.5 382t386.5 142q164 0 306 -73l-35 -158q-137 70 -279 70q-172 0 -270 -99.5t-98 -263.5q0 -166 98 -265t270 -99q141 0 279 69l35 -158q-141 -74 -306 -73q-233 0 -385.5 142t-152.5 384z" />
    <glyph glyph-name="d" unicode="d" horiz-adv-x="1128" 
d="M530 1028q233 0 377 -141.5t144 -372.5q0 -229 -145.5 -371.5t-381.5 -142.5h-379v1028h385zM309 156h189q184 0 285.5 93t101.5 255q0 172 -97.5 271t-275.5 99h-203v-718z" />
    <glyph glyph-name="e" unicode="e" horiz-adv-x="856" 
d="M772 1028v-147h-463v-295h393v-146h-393v-288h455v-152h-619v1028h627z" />
    <glyph glyph-name="f" unicode="f" horiz-adv-x="827" 
d="M772 1028v-147h-463v-295h393v-146h-393v-440h-164v1028h627z" />
    <glyph glyph-name="g" unicode="g" horiz-adv-x="1077" 
d="M836 506h159v-389q-49 -49 -166.5 -87t-228.5 -38q-221 0 -371.5 150.5t-150.5 371.5q0 233 147.5 380.5t380.5 147.5q156 0 316 -73l-35 -158q-139 70 -279 70q-166 0 -266 -99.5t-100 -267.5q0 -164 104.5 -269.5t265.5 -105.5q121 0 224 51v316z" />
    <glyph glyph-name="h" unicode="h" horiz-adv-x="1153" 
d="M844 1028h164v-1028h-164v434h-535v-434h-164v1028h164v-446h535v446z" />
    <glyph glyph-name="i" unicode="i" horiz-adv-x="454" 
d="M309 1028v-1028h-164v1028h164z" />
    <glyph glyph-name="j" unicode="j" horiz-adv-x="473" 
d="M332 1028v-827q0 -219 -109.5 -354.5t-288.5 -135.5l-40 133q127 0 198.5 94.5t71.5 260.5v829h168z" />
    <glyph glyph-name="k" unicode="k" horiz-adv-x="997" 
d="M145 0v1028h164v-1028h-164zM555 524l436 -524h-215l-430 518l440 510h201z" />
    <glyph glyph-name="l" unicode="l" horiz-adv-x="802" 
d="M309 1028v-876h455v-152h-619v1028h164z" />
    <glyph glyph-name="m" unicode="m" horiz-adv-x="1392" 
d="M1071 1040l272 -1040h-163l-131 526l-33 146l-314 -649h-32l-260 534l-45 98l-29 -141l-125 -514h-160l260 1040h31l336 -688l14 -30l15 30l333 688h31z" />
    <glyph glyph-name="n" unicode="n" horiz-adv-x="1155" 
d="M178 1040l567 -583l99 -107l6 678h160v-1038h-29l-590 594l-82 90v-676h-164v1042h33z" />
    <glyph glyph-name="o" unicode="o" horiz-adv-x="1222" 
d="M78 516q0 211 142 368.5t392 157.5t391.5 -157.5t141.5 -368.5q0 -223 -152.5 -375.5t-380 -152.5t-381 152.5t-153.5 375.5zM244 516.5q0 -151.5 97 -263.5t271 -112t270.5 112t96.5 263.5t-96.5 262t-270.5 110.5t-271 -110.5t-97 -262z" />
    <glyph glyph-name="p" unicode="p" horiz-adv-x="909" 
d="M457 1028q184 0 290.5 -92t106.5 -252q0 -139 -95 -237.5t-239 -104.5l-45 141q213 16 213 201q0 96 -59.5 146.5t-165.5 50.5h-154v-881h-164v1028h312z" />
    <glyph glyph-name="q" unicode="q" horiz-adv-x="1222" 
d="M1602 -180q168 0 313 43l-23 -148q-152 -41 -313 -41q-246 0 -461 89.5t-360 242.5q-70 -18 -146 -18q-227 0 -380.5 152.5t-153.5 375.5q0 211 142 368.5t392 157.5t391.5 -157.5t141.5 -368.5q0 -141 -64.5 -259t-177.5 -187q117 -115 299.5 -182.5t399.5 -67.5z
M244 516.5q0 -151.5 97 -263.5t271 -112t270.5 112t96.5 263.5t-96.5 262t-270.5 110.5t-271 -110.5t-97 -262z" />
    <glyph glyph-name="r" unicode="r" horiz-adv-x="974" 
d="M434 1028q188 0 298 -89t110 -237q0 -215 -162 -305l252 -397h-182l-287 461q98 4 157.5 63.5t59.5 155.5q0 94 -67.5 147.5t-186.5 53.5h-117v-881h-164v1028h289z" />
    <glyph glyph-name="s" unicode="s" horiz-adv-x="743" 
d="M104 762q0 127 85 202.5t229 75.5q131 0 221 -51l-31 -137q-92 39 -184 39q-168 0 -168 -115q0 -51 42 -92t101.5 -73.5t119 -71.5t101.5 -106.5t42 -160.5q0 -131 -88.5 -205.5t-243.5 -74.5q-150 0 -252 63l26 146q106 -66 226 -66q180 0 180 148q0 49 -42 89
t-101.5 71.5t-119 68.5t-101.5 100.5t-42 149.5z" />
    <glyph glyph-name="t" unicode="t" horiz-adv-x="917" 
d="M881 1028v-147h-340v-881h-164v881h-340v147h844z" />
    <glyph glyph-name="u" unicode="u" horiz-adv-x="1087" 
d="M301 1028v-573q0 -303 242 -303q246 0 245 305v571h166v-584q0 -221 -107.5 -337.5t-303.5 -116.5q-199 0 -304.5 116.5t-105.5 337.5v584h168z" />
    <glyph glyph-name="v" unicode="v" horiz-adv-x="997" 
d="M207 1028l244 -582l51 -129l55 127l250 584h180l-479 -1036h-21l-475 1036h195z" />
    <glyph glyph-name="w" unicode="w" horiz-adv-x="1509" 
d="M1313 1028h172l-385 -1038h-35l-317 717l-297 -717h-35l-400 1038h177l247 -709l289 709h35l313 -717z" />
    <glyph glyph-name="x" unicode="x" horiz-adv-x="993" 
d="M985 0h-197l-294 395l-289 -395h-193l381 522l-362 506h188l283 -389l270 389h186l-356 -512z" />
    <glyph glyph-name="y" unicode="y" horiz-adv-x="1024" 
d="M213 1028l227 -348l74 -111l78 119l227 340h187l-410 -606v-422h-168v422l-410 606h195z" />
    <glyph glyph-name="z" unicode="z" horiz-adv-x="882" 
d="M809 1028v-29l-516 -849h549v-150h-797v29l512 848h-477v151h729z" />
    <glyph glyph-name="braceleft" unicode="{" horiz-adv-x="733" 
d="M8 784q266 0 266 324v22q0 219 97.5 319.5t312.5 100.5v-164q-250 0 -250 -256v-24q0 -174 -48 -266t-163 -135v-9q115 -43 163 -135t48 -266v-25q0 -256 250 -256v-164q-215 0 -312.5 100.5t-97.5 319.5v23q0 324 -266 323v168z" />
    <glyph glyph-name="bar" unicode="|" horiz-adv-x="491" 
d="M326 1522v-1645h-160v1645h160z" />
    <glyph glyph-name="braceright" unicode="}" horiz-adv-x="737" 
d="M725 612q-266 0 -266 -323v-23q0 -219 -97.5 -319.5t-312.5 -100.5v164q250 0 250 256v25q0 174 48 266t163 135v8q-115 43 -163 135.5t-48 266.5v24q0 256 -250 256v164q215 0 312.5 -100t97.5 -320v-22q0 -324 266 -324v-168z" />
    <glyph glyph-name="asciitilde" unicode="~" horiz-adv-x="905" 
d="M59 1544q113 137 275 127q63 -4 136 -38t116 -36q100 -10 180 70l86 -90q-113 -137 -274 -127q-63 4 -137 38t-115 36q-106 4 -181 -70z" />
    <glyph glyph-name="exclamdown" unicode="&#xa1;" horiz-adv-x="477" 
d="M131 1317q0 45 31 75.5t76 30.5t75.5 -30.5t30.5 -75.5t-30.5 -76t-75.5 -31t-76 31t-31 76zM334 -23h-191l45 1104h101z" />
    <glyph glyph-name="cent" unicode="&#xa2;" horiz-adv-x="886" 
d="M762 283l37 -127q-102 -45 -219 -56v-157h-156v166q-154 33 -248 147.5t-94 284.5q0 168 95 278.5t249 143.5v167h158v-157q102 -6 215 -51l-29 -136q-94 37 -188 43v-587q82 6 180 41zM233 541q0 -215 191 -281l2 553q-193 -59 -193 -272z" />
    <glyph glyph-name="sterling" unicode="&#xa3;" horiz-adv-x="1077" 
d="M496 440q0 -143 -148 -284h643v-156h-835v143q96 86 141 155t45 140q0 86 -53 193h-205v139h133q-61 123 -61 236q0 201 140 308t357 107q170 0 355 -69l-31 -148q-137 63 -313 64q-160 0 -252.5 -75t-92.5 -196q0 -109 60 -227h403v-139h-331q45 -95 45 -191z" />
    <glyph glyph-name="currency" unicode="&#xa4;" horiz-adv-x="1038" 
d="M893 516q0 -111 -57 -203l79 -82l-104 -108l-82 84q-94 -61 -209 -62q-111 0 -201 56l-86 -88l-104 110l80 82q-63 92 -63.5 211t63.5 213l-86 88l104 111l92 -94q84 51 201 51q127 0 217 -62l86 88l105 -108l-88 -90q53 -91 53 -197zM301 516q0 -88 57.5 -154.5
t161.5 -66.5q102 0 161.5 66.5t59.5 154.5t-59 154.5t-162 66.5q-104 0 -161.5 -66.5t-57.5 -154.5z" />
    <glyph glyph-name="yen" unicode="&#xa5;" horiz-adv-x="1236" 
d="M1184 1399l-400 -670h281v-129h-358l-9 -14v-103h367v-129h-367v-354h-166v354h-360v129h360v111l-4 6h-356v129h281l-400 670h178l387 -643l398 643h168z" />
    <glyph glyph-name="brokenbar" unicode="&#xa6;" horiz-adv-x="495" 
d="M328 1518v-738h-160v738h160zM328 606v-729h-160v729h160z" />
    <glyph glyph-name="section" unicode="&#xa7;" horiz-adv-x="907" 
d="M840 508q0 -121 -82 -202t-189 -103q147 -92 148 -258q0 -127 -85 -207t-222 -80q-184 0 -277 63l27 146q106 -66 231 -66q76 0 123 42t47 108q0 35 -12 65.5t-25.5 50t-45.5 42t-51 34t-63.5 33t-60.5 31.5q-100 51 -157.5 117.5t-57.5 175.5q0 117 67.5 200.5
t174.5 108.5q-84 47 -127 103.5t-43 158.5q0 123 86 204t225 81q123 0 223 -51l-30 -138q-98 39 -183 39q-166 0 -166 -129q0 -35 21.5 -67.5t69 -65.5t82 -51.5t102.5 -52.5q135 -68 192.5 -140.5t57.5 -191.5zM516 319q72 16 120 66.5t48 112.5q0 96 -63 153
q-66 59 -175 60q-86 0 -144 -54.5t-58 -132.5q0 -98 62.5 -154.5t158.5 -56.5q26 0 51 6z" />
    <glyph glyph-name="dieresis" unicode="&#xa8;" horiz-adv-x="864" 
d="M152 1266q0 45 32.5 77.5t79.5 32.5q45 0 78 -32.5t33 -77.5t-33 -78t-78 -33q-47 0 -79.5 33t-32.5 78zM489 1266q0 45 33 77.5t80 32.5q45 0 78 -32.5t33 -77.5t-33 -78t-78 -33q-47 0 -80 33t-33 78z" />
    <glyph glyph-name="copyright" unicode="&#xa9;" horiz-adv-x="1609" 
d="M92 641q0 135 46 260t132 226.5t224.5 162t310.5 60.5t310 -60.5t224 -162t132.5 -226.5t46.5 -260q0 -303 -205 -507t-508 -204t-508 204t-205 507zM225 641q0 -233 156 -405.5t424 -172.5t423.5 172.5t155.5 405.5t-155.5 408.5t-423.5 175.5t-424 -175.5t-156 -408.5z
M440 649q0 178 115 286.5t283 108.5q121 0 233 -53l-33 -143q-98 49 -211 49q-111 0 -178 -68.5t-67 -179t71.5 -183.5t182.5 -73q88 0 190 51l45 -139q-123 -55 -231 -55q-174 0 -287 113.5t-113 285.5z" />
    <glyph glyph-name="ordfeminine" unicode="&#xaa;" horiz-adv-x="749" 
d="M555 887l-37 76h-293l-37 -76h-139l303 590h47l301 -590h-145zM281 1073h186l-92 193z" />
    <glyph glyph-name="guillemotleft" unicode="&#xab;" horiz-adv-x="884" 
d="M444 858l-202 -262l200 -264l-114 -76l-252 340l252 338zM770 858l-203 -262l201 -264l-115 -76l-252 340l252 338z" />
    <glyph glyph-name="registered" unicode="&#xae;" horiz-adv-x="915" 
d="M90 1030q0 156 107.5 262.5t259.5 106.5q156 0 262 -107.5t106 -261t-107.5 -261t-258.5 -107.5q-154 0 -261.5 106t-107.5 262zM174 1030q0 -123 81 -206t202 -83q123 0 203.5 82t80.5 207q0 121 -80.5 205t-203.5 84q-119 0 -201 -84t-82 -205zM446 1247
q78 0 124 -36.5t46 -98.5q0 -92 -67 -127l104 -162h-106l-121 191q41 0 68.5 25.5t27.5 64.5q0 37 -22.5 51t-73.5 14h-18v-346h-95v424h133z" />
    <glyph glyph-name="macron" unicode="&#xaf;" horiz-adv-x="856" 
d="M733 1657v-131h-610v131h610z" />
    <glyph glyph-name="degree" unicode="&#xb0;" horiz-adv-x="731" 
d="M76 1171q0 123 85 207t205.5 84t205.5 -86t85 -204.5t-85 -204.5t-207 -86q-121 0 -205 84.5t-84 205.5zM193 1171q0 -74 51 -124t123 -50q74 0 123 51.5t49 123t-50.5 121.5t-122 50t-122.5 -50t-51 -122z" />
    <glyph glyph-name="plusminus" unicode="&#xb1;" horiz-adv-x="976" 
d="M563 682h301v-143h-301v-306h-147v306h-303v143h303v303h147v-303zM113 14v144h751v-144h-751z" />
    <glyph glyph-name="acute" unicode="&#xb4;" horiz-adv-x="700" 
d="M578 1241l-424 -115l-31 99l383 174z" />
    <glyph glyph-name="paragraph" unicode="&#xb6;" horiz-adv-x="1146" 
d="M1079 1317l-30 -146q-74 37 -160 52v-990q0 -256 -123 -389t-295 -133l-47 150q10 -2 33 -2q106 0 187 100t81 274v1002h-158v-752q-227 -2 -367.5 121t-140.5 324q0 229 144.5 350t419.5 121q302 0 456 -82z" />
    <glyph glyph-name="periodcentered" unicode="&#xb7;" horiz-adv-x="462" 
d="M231 594q45 0 76 -31t31 -76t-31 -75.5t-76 -30.5t-75.5 30.5t-30.5 75.5t30.5 76t75.5 31z" />
    <glyph glyph-name="cedilla" unicode="&#xb8;" horiz-adv-x="669" 
d="M358 -72q84 -8 131.5 -58t47.5 -124q0 -84 -61.5 -136t-170.5 -52q-88 0 -153 43l34 110q47 -41 121 -41q98 0 99 78q0 86 -119 86q-31 0 -68 -6l64 274l110 -4z" />
    <glyph glyph-name="ordmasculine" unicode="&#xba;" horiz-adv-x="757" 
d="M684 1171q0 -125 -89 -215t-218 -90q-127 0 -215 89t-88 216q0 129 89 217.5t216 88.5q125 0 215 -89.5t90 -216.5zM379 1348q-74 0 -126 -51.5t-52 -125t52 -126t126 -52.5t125 52.5t51 125.5q0 72 -51 124.5t-125 52.5z" />
    <glyph glyph-name="guillemotright" unicode="&#xbb;" horiz-adv-x="884" 
d="M231 934l252 -338l-252 -340l-114 76l200 264l-202 262zM557 934l252 -338l-252 -340l-115 76l201 264l-203 262z" />
    <glyph glyph-name="onequarter" unicode="&#xbc;" horiz-adv-x="1316" 
d="M305 1411v-731h-153v618zM950 1399h176l-878 -1399h-170zM1253 270v-118h-98v-150h-131v150h-348l-33 71l352 473h138l-306 -426h197v176h131v-176h98z" />
    <glyph glyph-name="onehalf" unicode="&#xbd;" horiz-adv-x="1425" 
d="M352 1411v-731h-153v618zM942 1399h176l-878 -1399h-170zM1118 131h248v-131h-578v41q182 98 279.5 197.5t97.5 185.5q0 63 -42 95t-111 32q-74 0 -170 -31l-33 131q115 47 225 47q131 0 202 -68.5t71 -172.5q-1 -181 -189 -326z" />
    <glyph glyph-name="threequarters" unicode="&#xbe;" horiz-adv-x="1470" 
d="M1114 1399h176l-878 -1399h-170zM557 848q0 -129 -122 -207t-304 -78l-29 115q141 0 225.5 46t84.5 126q0 125 -195 125q-25 0 -74 -4l150 213h-201v131h414v-25l-158 -223q90 -14 149.5 -72.5t59.5 -146.5zM1405 270v-118h-98v-150h-131v150h-349l-32 71l352 473h137
l-305 -426h197v176h131v-176h98z" />
    <glyph glyph-name="questiondown" unicode="&#xbf;" horiz-adv-x="944" 
d="M653 1343.5q0 -45.5 -31.5 -77t-76.5 -31.5t-77 31.5t-32 77t32 76t77 30.5t76.5 -30.5t31.5 -76zM895 94q-158 -127 -387 -127q-178 0 -299 105.5t-121 302.5q0 113 38 197.5t93 136t110.5 97.5t93.5 110.5t38 146.5l2 90h162v-90q0 -96 -38 -172t-92.5 -127
t-108.5 -99.5t-92 -118t-38 -157.5q0 -129 79 -193.5t197 -64.5q170 0 291 96z" />
    <glyph glyph-name="Agrave" unicode="&#xc0;" horiz-adv-x="1277" 
d="M893 1575l-31 -96l-469 127l64 166zM1094 0l-156 360h-606l-152 -360h-184l625 1413h36l625 -1413h-188zM395 512h479l-243 565z" />
    <glyph glyph-name="Aacute" unicode="&#xc1;" horiz-adv-x="1277" 
d="M897 1610l-483 -131l-31 96l440 199zM1094 0l-156 360h-606l-152 -360h-184l625 1413h36l625 -1413h-188zM395 512h479l-243 565z" />
    <glyph glyph-name="Acircumflex" unicode="&#xc2;" horiz-adv-x="1277" 
d="M647 1608l-289 -131l-47 90l336 207l336 -207l-47 -90zM1094 0l-156 360h-606l-152 -360h-184l625 1413h36l625 -1413h-188zM395 512h479l-243 565z" />
    <glyph glyph-name="Atilde" unicode="&#xc3;" horiz-adv-x="1277" 
d="M535 1593q-78 0 -132 -82l-90 91q33 57 92.5 94t129.5 37q57 0 132.5 -38t116.5 -38q76 0 129 78l93 -93q-35 -55 -94.5 -89.5t-125.5 -34.5q-55 0 -131.5 37.5t-119.5 37.5zM1094 0l-156 360h-606l-152 -360h-184l625 1413h36l625 -1413h-188zM395 512h479l-243 565z
" />
    <glyph glyph-name="Adieresis" unicode="&#xc4;" horiz-adv-x="1277" 
d="M438 1511q-47 0 -79.5 33t-32.5 78t32.5 78t79.5 33q45 0 78 -33t33 -78t-33 -78t-78 -33zM838 1511q-47 0 -80 33t-33 78t33 78t80 33q45 0 77.5 -33t32.5 -78t-32.5 -78t-77.5 -33zM1094 0l-156 360h-606l-152 -360h-184l625 1413h36l625 -1413h-188zM395 512h479
l-243 565z" />
    <glyph glyph-name="Aring" unicode="&#xc5;" horiz-adv-x="1277" 
d="M1094 0l-156 360h-606l-152 -360h-184l618 1401q-82 8 -135 67.5t-53 143.5q0 88 60.5 149.5t152.5 61.5q90 0 151.5 -61.5t61.5 -149.5q0 -84 -53.5 -143.5t-134.5 -67.5l618 -1401h-188zM553 1612q0 -37 23.5 -62.5t62.5 -25.5t62.5 25.5t23.5 62.5t-23.5 61.5
t-62.5 24.5t-62.5 -24.5t-23.5 -61.5zM395 512h479l-243 565z" />
    <glyph glyph-name="AE" unicode="&#xc6;" horiz-adv-x="1656" 
d="M1554 1243h-565v-446h492v-156h-492v-485h565v-156h-729v412h-469l-182 -412h-182l633 1399h929v-156zM422 563h403v680h-102z" />
    <glyph glyph-name="Ccedilla" unicode="&#xc7;" horiz-adv-x="1294" 
d="M1231 88q-178 -96 -412 -100l-10 -43q84 -8 131 -58.5t47 -124.5q0 -84 -61.5 -136t-169.5 -52q-88 0 -154 43l35 111q47 -41 121 -41q98 0 98 77q0 86 -119 86q-31 0 -67 -6l35 150q-266 33 -439.5 220t-173.5 484q0 326 205 519.5t504 193.5q248 0 430 -100l-35 -154
q-186 98 -395 98q-233 0 -386 -157.5t-153 -399t153.5 -398.5t385.5 -157q209 0 395 99z" />
    <glyph glyph-name="Egrave" unicode="&#xc8;" horiz-adv-x="1007" 
d="M799 1575l-31 -96l-469 127l63 166zM905 1399v-156h-565v-446h491v-156h-491v-485h565v-156h-729v1399h729z" />
    <glyph glyph-name="Eacute" unicode="&#xc9;" horiz-adv-x="1007" 
d="M289 1575l440 199l74 -164l-484 -131zM905 1399v-156h-565v-446h491v-156h-491v-485h565v-156h-729v1399h729z" />
    <glyph glyph-name="Ecircumflex" unicode="&#xca;" horiz-adv-x="1007" 
d="M553 1608l-289 -131l-47 90l336 207l336 -207l-47 -90zM905 1243h-565v-446h491v-156h-491v-485h565v-156h-729v1399h729v-156z" />
    <glyph glyph-name="Edieresis" unicode="&#xcb;" horiz-adv-x="1007" 
d="M231 1622q0 45 33 78t80 33q45 0 78 -33t33 -78t-33 -78t-78 -33q-47 0 -80 33t-33 78zM631 1622q0 45 32.5 78t79.5 33q45 0 78 -33t33 -78t-33 -78t-78 -33q-47 0 -79.5 33t-32.5 78zM905 1399v-156h-565v-446h491v-156h-491v-485h565v-156h-729v1399h729z" />
    <glyph glyph-name="Igrave" unicode="&#xcc;" horiz-adv-x="516" 
d="M512 1571l-31 -96l-469 127l64 165zM340 1399v-1399h-164v1399h164z" />
    <glyph glyph-name="Iacute" unicode="&#xcd;" horiz-adv-x="516" 
d="M2 1571l440 198l74 -163l-483 -131zM340 1399v-1399h-164v1399h164z" />
    <glyph glyph-name="Icircumflex" unicode="&#xce;" horiz-adv-x="516" 
d="M266 1769l336 -206l-47 -90l-289 131l-289 -131l-47 90zM176 0v1399h164v-1399h-164z" />
    <glyph glyph-name="Idieresis" unicode="&#xcf;" horiz-adv-x="516" 
d="M-55 1618q0 45 32.5 78t79.5 33q45 0 78 -33t33 -78t-33 -78t-78 -33q-47 0 -79.5 33t-32.5 78zM344 1618q0 45 33 78t80 33q45 0 77.5 -33t32.5 -78t-32.5 -78t-77.5 -33q-47 0 -80 33t-33 78zM340 1399v-1399h-164v1399h164z" />
    <glyph glyph-name="Eth" unicode="&#xd0;" horiz-adv-x="1525" 
d="M707 1399q334 0 530.5 -189.5t196.5 -504.5q0 -317 -198 -511t-529 -194h-510v633h-156v151h156v615h510zM707 156q260 0 408.5 149.5t148.5 392.5q0 246 -149.5 395.5t-407.5 149.5h-347v-459h353v-151h-353v-477h347z" />
    <glyph glyph-name="Ntilde" unicode="&#xd1;" horiz-adv-x="1452" 
d="M616 1589q-78 0 -131 -82l-90 90q33 57 92.5 94.5t128.5 37.5q57 0 133 -38t117 -38q76 0 129 78l92 -93q-35 -55 -94 -90t-125 -35q-55 0 -132 38t-120 38zM1112 1399h164v-1409h-41l-895 1042v-1032h-164v1409h41l895 -1036v1026z" />
    <glyph glyph-name="Ograve" unicode="&#xd2;" horiz-adv-x="1605" 
d="M1057 1583l-31 -96l-469 127l64 166zM90 702q0 135 46 260t132 226.5t224.5 162t310.5 60.5t310 -60.5t224 -162t132.5 -226t46.5 -260.5q0 -303 -205 -506.5t-508 -203.5t-508 203.5t-205 506.5zM260 702.5q0 -223.5 143.5 -387t399.5 -163.5t399.5 163.5t143.5 387
t-143.5 386t-399.5 162.5t-399.5 -162.5t-143.5 -386z" />
    <glyph glyph-name="Oacute" unicode="&#xd3;" horiz-adv-x="1605" 
d="M547 1583l440 199l74 -164l-483 -131zM90 702q0 135 46 260t132 226.5t224.5 162t310.5 60.5t310 -60.5t224 -162t132.5 -226t46.5 -260.5q0 -303 -205 -506.5t-508 -203.5t-508 203.5t-205 506.5zM260 702.5q0 -223.5 143.5 -387t399.5 -163.5t399.5 163.5t143.5 387
t-143.5 386t-399.5 162.5t-399.5 -162.5t-143.5 -386z" />
    <glyph glyph-name="Ocircumflex" unicode="&#xd4;" horiz-adv-x="1605" 
d="M811 1616l-289 -131l-47 90l336 207l336 -207l-47 -90zM803 1411q172 0 310 -60.5t224 -162t132.5 -226t46.5 -260.5q0 -303 -205 -506.5t-508 -203.5t-508 203.5t-205 506.5q0 135 46 260t132 226.5t224.5 162t310.5 60.5zM803 152q256 0 399.5 163.5t143.5 387
t-143.5 386t-399.5 162.5t-399.5 -162.5t-143.5 -386t143.5 -387t399.5 -163.5z" />
    <glyph glyph-name="Otilde" unicode="&#xd5;" horiz-adv-x="1605" 
d="M698 1741q57 0 133 -38t117 -38q76 0 129 78l92 -92q-35 -55 -94 -90t-125 -35q-55 0 -132 38t-120 38q-78 0 -131 -82l-90 90q33 57 92 94t129 37zM90 702q0 135 46 260t132 226.5t224.5 162t310.5 60.5t310 -60.5t224 -162t132.5 -226t46.5 -260.5q0 -303 -205 -506.5
t-508 -203.5t-508 203.5t-205 506.5zM260 702.5q0 -223.5 143.5 -387t399.5 -163.5t399.5 163.5t143.5 387t-143.5 386t-399.5 162.5t-399.5 -162.5t-143.5 -386z" />
    <glyph glyph-name="Odieresis" unicode="&#xd6;" horiz-adv-x="1605" 
d="M489 1630q0 45 33 78t80 33q45 0 78 -33t33 -78t-33 -77.5t-78 -32.5q-47 0 -80 32.5t-33 77.5zM889 1630q0 45 32.5 78t79.5 33q45 0 78 -33t33 -78t-32.5 -77.5t-78.5 -32.5q-47 0 -79.5 32.5t-32.5 77.5zM90 702q0 135 46 260t132 226.5t224.5 162t310.5 60.5
t310 -60.5t224 -162t132.5 -226t46.5 -260.5q0 -303 -205 -506.5t-508 -203.5t-508 203.5t-205 506.5zM260 702.5q0 -223.5 143.5 -387t399.5 -163.5t399.5 163.5t143.5 387t-143.5 386t-399.5 162.5t-399.5 -162.5t-143.5 -386z" />
    <glyph glyph-name="multiply" unicode="&#xd7;" horiz-adv-x="921" 
d="M807 782l-244 -243l244 -244l-102 -102l-244 243l-244 -243l-102 102l243 244l-243 243l104 103l242 -242l241 242z" />
    <glyph glyph-name="Oslash" unicode="&#xd8;" horiz-adv-x="1613" 
d="M1352 1174q168 -195 168 -474q0 -303 -205 -506.5t-508 -203.5q-252 0 -445 147l-149 -155l-107 96l152 160q-164 197 -164 462q0 135 46 260t132 226.5t224.5 162t310.5 60.5q258 0 442 -137l131 137l107 -94zM264 700q0 -195 109 -344l760 795q-135 98 -326 98
q-256 0 -399.5 -163t-143.5 -386zM807 150q256 0 399.5 163.5t143.5 386.5q0 201 -115 351l-762 -797q141 -104 334 -104z" />
    <glyph glyph-name="Ugrave" unicode="&#xd9;" horiz-adv-x="1402" 
d="M956 1571l-30 -96l-469 127l63 165zM328 1399v-817q0 -211 98 -324t276.5 -113t276.5 113t98 324v817h164v-817q0 -287 -138 -439.5t-403 -152.5q-266 0 -402 152.5t-136 439.5v817h166z" />
    <glyph glyph-name="Uacute" unicode="&#xda;" horiz-adv-x="1402" 
d="M446 1571l441 198l74 -163l-484 -131zM328 1399v-817q0 -211 98 -324t276.5 -113t276.5 113t98 324v817h164v-817q0 -287 -138 -439.5t-403 -152.5q-266 0 -402 152.5t-136 439.5v817h166z" />
    <glyph glyph-name="Ucircumflex" unicode="&#xdb;" horiz-adv-x="1402" 
d="M711 1604l-289 -131l-47 90l336 206l336 -206l-48 -90zM1077 1399h164v-817q0 -287 -138 -439.5t-403 -152.5q-266 0 -402 152.5t-136 439.5v817h166v-817q0 -211 98 -324t276.5 -113t276.5 113t98 324v817z" />
    <glyph glyph-name="Udieresis" unicode="&#xdc;" horiz-adv-x="1402" 
d="M389 1618q0 45 33 78t80 33q45 0 77.5 -33t32.5 -78t-32.5 -78t-77.5 -33q-47 0 -80 33t-33 78zM788 1618q0 45 33 78t80 33q45 0 78 -33t33 -78t-33 -78t-78 -33q-47 0 -80 33t-33 78zM328 1399v-817q0 -211 98 -324t276.5 -113t276.5 113t98 324v817h164v-817
q0 -287 -138 -439.5t-403 -152.5q-266 0 -402 152.5t-136 439.5v817h166z" />
    <glyph glyph-name="Yacute" unicode="&#xdd;" horiz-adv-x="1304" 
d="M399 1571l441 198l73 -163l-483 -131zM225 1399l432 -651l439 651h186l-549 -813v-586h-166v594l-542 805h200z" />
    <glyph glyph-name="Thorn" unicode="&#xde;" horiz-adv-x="1077" 
d="M582 1087q193 0 305 -94t112 -291q0 -180 -114.5 -280t-302.5 -100h-80l-51 151h137q113 0 179.5 56.5t66.5 173t-67 173t-179 56.5h-246v-932h-166v1399h166v-312h240z" />
    <glyph glyph-name="germandbls" unicode="&#xdf;" horiz-adv-x="1073" 
d="M766 588q231 -117 231 -316q0 -129 -92 -204.5t-250 -75.5q-143 0 -235 63l26 146q106 -66 236 -66q76 0 118 37t42 102q0 84 -62.5 143.5t-234.5 127.5l221 248q-74 109 -223 108q-115 0 -179.5 -63.5t-64.5 -182.5v-655h-164v678q0 178 109.5 279.5t304.5 101.5
q150 0 259.5 -83t129.5 -212z" />
    <glyph glyph-name="agrave" unicode="&#xe0;" horiz-adv-x="1062" 
d="M758 1225l-31 -99l-424 115l72 158zM879 0l-99 211h-501l-101 -211h-172l516 1042h21l512 -1042h-176zM342 344h377l-187 401z" />
    <glyph glyph-name="aacute" unicode="&#xe1;" horiz-adv-x="1062" 
d="M760 1241l-424 -115l-31 99l383 174zM879 0l-99 211h-501l-101 -211h-172l516 1042h21l512 -1042h-176zM342 344h377l-187 401z" />
    <glyph glyph-name="acircumflex" unicode="&#xe2;" horiz-adv-x="1062" 
d="M532 1245l-247 -119l-47 91l294 196l295 -196l-47 -91zM879 0l-99 211h-501l-101 -211h-172l516 1042h21l512 -1042h-176zM342 344h377l-187 401z" />
    <glyph glyph-name="atilde" unicode="&#xe3;" horiz-adv-x="1062" 
d="M391 1296q-78 0 -131 -82l-90 91q33 57 92.5 94t128.5 37q57 0 133 -38t117 -38q76 0 129 78l92 -92q-35 -55 -94 -90t-125 -35q-55 0 -132 37.5t-120 37.5zM879 0l-99 211h-501l-101 -211h-172l516 1042h21l512 -1042h-176zM342 344h377l-187 401z" />
    <glyph glyph-name="adieresis" unicode="&#xe4;" horiz-adv-x="1062" 
d="M365 1155q-47 0 -80 33t-33 78t32.5 77.5t80.5 32.5q45 0 77.5 -32.5t32.5 -77.5t-32.5 -78t-77.5 -33zM702 1155q-47 0 -79.5 33t-32.5 78t32.5 77.5t79.5 32.5q45 0 78 -32.5t33 -77.5t-33 -78t-78 -33zM879 0l-99 211h-501l-101 -211h-172l516 1042h21l512 -1042h-176
zM342 344h377l-187 401z" />
    <glyph glyph-name="aring" unicode="&#xe5;" horiz-adv-x="1062" 
d="M879 0l-99 211h-501l-101 -211h-172l486 983q-76 12 -124.5 70.5t-48.5 138.5q0 88 60.5 149.5t152.5 61.5q90 0 151.5 -61.5t61.5 -149.5q0 -78 -48 -136.5t-126 -72.5l484 -983h-176zM446 1192q0 -37 24 -62.5t62.5 -25.5t62 25.5t23.5 62.5t-23.5 61.5t-62 24.5
t-62.5 -24.5t-24 -61.5zM342 344h377l-187 401z" />
    <glyph glyph-name="ae" unicode="&#xe6;" horiz-adv-x="1419" 
d="M1335 881h-463v-295h394v-146h-394v-288h455v-152h-618v211h-420l-109 -211h-184l553 1028h786v-147zM356 342h353v539h-74z" />
    <glyph glyph-name="ccedilla" unicode="&#xe7;" horiz-adv-x="985" 
d="M618 -10h-26l-12 -58q84 -8 131 -58t47 -124q0 -84 -61.5 -136t-170.5 -52q-88 0 -153 43l35 110q47 -41 120 -41q98 0 99 78q0 86 -119 86q-31 0 -68 -6l39 172q-180 39 -289.5 174t-109.5 338q0 240 151.5 382t386.5 142q164 0 306 -73l-35 -158q-137 70 -279 70
q-172 0 -270 -99.5t-98 -263.5q0 -166 98 -265t270 -99q141 0 279 69l35 -158q-142 -73 -306 -73z" />
    <glyph glyph-name="egrave" unicode="&#xe8;" horiz-adv-x="856" 
d="M307 1399l383 -174l-31 -99l-423 115zM772 1028v-147h-463v-295h393v-146h-393v-288h455v-152h-619v1028h627z" />
    <glyph glyph-name="eacute" unicode="&#xe9;" horiz-adv-x="856" 
d="M692 1241l-424 -115l-30 99l383 174zM772 1028v-147h-463v-295h393v-146h-393v-288h455v-152h-619v1028h627z" />
    <glyph glyph-name="ecircumflex" unicode="&#xea;" horiz-adv-x="856" 
d="M465 1245l-248 -119l-47 91l295 196l295 -196l-47 -91zM772 881h-463v-295h393v-146h-393v-288h455v-152h-619v1028h627v-147z" />
    <glyph glyph-name="edieresis" unicode="&#xeb;" horiz-adv-x="856" 
d="M184 1266q0 45 33 77.5t80 32.5q45 0 78 -32.5t33 -77.5t-33 -78t-78 -33q-47 0 -80 33t-33 78zM522 1266q0 45 33 77.5t80 32.5q45 0 77.5 -32.5t32.5 -77.5t-32.5 -78t-77.5 -33q-47 0 -80 33t-33 78zM772 1028v-147h-463v-295h393v-146h-393v-288h455v-152h-619v1028
h627z" />
    <glyph glyph-name="igrave" unicode="&#xec;" horiz-adv-x="454" 
d="M72 1399l383 -174l-31 -99l-424 115zM309 1028v-1028h-164v1028h164z" />
    <glyph glyph-name="iacute" unicode="&#xed;" horiz-adv-x="454" 
d="M457 1241l-424 -115l-31 99l383 174zM309 1028v-1028h-164v1028h164z" />
    <glyph glyph-name="icircumflex" unicode="&#xee;" horiz-adv-x="454" 
d="M229 1413l295 -196l-47 -91l-248 119l-247 -119l-48 91zM145 0v1028h164v-1028h-164z" />
    <glyph glyph-name="idieresis" unicode="&#xef;" horiz-adv-x="454" 
d="M-51 1266q0 45 32.5 77.5t79.5 32.5q45 0 78 -32.5t33 -77.5t-33 -78t-78 -33q-47 0 -79.5 33t-32.5 78zM287 1266q0 45 32.5 77.5t79.5 32.5q45 0 78 -32.5t33 -77.5t-33 -78t-78 -33q-47 0 -79.5 33t-32.5 78zM309 1028v-1028h-164v1028h164z" />
    <glyph glyph-name="eth" unicode="&#xf0;" horiz-adv-x="1134" 
d="M539 1028q233 0 376.5 -141.5t143.5 -372.5q0 -229 -145.5 -371.5t-381.5 -142.5h-378v438h-93v148h93v442h385zM506 156q184 0 285.5 93t101.5 255q0 172 -97.5 271t-275.5 99h-203v-288h252v-148h-252v-282h189z" />
    <glyph glyph-name="ntilde" unicode="&#xf1;" horiz-adv-x="1155" 
d="M905 1346q-35 -55 -94 -90t-125 -35q-55 0 -132 37.5t-120 37.5q-78 0 -131 -82l-90 91q33 57 92.5 94t128.5 37q57 0 133 -38t117 -38q76 0 129 78zM178 1040l567 -583l99 -107l6 678h160v-1038h-29l-590 594l-82 90v-676h-164v1042h33z" />
    <glyph glyph-name="ograve" unicode="&#xf2;" horiz-adv-x="1222" 
d="M455 1399l383 -174l-31 -99l-424 115zM78 516q0 211 142 368.5t392 157.5t391.5 -157.5t141.5 -368.5q0 -223 -152.5 -375.5t-380 -152.5t-381 152.5t-153.5 375.5zM244 516.5q0 -151.5 97 -263.5t271 -112t270.5 112t96.5 263.5t-96.5 262t-270.5 110.5t-271 -110.5
t-97 -262z" />
    <glyph glyph-name="oacute" unicode="&#xf3;" horiz-adv-x="1222" 
d="M840 1241l-424 -115l-31 99l383 174zM78 516q0 211 142 368.5t392 157.5t391.5 -157.5t141.5 -368.5q0 -223 -152.5 -375.5t-380 -152.5t-381 152.5t-153.5 375.5zM244 516.5q0 -151.5 97 -263.5t271 -112t270.5 112t96.5 263.5t-96.5 262t-270.5 110.5t-271 -110.5
t-97 -262z" />
    <glyph glyph-name="ocircumflex" unicode="&#xf4;" horiz-adv-x="1222" 
d="M612 1245l-247 -119l-48 91l295 196l295 -196l-47 -91zM612 1042q250 0 391.5 -157.5t141.5 -368.5q0 -223 -152.5 -375.5t-380 -152.5t-381 152.5t-153.5 375.5q0 211 142 368.5t392 157.5zM612 141q174 0 270.5 112t96.5 263.5t-96.5 262t-270.5 110.5t-271 -110.5
t-97 -262t97 -263.5t271 -112z" />
    <glyph glyph-name="otilde" unicode="&#xf5;" horiz-adv-x="1222" 
d="M942 1346q-35 -55 -94.5 -90t-124.5 -35q-55 0 -132 37.5t-120 37.5q-78 0 -131 -82l-90 91q33 57 92 94t129 37q57 0 133 -38t117 -38q76 0 129 78zM78 516q0 211 142 368.5t392 157.5t391.5 -157.5t141.5 -368.5q0 -223 -152.5 -375.5t-380 -152.5t-381 152.5
t-153.5 375.5zM244 516.5q0 -151.5 97 -263.5t271 -112t270.5 112t96.5 263.5t-96.5 262t-270.5 110.5t-271 -110.5t-97 -262z" />
    <glyph glyph-name="odieresis" unicode="&#xf6;" horiz-adv-x="1222" 
d="M332 1266q0 45 32.5 77.5t79.5 32.5q45 0 78 -32.5t33 -77.5t-33 -78t-78 -33q-47 0 -79.5 33t-32.5 78zM670 1266q0 45 32.5 77.5t79.5 32.5q45 0 78 -32.5t33 -77.5t-33 -78t-78 -33q-47 0 -79.5 33t-32.5 78zM78 516q0 211 142 368.5t392 157.5t391.5 -157.5
t141.5 -368.5q0 -223 -152.5 -375.5t-380 -152.5t-381 152.5t-153.5 375.5zM244 516.5q0 -151.5 97 -263.5t271 -112t270.5 112t96.5 263.5t-96.5 262t-270.5 110.5t-271 -110.5t-97 -262z" />
    <glyph glyph-name="divide" unicode="&#xf7;" horiz-adv-x="942" 
d="M471 971q49 0 86 -36t37 -89q0 -47 -37 -84t-86 -39q-49 2 -86 39t-37 84q0 53 37 89t86 36zM848 623v-160h-754v160h754zM471 365q49 0 86 -36t37 -89q0 -47 -37 -84t-86 -39q-49 2 -86 39t-37 84q0 53 37 89t86 36z" />
    <glyph glyph-name="oslash" unicode="&#xf8;" horiz-adv-x="1232" 
d="M1038 852q113 -143 113 -336q0 -223 -152.5 -375.5t-380.5 -152.5q-176 0 -313 96l-104 -111l-107 99l107 110q-117 143 -117 334q0 211 142.5 368.5t391.5 157.5q184 0 316 -92l100 105l107 -97zM250 516q0 -123 61 -217l512 535q-88 55 -205 55q-174 0 -271 -110.5
t-97 -262.5zM618 141q174 0 270.5 112t96.5 263q0 119 -61 215l-510 -534q87 -56 204 -56z" />
    <glyph glyph-name="ugrave" unicode="&#xf9;" horiz-adv-x="1087" 
d="M389 1399l383 -174l-31 -99l-424 115zM301 1028v-573q0 -303 242 -303q246 0 245 305v571h166v-584q0 -221 -107.5 -337.5t-303.5 -116.5q-199 0 -304.5 116.5t-105.5 337.5v584h168z" />
    <glyph glyph-name="uacute" unicode="&#xfa;" horiz-adv-x="1087" 
d="M774 1241l-424 -115l-31 99l383 174zM301 1028v-573q0 -303 242 -303q246 0 245 305v571h166v-584q0 -221 -107.5 -337.5t-303.5 -116.5q-199 0 -304.5 116.5t-105.5 337.5v584h168z" />
    <glyph glyph-name="ucircumflex" unicode="&#xfb;" horiz-adv-x="1087" 
d="M547 1245l-248 -119l-47 91l295 196l295 -196l-47 -91zM788 1028h166v-584q0 -221 -107.5 -337.5t-303.5 -116.5q-199 0 -304.5 116.5t-105.5 337.5v584h168v-573q0 -303 242 -303q246 0 245 305v571z" />
    <glyph glyph-name="udieresis" unicode="&#xfc;" horiz-adv-x="1087" 
d="M266 1266q0 45 33 77.5t80 32.5q45 0 77.5 -32.5t32.5 -77.5t-32.5 -78t-77.5 -33q-47 0 -80 33t-33 78zM604 1266q0 45 33 77.5t80 32.5q45 0 77.5 -32.5t32.5 -77.5t-32.5 -78t-77.5 -33q-47 0 -80 33t-33 78zM301 1028v-573q0 -303 242 -303q246 0 245 305v571h166
v-584q0 -221 -107.5 -337.5t-303.5 -116.5q-199 0 -304.5 116.5t-105.5 337.5v584h168z" />
    <glyph glyph-name="yacute" unicode="&#xfd;" horiz-adv-x="1024" 
d="M737 1241l-424 -115l-30 99l383 174zM213 1028l227 -348l74 -111l78 119l227 340h187l-410 -606v-422h-168v422l-410 606h195z" />
    <glyph glyph-name="thorn" unicode="&#xfe;" horiz-adv-x="993" 
d="M526 864q182 0 290 -98t108 -260q0 -141 -94.5 -234.5t-239.5 -93.5h-137l-45 144h137q217 0 217 184q0 96 -61.5 153.5t-168.5 57.5h-223v-717h-164v1028h164v-164h217z" />
    <glyph glyph-name="ydieresis" unicode="&#xff;" horiz-adv-x="1024" 
d="M229 1266q0 45 33 77.5t80 32.5q45 0 78 -32.5t33 -77.5t-33 -78t-78 -33q-47 0 -80 33t-33 78zM567 1266q0 45 33 77.5t80 32.5q45 0 78 -32.5t33 -77.5t-33 -78t-78 -33q-47 0 -80 33t-33 78zM213 1028l227 -348l74 -111l78 119l227 340h187l-410 -606v-422h-168v422
l-410 606h195z" />
    <glyph glyph-name="Amacron" unicode="&#x100;" horiz-adv-x="1277" 
d="M944 1636v-127h-610v127h610zM1094 0l-156 360h-606l-152 -360h-184l625 1413h36l625 -1413h-188zM395 512h479l-243 565z" />
    <glyph glyph-name="amacron" unicode="&#x101;" horiz-adv-x="1062" 
d="M807 1325v-127h-549v127h549zM879 0l-99 211h-501l-101 -211h-172l516 1042h21l512 -1042h-176zM342 344h377l-187 401z" />
    <glyph glyph-name="Abreve" unicode="&#x102;" horiz-adv-x="1277" 
d="M623 1499q-125 0 -201 75t-76 200h123q0 -68 41 -108t112.5 -40t112.5 40t41 108h123q0 -125 -75.5 -200t-200.5 -75zM1094 0l-156 360h-606l-152 -360h-184l625 1413h36l625 -1413h-188zM395 512h479l-243 565z" />
    <glyph glyph-name="abreve" unicode="&#x103;" horiz-adv-x="1062" 
d="M532.5 1124q-124.5 0 -200.5 75t-76 200h123q0 -68 41 -108t112.5 -40t112.5 40t41 108h123q0 -125 -76 -200t-200.5 -75zM879 0l-99 211h-501l-101 -211h-172l516 1042h21l512 -1042h-176zM342 344h377l-187 401z" />
    <glyph glyph-name="Aogonek" unicode="&#x104;" horiz-adv-x="1277" 
d="M1292 -274l33 -109q-49 -23 -106 -23q-94 0 -148.5 49.5t-54.5 139.5q0 119 104 217h-26l-156 360h-606l-152 -360h-184l625 1413h36l625 -1413q-61 -39 -97 -93t-36 -102q0 -88 96 -88q24 1 47 9zM395 512h479l-243 565z" />
    <glyph glyph-name="aogonek" unicode="&#x105;" horiz-adv-x="1062" 
d="M1065 -276l35 -103q-59 -27 -109 -27q-92 0 -147.5 57.5t-55.5 149.5q0 109 97 199h-6l-99 211h-501l-101 -211h-172l516 1042h21l512 -1042q-55 -25 -93 -77t-38 -95q0 -55 26.5 -83t69.5 -28q20 1 45 7zM342 344h377l-187 401z" />
    <glyph glyph-name="Cacute" unicode="&#x106;" horiz-adv-x="1294" 
d="M545 1583l440 199l74 -164l-484 -131zM92 698q0 326 205 519.5t504 193.5q248 0 430 -100l-35 -154q-186 98 -395 98q-233 0 -386 -157.5t-153 -399t153.5 -398.5t385.5 -157q209 0 395 99l35 -154q-182 -100 -430 -100q-299 0 -504 193t-205 517z" />
    <glyph glyph-name="cacute" unicode="&#x107;" horiz-adv-x="985" 
d="M846 1241l-424 -115l-31 99l383 174zM80 516q0 240 151.5 382t386.5 142q164 0 306 -73l-35 -158q-137 70 -279 70q-172 0 -270 -99.5t-98 -263.5q0 -166 98 -265t270 -99q141 0 279 69l35 -158q-141 -74 -306 -73q-233 0 -385.5 142t-152.5 384z" />
    <glyph glyph-name="Cdotaccent" unicode="&#x10a;" horiz-adv-x="1294" 
d="M682 1636q0 47 34 82t85 35q49 0 83 -35t34 -82t-34 -81.5t-83 -34.5q-51 0 -85 34.5t-34 81.5zM92 698q0 326 205 519.5t504 193.5q248 0 430 -100l-35 -154q-186 98 -395 98q-233 0 -386 -157.5t-153 -399t153.5 -398.5t385.5 -157q209 0 395 99l35 -154
q-182 -100 -430 -100q-299 0 -504 193t-205 517z" />
    <glyph glyph-name="cdotaccent" unicode="&#x10b;" horiz-adv-x="985" 
d="M504 1251q0 45 32.5 78t79.5 33q45 0 78 -33t33 -78t-32.5 -77.5t-78.5 -32.5q-47 0 -79.5 32.5t-32.5 77.5zM80 516q0 240 151.5 382t386.5 142q164 0 306 -73l-35 -158q-137 70 -279 70q-172 0 -270 -99.5t-98 -263.5q0 -166 98 -265t270 -99q141 0 279 69l35 -158
q-141 -74 -306 -73q-233 0 -385.5 142t-152.5 384z" />
    <glyph glyph-name="Ccaron" unicode="&#x10c;" horiz-adv-x="1294" 
d="M467 1692l47 90l289 -131l289 131l47 -90l-336 -207zM92 698q0 326 205 519.5t504 193.5q248 0 430 -100l-35 -154q-186 98 -395 98q-233 0 -386 -157.5t-153 -399t153.5 -398.5t385.5 -157q209 0 395 99l35 -154q-182 -100 -430 -100q-299 0 -504 193t-205 517z" />
    <glyph glyph-name="ccaron" unicode="&#x10d;" horiz-adv-x="985" 
d="M883 1317l-295 -197l-295 197l47 90l248 -119l248 119zM610 152q141 0 279 69l35 -158q-141 -74 -306 -73q-233 0 -385.5 142t-152.5 384q0 240 151.5 382t386.5 142q164 0 306 -73l-35 -158q-137 70 -279 70q-172 0 -270 -99.5t-98 -263.5q0 -166 98 -265t270 -99z" />
    <glyph glyph-name="Dcaron" unicode="&#x10e;" horiz-adv-x="1505" 
d="M410 1683l47 91l288 -132l289 132l47 -91l-336 -206zM686 1399q334 0 530.5 -189.5t196.5 -504.5q0 -317 -197.5 -511t-529.5 -194h-510v1399h510zM340 156h346q260 0 408.5 149.5t148.5 392.5q0 246 -149.5 395.5t-407.5 149.5h-346v-1087z" />
    <glyph glyph-name="dcaron" unicode="&#x10f;" horiz-adv-x="1128" 
d="M846 1317l-295 -197l-295 197l47 90l248 -119l248 119zM530 1028q233 0 377 -141.5t144 -372.5q0 -229 -145.5 -371.5t-381.5 -142.5h-379v1028h385zM498 156q184 0 285.5 93t101.5 255q0 172 -97.5 271t-275.5 99h-203v-718h189z" />
    <glyph glyph-name="Dcroat" unicode="&#x110;" horiz-adv-x="1525" 
d="M707 1399q334 0 530.5 -189.5t196.5 -504.5q0 -317 -198 -511t-529 -194h-510v633h-156v151h156v615h510zM707 156q260 0 408.5 149.5t148.5 392.5q0 246 -149.5 395.5t-407.5 149.5h-347v-459h353v-151h-353v-477h347z" />
    <glyph glyph-name="dcroat" unicode="&#x111;" horiz-adv-x="1134" 
d="M539 1028q233 0 376.5 -141.5t143.5 -372.5q0 -229 -145.5 -371.5t-381.5 -142.5h-378v438h-93v148h93v442h385zM506 156q184 0 285.5 93t101.5 255q0 172 -97.5 271t-275.5 99h-203v-288h252v-148h-252v-282h189z" />
    <glyph glyph-name="Emacron" unicode="&#x112;" horiz-adv-x="1007" 
d="M850 1636v-127h-610v127h610zM905 1399v-156h-565v-446h491v-156h-491v-485h565v-156h-729v1399h729z" />
    <glyph glyph-name="emacron" unicode="&#x113;" horiz-adv-x="856" 
d="M739 1325v-127h-549v127h549zM772 1028v-147h-463v-295h393v-146h-393v-288h455v-152h-619v1028h627z" />
    <glyph glyph-name="Edotaccent" unicode="&#x116;" horiz-adv-x="1007" 
d="M426 1628q0 47 35 82t84 35t83 -35t34 -82t-34 -82t-83 -35t-84 35t-35 82zM905 1399v-156h-565v-446h491v-156h-491v-485h565v-156h-729v1399h729z" />
    <glyph glyph-name="edotaccent" unicode="&#x117;" horiz-adv-x="856" 
d="M350 1251q0 45 33 78t80 33q45 0 77.5 -33t32.5 -78t-32.5 -77.5t-77.5 -32.5q-47 0 -80 32.5t-33 77.5zM772 1028v-147h-463v-295h393v-146h-393v-288h455v-152h-619v1028h627z" />
    <glyph glyph-name="Eogonek" unicode="&#x118;" horiz-adv-x="1007" 
d="M915 -274l33 -109q-49 -23 -106 -23q-94 0 -148.5 49.5t-54.5 139.5q0 119 104 217h-567v1399h729v-156h-565v-446h491v-156h-491v-485h565v-156q-61 -39 -97 -93t-36 -102q0 -88 96 -88q24 1 47 9z" />
    <glyph glyph-name="eogonek" unicode="&#x119;" horiz-adv-x="856" 
d="M774 -276l35 -103q-59 -27 -109 -27q-92 0 -147 57.5t-55 149.5q0 109 96 199h-449v1028h627v-147h-463v-295h393v-146h-393v-288h455v-152q-55 -25 -93 -77t-38 -95q0 -55 26.5 -83t69.5 -28q20 1 45 7z" />
    <glyph glyph-name="Ecaron" unicode="&#x11a;" horiz-adv-x="1007" 
d="M211 1683l47 91l289 -132l289 132l47 -91l-336 -206zM905 1399v-156h-565v-446h491v-156h-491v-485h565v-156h-729v1399h729z" />
    <glyph glyph-name="ecaron" unicode="&#x11b;" horiz-adv-x="856" 
d="M729 1317l-295 -197l-295 197l47 90l248 -119l248 119zM772 881h-463v-295h393v-146h-393v-288h455v-152h-619v1028h627v-147z" />
    <glyph glyph-name="Gbreve" unicode="&#x11e;" horiz-adv-x="1433" 
d="M784 1507q-125 0 -200.5 75t-75.5 200h123q0 -68 41 -108t112.5 -40t112.5 40t41 108h123q0 -125 -76 -200t-201 -75zM1171 696h164v-563q-41 -39 -193.5 -92t-334.5 -53q-311 0 -513 196.5t-202 515.5q0 326 208 518.5t521 192.5q268 0 471 -100l-35 -154
q-209 98 -436 98q-246 0 -402.5 -156.5t-156.5 -398.5q0 -246 153.5 -401.5t391.5 -155.5q207 0 364 88v465z" />
    <glyph glyph-name="gbreve" unicode="&#x11f;" horiz-adv-x="1077" 
d="M606 1124q-125 0 -200.5 75t-75.5 200h123q0 -68 41 -108t112.5 -40t112.5 40t41 108h123q0 -125 -76 -200t-201 -75zM836 506h159v-389q-49 -49 -166.5 -87t-228.5 -38q-221 0 -371.5 150.5t-150.5 371.5q0 233 147.5 380.5t380.5 147.5q156 0 316 -73l-35 -158
q-139 70 -279 70q-166 0 -266 -99.5t-100 -267.5q0 -164 104.5 -269.5t265.5 -105.5q121 0 224 51v316z" />
    <glyph glyph-name="Gdotaccent" unicode="&#x120;" horiz-adv-x="1433" 
d="M801 1520q-51 0 -85 34.5t-34 81.5t34 82t85 35q49 0 83 -35t34 -82t-34 -81.5t-83 -34.5zM1171 696h164v-563q-41 -39 -193.5 -92t-334.5 -53q-311 0 -513 196.5t-202 515.5q0 326 208 518.5t521 192.5q268 0 471 -100l-35 -154q-209 98 -436 98q-246 0 -402.5 -156.5
t-156.5 -398.5q0 -246 153.5 -401.5t391.5 -155.5q207 0 364 88v465z" />
    <glyph glyph-name="gdotaccent" unicode="&#x121;" horiz-adv-x="1077" 
d="M604 1141q-47 0 -79.5 32.5t-32.5 77.5t32.5 78t79.5 33q45 0 78 -33t33 -78t-33 -77.5t-78 -32.5zM836 506h159v-389q-49 -49 -166.5 -87t-228.5 -38q-221 0 -371.5 150.5t-150.5 371.5q0 233 147.5 380.5t380.5 147.5q156 0 316 -73l-35 -158q-139 70 -279 70
q-166 0 -266 -99.5t-100 -267.5q0 -164 104.5 -269.5t265.5 -105.5q121 0 224 51v316z" />
    <glyph glyph-name="Hbar" unicode="&#x126;" horiz-adv-x="1503" 
d="M1452 1135v-144h-143v-991h-164v631h-787v-631h-163v991h-144v144h144v264h163v-264h787v264h164v-264h143zM1145 786v205h-787v-205h787z" />
    <glyph glyph-name="hbar" unicode="&#x127;" horiz-adv-x="1165" 
d="M1104 872v-143h-90v-729h-164v434h-535v-434h-163v729h-91v143h91v156h163v-156h535v156h164v-156h90zM850 582v147h-535v-147h535z" />
    <glyph glyph-name="Itilde" unicode="&#x128;" horiz-adv-x="516" 
d="M154 1729q57 0 132.5 -38t116.5 -38q76 0 129 78l93 -93q-35 -55 -94.5 -90t-124.5 -35q-55 0 -132 38t-120 38q-78 0 -131 -82l-91 90q33 57 92.5 94.5t129.5 37.5zM340 1399v-1399h-164v1399h164z" />
    <glyph glyph-name="itilde" unicode="&#x129;" horiz-adv-x="454" 
d="M559 1346q-35 -55 -94 -90t-125 -35q-55 0 -132 37.5t-120 37.5q-78 0 -131 -82l-90 91q33 57 92 94t129 37q57 0 133 -38t117 -38q76 0 129 78zM309 1028v-1028h-164v1028h164z" />
    <glyph glyph-name="Imacron" unicode="&#x12a;" horiz-adv-x="516" 
d="M502 1632v-127h-486v127h486zM340 1399v-1399h-164v1399h164z" />
    <glyph glyph-name="imacron" unicode="&#x12b;" horiz-adv-x="454" 
d="M504 1325v-127h-549v127h549zM309 1028v-1028h-164v1028h164z" />
    <glyph glyph-name="Iogonek" unicode="&#x12e;" horiz-adv-x="516" 
d="M350 -274l33 -109q-49 -23 -107 -23q-94 0 -148 49.5t-54 139.5q0 119 104 217h-2v1399h164v-1399q-61 -39 -97 -93t-36 -102q0 -88 96 -88q24 1 47 9z" />
    <glyph glyph-name="iogonek" unicode="&#x12f;" horiz-adv-x="454" 
d="M319 -276l35 -103q-59 -27 -108 -27q-92 0 -147.5 57.5t-55.5 149.5q0 113 102 205v1022h164v-1028q-55 -25 -93 -77t-38 -95q0 -55 26.5 -83t69.5 -28q20 1 45 7z" />
    <glyph glyph-name="Idotaccent" unicode="&#x130;" horiz-adv-x="516" 
d="M139 1624q0 47 35 82t84 35t83 -35t34 -82t-34 -82t-83 -35t-84 35t-35 82zM340 1399v-1399h-164v1399h164z" />
    <glyph glyph-name="IJ" unicode="&#x132;" horiz-adv-x="1048" 
d="M340 1399v-1399h-164v1399h164zM877 1399v-1206q0 -135 -36 -233.5t-98.5 -151t-132 -75t-151.5 -22.5l-47 150q301 0 301 332v1206h164z" />
    <glyph glyph-name="ij" unicode="&#x133;" horiz-adv-x="927" 
d="M309 1028v-1028h-164v1028h164zM786 1028v-827q0 -219 -109.5 -354.5t-287.5 -135.5l-41 133q127 0 198.5 94.5t71.5 260.5v829h168z" />
    <glyph glyph-name="Lacute" unicode="&#x139;" horiz-adv-x="987" 
d="M0 1575l440 199l74 -164l-483 -131zM340 1399v-1243h610v-156h-774v1399h164z" />
    <glyph glyph-name="lacute" unicode="&#x13a;" horiz-adv-x="802" 
d="M455 1241l-424 -115l-31 99l383 174zM309 1028v-876h455v-152h-619v1028h164z" />
    <glyph glyph-name="Lcaron" unicode="&#x13d;" horiz-adv-x="1005" 
d="M643 1411l158 27q8 -59 8 -140q0 -137 -35 -282h-94q10 72 10 129q0 139 -47 266zM340 1399v-1243h610v-156h-774v1399h164z" />
    <glyph glyph-name="lcaron" unicode="&#x13e;" horiz-adv-x="829" 
d="M559 1042l158 27q8 -55 8 -123q0 -160 -35 -299h-94q10 72 10 129q0 139 -47 266zM309 1028v-876h455v-152h-619v1028h164z" />
    <glyph glyph-name="Ldot" unicode="&#x13f;" horiz-adv-x="999" 
d="M340 1399v-1243h610v-156h-774v1399h164zM760 858q45 0 75.5 -30.5t30.5 -75.5t-30.5 -76t-75.5 -31t-76 31t-31 76t31 75.5t76 30.5z" />
    <glyph glyph-name="ldot" unicode="&#x140;" horiz-adv-x="821" 
d="M309 1028v-876h455v-152h-619v1028h164zM623 678q45 0 75.5 -31t30.5 -76t-30.5 -75.5t-75.5 -30.5t-76 30.5t-31 75.5t31 76t76 31z" />
    <glyph glyph-name="Lslash" unicode="&#x141;" horiz-adv-x="1077" 
d="M430 156h610v-156h-774v592l-182 -39l-27 141l209 43v662h164v-627l217 45l27 -141l-244 -51v-469z" />
    <glyph glyph-name="lslash" unicode="&#x142;" horiz-adv-x="856" 
d="M362 152h455v-152h-618v436l-117 -24l-27 139l144 29v448h163v-414l179 37l26 -139l-205 -43v-317z" />
    <glyph glyph-name="Nacute" unicode="&#x143;" horiz-adv-x="1452" 
d="M979 1606l-483 -131l-31 96l440 198zM1112 1399h164v-1409h-41l-895 1042v-1032h-164v1409h41l895 -1036v1026z" />
    <glyph glyph-name="nacute" unicode="&#x144;" horiz-adv-x="1155" 
d="M803 1241l-424 -115l-31 99l383 174zM178 1040l567 -583l99 -107l6 678h160v-1038h-29l-590 594l-82 90v-676h-164v1042h33z" />
    <glyph glyph-name="Ncaron" unicode="&#x147;" horiz-adv-x="1452" 
d="M1059 1679l-336 -206l-336 206l47 90l289 -131l289 131zM1112 1399h164v-1409h-41l-895 1042v-1032h-164v1409h41l895 -1036v1026z" />
    <glyph glyph-name="ncaron" unicode="&#x148;" horiz-adv-x="1155" 
d="M840 1317l-295 -197l-295 197l47 90l248 -119l248 119zM850 1028h160v-1038h-29l-590 594l-82 90v-676h-164v1042h33l567 -583l99 -107z" />
    <glyph glyph-name="Eng" unicode="&#x14a;" horiz-adv-x="1452" 
d="M1112 1399h164v-1340q0 -135 -36 -233t-98.5 -150.5t-132 -75t-151.5 -22.5l-47 150q154 0 227.5 78.5t73.5 252.5v72l-772 893v-1024h-164v1399h41l895 -1026v1026z" />
    <glyph glyph-name="eng" unicode="&#x14b;" horiz-adv-x="1155" 
d="M850 1028h160v-977q0 -209 -115 -339t-281 -130l-45 137q131 0 207 91.5t76 263.5v45l-461 465l-82 90v-676h-164v1042h33l567 -583l99 -107z" />
    <glyph glyph-name="Omacron" unicode="&#x14c;" horiz-adv-x="1605" 
d="M1108 1645v-127h-610v127h610zM90 702q0 135 46 260t132 226.5t224.5 162t310.5 60.5t310 -60.5t224 -162t132.5 -226t46.5 -260.5q0 -303 -205 -506.5t-508 -203.5t-508 203.5t-205 506.5zM260 702.5q0 -223.5 143.5 -387t399.5 -163.5t399.5 163.5t143.5 387
t-143.5 386t-399.5 162.5t-399.5 -162.5t-143.5 -386z" />
    <glyph glyph-name="omacron" unicode="&#x14d;" horiz-adv-x="1222" 
d="M887 1325v-127h-549v127h549zM78 516q0 211 142 368.5t392 157.5t391.5 -157.5t141.5 -368.5q0 -223 -152.5 -375.5t-380 -152.5t-381 152.5t-153.5 375.5zM244 516.5q0 -151.5 97 -263.5t271 -112t270.5 112t96.5 263.5t-96.5 262t-270.5 110.5t-271 -110.5t-97 -262z
" />
    <glyph glyph-name="Ohungarumlaut" unicode="&#x150;" horiz-adv-x="1605" 
d="M856 1657l-319 -170l-68 80l293 215zM1219 1661l-322 -174l-68 80l293 215zM90 702q0 135 46 260t132 226.5t224.5 162t310.5 60.5t310 -60.5t224 -162t132.5 -226t46.5 -260.5q0 -303 -205 -506.5t-508 -203.5t-508 203.5t-205 506.5zM260 702.5q0 -223.5 143.5 -387
t399.5 -163.5t399.5 163.5t143.5 387t-143.5 386t-399.5 162.5t-399.5 -162.5t-143.5 -386z" />
    <glyph glyph-name="ohungarumlaut" unicode="&#x151;" horiz-adv-x="1222" 
d="M377 1124l-68 80l252 215l94 -125zM686 1124l-68 80l252 215l97 -121zM78 516q0 211 142 368.5t392 157.5t391.5 -157.5t141.5 -368.5q0 -223 -152.5 -375.5t-380 -152.5t-381 152.5t-153.5 375.5zM244 516.5q0 -151.5 97 -263.5t271 -112t270.5 112t96.5 263.5
t-96.5 262t-270.5 110.5t-271 -110.5t-97 -262z" />
    <glyph glyph-name="OE" unicode="&#x152;" horiz-adv-x="1740" 
d="M1638 1243h-565v-446h492v-156h-492v-485h565v-156h-847q-293 0 -497 206t-204 499q0 289 202 491.5t490 202.5h856v-156zM791 156h118v1087h-121q-223 0 -374.5 -154.5t-151.5 -383.5q0 -231 153 -390t376 -159z" />
    <glyph glyph-name="oe" unicode="&#x153;" horiz-adv-x="1421" 
d="M1337 881h-463v-295h394v-146h-394v-288h455v-152h-713q-229 0 -383.5 147.5t-154.5 366.5q0 207 143.5 360.5t394.5 153.5h721v-147zM616 158h95v719h-95q-176 0 -272 -107.5t-96 -255.5q0 -145 96 -250.5t272 -105.5z" />
    <glyph glyph-name="Racute" unicode="&#x154;" horiz-adv-x="1204" 
d="M846 1606l-484 -131l-30 96l440 198zM788 592l371 -592h-192l-400 643q309 98 310 340q0 260 -336 260h-201v-1243h-164v1399h365q236 0 368.5 -107.5t132.5 -300.5q0 -276 -254 -399z" />
    <glyph glyph-name="racute" unicode="&#x155;" horiz-adv-x="974" 
d="M713 1241l-424 -115l-31 99l383 174zM434 1028q188 0 298 -89t110 -237q0 -215 -162 -305l252 -397h-182l-287 461q98 4 157.5 63.5t59.5 155.5q0 94 -67.5 147.5t-186.5 53.5h-117v-881h-164v1028h289z" />
    <glyph glyph-name="Rcaron" unicode="&#x158;" horiz-adv-x="1204" 
d="M926 1679l-336 -206l-336 206l47 90l289 -131l289 131zM788 592l371 -592h-192l-400 643q309 98 310 340q0 260 -336 260h-201v-1243h-164v1399h365q236 0 368.5 -107.5t132.5 -300.5q0 -276 -254 -399z" />
    <glyph glyph-name="rcaron" unicode="&#x159;" horiz-adv-x="974" 
d="M750 1317l-295 -197l-295 197l47 90l248 -119l247 119zM680 397l252 -397h-182l-287 461q98 4 157.5 63.5t59.5 155.5q0 94 -67.5 147.5t-186.5 53.5h-117v-881h-164v1028h289q188 0 298 -89t110 -237q0 -215 -162 -305z" />
    <glyph glyph-name="Sacute" unicode="&#x15a;" horiz-adv-x="962" 
d="M272 1579l441 199l73 -164l-483 -131zM121 1071q0 152 106.5 244t294.5 92q176 0 318 -72l-31 -147q-145 63 -281 63q-115 0 -174 -47t-59 -129q0 -76 59.5 -139.5t143.5 -112.5t169 -106.5t144 -147.5t59 -204q0 -162 -111.5 -267.5t-328.5 -105.5q-188 0 -346 86
l31 153q178 -86 313 -86q279 0 279 199q0 86 -60.5 155.5t-146.5 122t-172 108.5t-146.5 143t-60.5 198z" />
    <glyph glyph-name="sacute" unicode="&#x15b;" horiz-adv-x="743" 
d="M643 1253l-424 -114l-31 98l383 174zM104 762q0 127 85 202.5t229 75.5q131 0 221 -51l-31 -137q-92 39 -184 39q-168 0 -168 -115q0 -51 42 -92t101.5 -73.5t119 -71.5t101.5 -106.5t42 -160.5q0 -131 -88.5 -205.5t-243.5 -74.5q-150 0 -252 63l26 146q106 -66 226 -66
q180 0 180 148q0 49 -42 89t-101.5 71.5t-119 68.5t-101.5 100.5t-42 149.5z" />
    <glyph glyph-name="Scedilla" unicode="&#x15e;" horiz-adv-x="962" 
d="M870 365q0 -147 -95 -250t-279 -121l-25 -117q84 -8 131 -58t47 -124q0 -84 -61.5 -136.5t-169.5 -52.5q-90 0 -154 43l35 111q47 -41 121 -41q98 0 98 78q0 86 -119 86q-31 0 -67 -6l49 217q-156 8 -297 84l31 153q178 -86 313 -86q279 0 279 199q0 86 -60.5 155.5
t-146.5 122t-172 108.5t-146.5 143.5t-60.5 197.5q0 152 106.5 244t294.5 92q176 0 318 -72l-31 -147q-145 63 -281 63q-115 0 -174 -47t-59 -129q0 -76 59.5 -139.5t143.5 -112.5t169 -106.5t144 -147t59 -204.5z" />
    <glyph glyph-name="scedilla" unicode="&#x15f;" horiz-adv-x="743" 
d="M662 272q0 -117 -70 -188.5t-195 -87.5l-12 -62q84 -8 131 -58t47 -124q0 -84 -61.5 -136t-169.5 -52q-90 0 -154 43l35 110q47 -41 121 -41q98 0 98 78q0 86 -119 86q-31 0 -67 -6l37 160q-123 10 -205 61l26 146q106 -66 226 -66q180 0 180 148q0 49 -42 89
t-101.5 71.5t-119 68.5t-101.5 100.5t-42 149.5q0 127 85 202.5t229 75.5q131 0 221 -51l-31 -137q-92 39 -184 39q-168 0 -168 -115q0 -51 42 -92t101.5 -73.5t119 -71.5t101.5 -107t42 -160z" />
    <glyph glyph-name="Scaron" unicode="&#x160;" horiz-adv-x="962" 
d="M195 1688l47 90l288 -131l289 131l47 -90l-336 -207zM121 1071q0 152 106.5 244t294.5 92q176 0 318 -72l-31 -147q-145 63 -281 63q-115 0 -174 -47t-59 -129q0 -76 59.5 -139.5t143.5 -112.5t169 -106.5t144 -147.5t59 -204q0 -162 -111.5 -267.5t-328.5 -105.5
q-188 0 -346 86l31 153q178 -86 313 -86q279 0 279 199q0 86 -60.5 155.5t-146.5 122t-172 108.5t-146.5 143t-60.5 198z" />
    <glyph glyph-name="scaron" unicode="&#x161;" horiz-adv-x="743" 
d="M680 1329l-295 -196l-295 196l47 90l248 -119l248 119zM256 776q0 -51 42 -92t101.5 -73.5t119 -71.5t101.5 -106.5t42 -160.5q0 -131 -88.5 -205.5t-243.5 -74.5q-150 0 -252 63l26 146q106 -66 226 -66q180 0 180 148q0 49 -42 89t-101.5 71.5t-119 68.5t-101.5 100.5
t-42 149.5q0 127 85 202.5t229 75.5q131 0 221 -51l-31 -137q-92 39 -184 39q-168 0 -168 -115z" />
    <glyph glyph-name="uni0162" unicode="&#x162;" horiz-adv-x="1214" 
d="M692 0h-26l-21 -102q84 -8 131 -58.5t47 -124.5q0 -84 -61.5 -136t-169.5 -52q-88 0 -154 43l35 111q47 -41 121 -41q98 0 98 77q0 86 -119 86q-31 0 -67 -6l47 203h-31v1243h-489v156h1149v-156h-490v-1243z" />
    <glyph glyph-name="uni0163" unicode="&#x163;" horiz-adv-x="917" 
d="M541 0h-29l-18 -92q84 -8 131 -58.5t47 -123.5q0 -84 -61.5 -136.5t-170.5 -52.5q-88 0 -153 43l35 111q47 -41 120 -41q98 0 99 78q0 86 -119 86q-31 0 -68 -7l45 193h-22v881h-340v147h844v-147h-340v-881z" />
    <glyph glyph-name="Tcaron" unicode="&#x164;" horiz-adv-x="1214" 
d="M256 1679l47 90l289 -131l289 131l47 -90l-336 -206zM1182 1399v-156h-490v-1243h-170v1243h-489v156h1149z" />
    <glyph glyph-name="tcaron" unicode="&#x165;" horiz-adv-x="917" 
d="M729 1317l-295 -197l-295 197l47 90l248 -119l248 119zM37 1028h844v-147h-340v-881h-164v881h-340v147z" />
    <glyph glyph-name="Tbar" unicode="&#x166;" horiz-adv-x="1230" 
d="M1190 1243h-490v-479h244v-148h-244v-616h-170v616h-245v148h245v479h-489v156h1149v-156z" />
    <glyph glyph-name="tbar" unicode="&#x167;" horiz-adv-x="933" 
d="M889 881h-340v-293h190v-144h-190v-444h-164v444h-190v144h190v293h-340v147h844v-147z" />
    <glyph glyph-name="Utilde" unicode="&#x168;" horiz-adv-x="1402" 
d="M598 1729q57 0 133 -38t117 -38q76 0 129 78l92 -93q-35 -55 -94.5 -90t-124.5 -35q-55 0 -132 38t-120 38q-78 0 -131 -82l-90 90q33 57 92 94.5t129 37.5zM328 1399v-817q0 -211 98 -324t276.5 -113t276.5 113t98 324v817h164v-817q0 -287 -138 -439.5t-403 -152.5
q-266 0 -402 152.5t-136 439.5v817h166z" />
    <glyph glyph-name="utilde" unicode="&#x169;" horiz-adv-x="1087" 
d="M877 1346q-35 -55 -94.5 -90t-125.5 -35q-55 0 -131.5 37.5t-119.5 37.5q-78 0 -132 -82l-90 91q33 57 92.5 94t129.5 37q57 0 132.5 -38t116.5 -38q76 0 129 78zM301 1028v-573q0 -303 242 -303q246 0 245 305v571h166v-584q0 -221 -107.5 -337.5t-303.5 -116.5
q-199 0 -304.5 116.5t-105.5 337.5v584h168z" />
    <glyph glyph-name="Umacron" unicode="&#x16a;" horiz-adv-x="1402" 
d="M1008 1632v-127h-611v127h611zM328 1399v-817q0 -211 98 -324t276.5 -113t276.5 113t98 324v817h164v-817q0 -287 -138 -439.5t-403 -152.5q-266 0 -402 152.5t-136 439.5v817h166z" />
    <glyph glyph-name="umacron" unicode="&#x16b;" horiz-adv-x="1087" 
d="M821 1325v-127h-549v127h549zM301 1028v-573q0 -303 242 -303q246 0 245 305v571h166v-584q0 -221 -107.5 -337.5t-303.5 -116.5q-199 0 -304.5 116.5t-105.5 337.5v584h168z" />
    <glyph glyph-name="Uring" unicode="&#x16e;" horiz-adv-x="1402" 
d="M702 1395q-92 0 -152.5 61.5t-60.5 151.5q0 88 60.5 149.5t152.5 61.5q90 0 151.5 -61.5t61.5 -149.5q0 -90 -61.5 -151.5t-151.5 -61.5zM788 1608q0 37 -23.5 61.5t-62 24.5t-62.5 -24.5t-24 -61.5t24 -62.5t62.5 -25.5t62 25.5t23.5 62.5zM328 1399v-817
q0 -211 98 -324t276.5 -113t276.5 113t98 324v817h164v-817q0 -287 -138 -439.5t-403 -152.5q-266 0 -402 152.5t-136 439.5v817h166z" />
    <glyph glyph-name="uring" unicode="&#x16f;" horiz-adv-x="1087" 
d="M547 979q-92 0 -152.5 61.5t-60.5 151.5q0 88 60.5 149.5t152.5 61.5q90 0 151.5 -61.5t61.5 -149.5q0 -90 -61.5 -151.5t-151.5 -61.5zM633 1192q0 37 -23.5 61.5t-62.5 24.5t-62.5 -24.5t-23.5 -61.5t23.5 -62.5t62.5 -25.5t62.5 25.5t23.5 62.5zM301 1028v-573
q0 -303 242 -303q246 0 245 305v571h166v-584q0 -221 -107.5 -337.5t-303.5 -116.5q-199 0 -304.5 116.5t-105.5 337.5v584h168z" />
    <glyph glyph-name="Uhungarumlaut" unicode="&#x170;" horiz-adv-x="1402" 
d="M756 1645l-320 -170l-67 79l293 215zM1118 1649l-321 -174l-68 79l293 215zM328 1399v-817q0 -211 98 -324t276.5 -113t276.5 113t98 324v817h164v-817q0 -287 -138 -439.5t-403 -152.5q-266 0 -402 152.5t-136 439.5v817h166z" />
    <glyph glyph-name="uhungarumlaut" unicode="&#x171;" horiz-adv-x="1087" 
d="M311 1124l-67 80l252 215l94 -125zM621 1124l-68 80l252 215l96 -121zM301 1028v-573q0 -303 242 -303q246 0 245 305v571h166v-584q0 -221 -107.5 -337.5t-303.5 -116.5q-199 0 -304.5 116.5t-105.5 337.5v584h168z" />
    <glyph glyph-name="Uogonek" unicode="&#x172;" horiz-adv-x="1402" 
d="M1077 1399h164v-817q0 -264 -117.5 -416t-345.5 -172q-100 -78 -100 -172q0 -88 96 -88q25 0 47 8l33 -109q-49 -23 -106 -22q-94 0 -148.5 49t-54.5 139q0 104 82 195q-229 20 -347 170.5t-118 417.5v817h166v-817q0 -211 98 -324t276.5 -113t276.5 113t98 324v817z" />
    <glyph glyph-name="uogonek" unicode="&#x173;" horiz-adv-x="1087" 
d="M788 1028h166v-584q0 -332 -233 -424q-51 -27 -87 -76.5t-36 -90.5q0 -55 26.5 -83t69.5 -28q20 0 45 6l35 -102q-59 -27 -108 -27q-92 0 -147.5 57.5t-55.5 149.5q0 88 63 164q-190 4 -291.5 120.5t-101.5 333.5v584h168v-573q0 -303 242 -303q246 0 245 305v571z" />
    <glyph glyph-name="Wcircumflex" unicode="&#x174;" horiz-adv-x="1814" 
d="M915 1606l-288 -131l-47 90l335 207l336 -207l-47 -90zM1614 1399h172l-488 -1409h-38l-312 903l-39 115l-346 -1018h-39l-504 1409h179l280 -838l66 -196l63 196l277 840h41l301 -834l61 -202l58 202z" />
    <glyph glyph-name="wcircumflex" unicode="&#x175;" horiz-adv-x="1509" 
d="M752 1245l-248 -119l-47 91l295 196l295 -196l-48 -91zM1313 1028h172l-385 -1038h-35l-317 717l-297 -717h-35l-400 1038h177l247 -709l289 709h35l313 -717z" />
    <glyph glyph-name="Ycircumflex" unicode="&#x176;" horiz-adv-x="1304" 
d="M664 1604l-289 -131l-47 90l336 206l335 -206l-47 -90zM1096 1399h186l-549 -813v-586h-166v594l-542 805h200l432 -651z" />
    <glyph glyph-name="ycircumflex" unicode="&#x177;" horiz-adv-x="1024" 
d="M510 1245l-248 -119l-47 91l295 196l295 -196l-47 -91zM819 1028h187l-410 -606v-422h-168v422l-410 606h195l227 -348l74 -111l78 119z" />
    <glyph glyph-name="Ydieresis" unicode="&#x178;" horiz-adv-x="1304" 
d="M342 1618q0 45 33 78t80 33q45 0 77.5 -33t32.5 -78t-32.5 -78t-77.5 -33q-47 0 -80 33t-33 78zM741 1618q0 45 33 78t80 33q45 0 78 -33t33 -78t-33 -78t-78 -33q-47 0 -80 33t-33 78zM225 1399l432 -651l439 651h186l-549 -813v-586h-166v594l-542 805h200z" />
    <glyph glyph-name="Zacute" unicode="&#x179;" horiz-adv-x="1155" 
d="M328 1571l440 198l74 -163l-484 -131zM1079 1399v-39l-780 -1208h825v-152h-1083v39l778 1208h-737v152h997z" />
    <glyph glyph-name="zacute" unicode="&#x17a;" horiz-adv-x="882" 
d="M670 1243l-424 -115l-31 99l383 174zM809 1028v-29l-516 -849h549v-150h-797v29l512 848h-477v151h729z" />
    <glyph glyph-name="Zdotaccent" unicode="&#x17b;" horiz-adv-x="1155" 
d="M465 1624q0 47 33.5 82t85.5 35q49 0 82.5 -35t33.5 -82t-33.5 -82t-82.5 -35q-51 0 -85 35t-34 82zM1079 1399v-39l-780 -1208h825v-152h-1083v39l778 1208h-737v152h997z" />
    <glyph glyph-name="zdotaccent" unicode="&#x17c;" horiz-adv-x="882" 
d="M328 1253q0 45 32.5 78t79.5 33q45 0 78 -33t33 -78t-33 -77.5t-78 -32.5q-47 0 -79.5 32.5t-32.5 77.5zM809 1028v-29l-516 -849h549v-150h-797v29l512 848h-477v151h729z" />
    <glyph glyph-name="Zcaron" unicode="&#x17d;" horiz-adv-x="1155" 
d="M250 1679l47 90l289 -131l288 131l48 -90l-336 -206zM1079 1399v-39l-780 -1208h825v-152h-1083v39l778 1208h-737v152h997z" />
    <glyph glyph-name="zcaron" unicode="&#x17e;" horiz-adv-x="882" 
d="M707 1319l-295 -197l-295 197l47 90l248 -119l247 119zM293 150h549v-150h-797v29l512 848h-477v151h729v-29z" />
    <glyph glyph-name="uni01EA" unicode="&#x1ea;" horiz-adv-x="1605" 
d="M911 0q-109 -84 -108 -178q0 -88 96 -88q25 0 47 8l33 -109q-49 -23 -107 -22q-94 0 -148 49t-54 139q0 106 82 195q-285 18 -473.5 219t-188.5 489q0 135 46 260t132 226.5t224.5 162t310.5 60.5t310 -60.5t224 -162t132.5 -226t46.5 -260.5q0 -274 -170.5 -469.5
t-434.5 -232.5zM260 702.5q0 -223.5 143.5 -387t399.5 -163.5t399.5 163.5t143.5 387t-143.5 386t-399.5 162.5t-399.5 -162.5t-143.5 -386z" />
    <glyph glyph-name="uni01EB" unicode="&#x1eb;" horiz-adv-x="1222" 
d="M764 8q-55 -25 -93 -77t-38 -95q0 -55 26.5 -82.5t69.5 -27.5q20 0 45 6l35 -103q-59 -27 -109 -26q-92 0 -147 57t-55 150q0 94 75 180q-213 14 -354 163.5t-141 362.5q0 211 142 368.5t392 157.5t391.5 -157.5t141.5 -368.5q0 -182 -105.5 -321.5t-275.5 -186.5z
M244 516.5q0 -151.5 97 -263.5t271 -112t270.5 112t96.5 263.5t-96.5 262t-270.5 110.5t-271 -110.5t-97 -262z" />
    <glyph glyph-name="AEacute" unicode="&#x1fc;" horiz-adv-x="1656" 
d="M1335 1610l-483 -131l-31 96l441 199zM1554 1243h-565v-446h492v-156h-492v-485h565v-156h-729v412h-469l-182 -412h-182l633 1399h929v-156zM422 563h403v680h-102z" />
    <glyph glyph-name="aeacute" unicode="&#x1fd;" horiz-adv-x="1419" 
d="M1171 1241l-423 -115l-31 99l383 174zM1335 881h-463v-295h394v-146h-394v-288h455v-152h-618v211h-420l-109 -211h-184l553 1028h786v-147zM356 342h353v539h-74z" />
    <glyph glyph-name="Oslashacute" unicode="&#x1fe;" horiz-adv-x="1613" 
d="M1061 1606l-483 -131l-31 96l440 198zM1352 1174q168 -195 168 -474q0 -303 -205 -506.5t-508 -203.5q-252 0 -445 147l-149 -155l-107 96l152 160q-164 197 -164 462q0 135 46 260t132 226.5t224.5 162t310.5 60.5q258 0 442 -137l131 137l107 -94zM264 700
q0 -195 109 -344l760 795q-135 98 -326 98q-256 0 -399.5 -163t-143.5 -386zM807 150q256 0 399.5 163.5t143.5 386.5q0 201 -115 351l-762 -797q141 -104 334 -104z" />
    <glyph glyph-name="oslashacute" unicode="&#x1ff;" horiz-adv-x="1232" 
d="M846 1241l-424 -115l-31 99l383 174zM1038 852q113 -143 113 -336q0 -223 -152.5 -375.5t-380.5 -152.5q-176 0 -313 96l-104 -111l-107 99l107 110q-117 143 -117 334q0 211 142.5 368.5t391.5 157.5q184 0 316 -92l100 105l107 -97zM250 516q0 -123 61 -217l512 535
q-88 55 -205 55q-174 0 -271 -110.5t-97 -262.5zM618 141q174 0 270.5 112t96.5 263q0 119 -61 215l-510 -534q87 -56 204 -56z" />
    <glyph glyph-name="uni0218" unicode="&#x218;" horiz-adv-x="962" 
d="M121 1071q0 152 106.5 244t294.5 92q176 0 318 -72l-31 -147q-145 63 -281 63q-115 0 -174 -47t-59 -129q0 -76 59.5 -139.5t143.5 -112.5t169 -106.5t144 -147.5t59 -204q0 -162 -111.5 -267.5t-328.5 -105.5q-188 0 -346 86l31 153q178 -86 313 -86q279 0 279 199
q0 86 -60.5 155.5t-146.5 122t-172 108.5t-146.5 143t-60.5 198zM545 -94q8 -156 -119 -379l-82 18q33 137 33 254q0 55 -6 107h174z" />
    <glyph glyph-name="uni0219" unicode="&#x219;" horiz-adv-x="743" 
d="M104 762q0 127 85 202.5t229 75.5q131 0 221 -51l-31 -137q-92 39 -184 39q-168 0 -168 -115q0 -51 42 -92t101.5 -73.5t119 -71.5t101.5 -106.5t42 -160.5q0 -131 -88.5 -205.5t-243.5 -74.5q-150 0 -252 63l26 146q106 -66 226 -66q180 0 180 148q0 49 -42 89
t-101.5 71.5t-119 68.5t-101.5 100.5t-42 149.5zM459 -90q8 -156 -119 -379l-82 18q33 137 33 254q0 53 -6 107h174z" />
    <glyph glyph-name="uni021A" unicode="&#x21a;" horiz-adv-x="1214" 
d="M1182 1399v-156h-490v-1243h-170v1243h-489v156h1149zM694 -88q8 -156 -119 -379l-81 18q33 137 32 254q0 55 -6 107h174z" />
    <glyph glyph-name="uni021B" unicode="&#x21b;" horiz-adv-x="917" 
d="M881 1028v-147h-340v-881h-164v881h-340v147h844zM545 -84q8 -156 -119 -379l-82 19q33 137 33 254q0 55 -6 106h174z" />
    <glyph glyph-name="circumflex" unicode="&#x2c6;" horiz-adv-x="917" 
d="M795 1251l-47 -90l-289 131l-289 -131l-47 90l336 207z" />
    <glyph glyph-name="caron" unicode="&#x2c7;" horiz-adv-x="835" 
d="M678 1432l47 -91l-295 -196l-295 196l47 91l248 -119z" />
    <glyph glyph-name="breve" unicode="&#x2d8;" horiz-adv-x="829" 
d="M236 1757q0 -68 48 -107.5t130 -39.5t130 40t48 107h123q0 -125 -83 -199.5t-218 -74.5t-218 74.5t-83 199.5h123z" />
    <glyph glyph-name="dotaccent" unicode="&#x2d9;" horiz-adv-x="438" 
d="M123 1247q0 39 28.5 67.5t67.5 28.5t67.5 -28.5t28.5 -67.5t-28.5 -67.5t-67.5 -28.5t-67.5 28.5t-28.5 67.5z" />
    <glyph glyph-name="ring" unicode="&#x2da;" horiz-adv-x="561" 
d="M123 1607.5q0 65.5 46 111.5t112 46q63 0 110 -47t47 -110q0 -66 -46 -113t-111.5 -47t-111.5 47t-46 112.5zM221 1607.5q0 -26.5 16.5 -44t43 -17.5t43 17.5t16.5 44t-16.5 43t-43 16.5t-43 -16.5t-16.5 -43z" />
    <glyph glyph-name="ogonek" unicode="&#x2db;" horiz-adv-x="557" 
d="M123 -193q0 84 59.5 160t159.5 119l47 -80q-55 -25 -93 -77t-38 -95q0 -55 26.5 -82.5t69.5 -27.5q20 0 45 6l35 -103q-59 -27 -108 -26q-92 0 -147.5 57t-55.5 149z" />
    <glyph glyph-name="tilde" unicode="&#x2dc;" horiz-adv-x="935" 
d="M344 1645q57 0 133 -38t117 -38q76 0 129 78l92 -93q-35 -55 -94 -89.5t-125 -34.5q-55 0 -132 37.5t-120 37.5q-78 0 -131 -82l-90 90q33 57 92 94.5t129 37.5z" />
    <glyph glyph-name="hungarumlaut" unicode="&#x2dd;" horiz-adv-x="1181" 
d="M621 1372l-453 -213l-45 86l401 271zM1055 1372l-453 -213l-45 86l401 271z" />
    <glyph glyph-name="gravecomb" unicode="&#x300;" 
d="M-123 1571l-31 -96l-469 127l64 165z" />
    <glyph glyph-name="acutecomb" unicode="&#x301;" 
d="M-637 1571l440 198l74 -163l-483 -131z" />
    <glyph glyph-name="uni0302" unicode="&#x302;" 
d="M-123 1563l-47 -90l-289 131l-289 -131l-47 90l336 206z" />
    <glyph glyph-name="tildecomb" unicode="&#x303;" 
d="M-561 1729q57 0 133 -38t117 -38q76 0 129 78l92 -93q-35 -55 -94.5 -90t-124.5 -35q-55 0 -132 38t-120 38q-78 0 -131 -82l-90 90q33 57 92 94.5t129 37.5z" />
    <glyph glyph-name="uni0304" unicode="&#x304;" 
d="M-123 1638v-127h-610v127h610z" />
    <glyph glyph-name="uni0306" unicode="&#x306;" 
d="M-553 1769q0 -68 41 -107.5t112.5 -39.5t112.5 40t41 107h123q0 -125 -75.5 -199.5t-200.5 -74.5t-201 75t-76 199h123z" />
    <glyph glyph-name="uni0307" unicode="&#x307;" 
d="M-352 1624q0 47 34.5 82t84 35t83 -35t33.5 -82t-33.5 -82t-83 -35t-84 35t-34.5 82z" />
    <glyph glyph-name="uni0308" unicode="&#x308;" 
d="M-745 1618q0 45 32.5 78t79.5 33q45 0 78 -33t33 -78t-33 -78t-78 -33q-47 0 -79.5 33t-32.5 78zM-346 1618q0 45 32.5 78t80.5 33q45 0 77.5 -33t32.5 -78t-32.5 -78t-77.5 -33q-47 0 -80 33t-33 78z" />
    <glyph glyph-name="uni030A" unicode="&#x30a;" 
d="M-336 1395q-92 0 -152.5 61.5t-60.5 151.5q0 88 60.5 149.5t152.5 61.5q90 0 151.5 -61.5t61.5 -149.5q0 -90 -61.5 -151.5t-151.5 -61.5zM-250 1608q0 37 -23.5 61.5t-62.5 24.5t-62.5 -24.5t-23.5 -61.5t23.5 -62.5t62.5 -25.5t62.5 25.5t23.5 62.5z" />
    <glyph glyph-name="uni030B" unicode="&#x30b;" 
d="M-485 1645l-320 -170l-67 79l292 215zM-123 1649l-321 -174l-68 79l293 215z" />
    <glyph glyph-name="uni030C" unicode="&#x30c;" 
d="M-795 1679l47 90l289 -131l289 131l47 -90l-336 -206z" />
    <glyph glyph-name="uni0326" unicode="&#x326;" 
d="M-123 -88q8 -156 -119 -379l-82 18q33 137 33 254q0 55 -6 107h174z" />
    <glyph glyph-name="uni0327" unicode="&#x327;" 
d="M-301 -72q84 -8 131 -58t47 -124q0 -84 -61.5 -136t-169.5 -52q-90 0 -154 43l35 110q47 -41 121 -41q98 0 98 78q0 86 -119 86q-31 0 -67 -6l63 274l111 -4z" />
    <glyph glyph-name="uni0328" unicode="&#x328;" 
d="M-434 -211q0 176 219 297l47 -80q-61 -39 -97 -93t-36 -101q0 -88 96 -88q25 0 47 8l33 -109q-49 -23 -106 -22q-94 0 -148.5 49t-54.5 139z" />
    <glyph glyph-name="Wgrave" unicode="&#x1e80;" horiz-adv-x="1814" 
d="M1161 1573l-31 -96l-468 127l63 165zM1614 1399h172l-488 -1409h-38l-312 903l-39 115l-346 -1018h-39l-504 1409h179l280 -838l66 -196l63 196l277 840h41l301 -834l61 -202l58 202z" />
    <glyph glyph-name="wgrave" unicode="&#x1e81;" horiz-adv-x="1509" 
d="M977 1225l-31 -99l-424 115l72 158zM1313 1028h172l-385 -1038h-35l-317 717l-297 -717h-35l-400 1038h177l247 -709l289 709h35l313 -717z" />
    <glyph glyph-name="Wacute" unicode="&#x1e82;" horiz-adv-x="1814" 
d="M1165 1608l-483 -131l-31 96l441 199zM1614 1399h172l-488 -1409h-38l-312 903l-39 115l-346 -1018h-39l-504 1409h179l280 -838l66 -196l63 196l277 840h41l301 -834l61 -202l58 202z" />
    <glyph glyph-name="wacute" unicode="&#x1e83;" horiz-adv-x="1509" 
d="M979 1241l-424 -115l-31 99l383 174zM1313 1028h172l-385 -1038h-35l-317 717l-297 -717h-35l-400 1038h177l247 -709l289 709h35l313 -717z" />
    <glyph glyph-name="Wdieresis" unicode="&#x1e84;" horiz-adv-x="1814" 
d="M707 1509q-47 0 -80 33t-33 78t32.5 78t80.5 33q45 0 77.5 -33t32.5 -78t-32.5 -78t-77.5 -33zM1106 1509q-47 0 -80 33t-33 78t33 78t80 33q45 0 78 -33t33 -78t-33 -78t-78 -33zM1614 1399h172l-488 -1409h-38l-312 903l-39 115l-346 -1018h-39l-504 1409h179l280 -838
l66 -196l63 196l277 840h41l301 -834l61 -202l58 202z" />
    <glyph glyph-name="wdieresis" unicode="&#x1e85;" horiz-adv-x="1509" 
d="M584 1155q-47 0 -80 33t-33 78t33 77.5t80 32.5q45 0 77.5 -32.5t32.5 -77.5t-32.5 -78t-77.5 -33zM922 1155q-47 0 -80 33t-33 78t32.5 77.5t80.5 32.5q45 0 77.5 -32.5t32.5 -77.5t-32.5 -78t-77.5 -33zM1313 1028h172l-385 -1038h-35l-317 717l-297 -717h-35
l-400 1038h177l247 -709l289 709h35l313 -717z" />
    <glyph glyph-name="Ygrave" unicode="&#x1ef2;" horiz-adv-x="1304" 
d="M909 1571l-30 -96l-469 127l63 165zM225 1399l432 -651l439 651h186l-549 -813v-586h-166v594l-542 805h200z" />
    <glyph glyph-name="ygrave" unicode="&#x1ef3;" horiz-adv-x="1024" 
d="M352 1399l383 -174l-30 -99l-424 115zM213 1028l227 -348l74 -111l78 119l227 340h187l-410 -606v-422h-168v422l-410 606h195z" />
    <glyph glyph-name="uni1EF8" unicode="&#x1ef8;" horiz-adv-x="1304" 
d="M551 1729q57 0 133 -38t117 -38q76 0 129 78l92 -93q-35 -55 -94.5 -90t-124.5 -35q-55 0 -132 38t-120 38q-78 0 -131 -82l-90 90q33 57 92 94.5t129 37.5zM225 1399l432 -651l439 651h186l-549 -813v-586h-166v594l-542 805h200z" />
    <glyph glyph-name="uni1EF9" unicode="&#x1ef9;" horiz-adv-x="1024" 
d="M840 1346q-35 -55 -94.5 -90t-124.5 -35q-55 0 -132 37.5t-120 37.5q-78 0 -131 -82l-91 91q33 57 92.5 94t129.5 37q57 0 133 -38t116 -38q76 0 130 78zM213 1028l227 -348l74 -111l78 119l227 340h187l-410 -606v-422h-168v422l-410 606h195z" />
    <glyph glyph-name="endash" unicode="&#x2013;" horiz-adv-x="1110" 
d="M987 494v-144h-864v144h864z" />
    <glyph glyph-name="emdash" unicode="&#x2014;" horiz-adv-x="1542" 
d="M1419 494v-144h-1296v144h1296z" />
    <glyph glyph-name="quoteleft" unicode="&#x2018;" horiz-adv-x="405" 
d="M104 956q-10 221 111 443l100 -33q-47 -141 -47 -276q0 -78 11 -134h-175z" />
    <glyph glyph-name="quoteright" unicode="&#x2019;" horiz-adv-x="385" 
d="M303 1399q8 -221 -110 -443l-101 33q47 141 47 277q0 78 -10 133h174z" />
    <glyph glyph-name="quotesinglbase" unicode="&#x201a;" horiz-adv-x="415" 
d="M84 -262q43 166 43 305q0 53 -6 107h174v-54q-6 -203 -119 -403z" />
    <glyph glyph-name="quotedblleft" unicode="&#x201c;" horiz-adv-x="667" 
d="M100 956v31q0 213 117 428l92 -51q-41 -158 -41 -301q0 -55 6 -107h-174zM367 956v31q0 213 116 428l92 -51q-41 -158 -40 -301q0 -55 6 -107h-174z" />
    <glyph glyph-name="quotedblright" unicode="&#x201d;" horiz-adv-x="651" 
d="M303 1399v-31q0 -213 -117 -428l-92 51q41 158 41 301q0 55 -6 107h174zM569 1399v-31q0 -213 -116 -428l-93 51q41 158 41 301q0 55 -6 107h174z" />
    <glyph glyph-name="quotedblbase" unicode="&#x201e;" horiz-adv-x="677" 
d="M293 205v-31q0 -213 -117 -428l-92 51q41 158 41 301q0 53 -6 107h174zM559 205v-31q0 -213 -117 -428l-92 51q41 158 41 301q0 53 -6 107h174z" />
    <glyph glyph-name="dagger" unicode="&#x2020;" horiz-adv-x="958" 
d="M397 1028v371h164v-371h340v-147h-340v-881h-164v881h-340v147h340z" />
    <glyph glyph-name="daggerdbl" unicode="&#x2021;" horiz-adv-x="1015" 
d="M930 881h-340v-263h340v-147h-340v-471h-164v471h-340v147h340v263h-340v147h340v371h164v-371h340v-147z" />
    <glyph glyph-name="bullet" unicode="&#x2022;" horiz-adv-x="720" 
d="M156 487q0 84 60 144.5t144 60.5t144.5 -60.5t60.5 -144.5q0 -82 -61.5 -143t-143 -61t-143 61t-61.5 143z" />
    <glyph glyph-name="ellipsis" unicode="&#x2026;" horiz-adv-x="1204" 
d="M203 213q45 0 75.5 -30.5t30.5 -76t-30.5 -76t-75.5 -30.5t-76 30.5t-31 76t31 76t76 30.5zM602 213q45 0 76 -30.5t31 -76t-31 -76t-76 -30.5t-75.5 30.5t-30.5 76t30.5 76t75.5 30.5zM1001.5 213q45.5 0 76 -30.5t30.5 -76t-30.5 -76t-76 -30.5t-76 30.5t-30.5 76
t30.5 76t76 30.5z" />
    <glyph glyph-name="perthousand" unicode="&#x2030;" horiz-adv-x="1685" 
d="M915 1483l-532 -1546h-164l533 1546h163zM293 1409q104 0 168.5 -72.5t64.5 -171.5q0 -92 -65.5 -166.5t-168 -74.5t-167 73.5t-64.5 168t65 169t167 74.5zM293 1288q-51 0 -83 -37t-32 -84t32 -85t83 -38q53 0 85 38t32 85q0 49 -33 85t-84 36zM846 467
q104 0 168.5 -72.5t64.5 -171.5q0 -92 -65.5 -166.5t-168 -74.5t-167 73.5t-64.5 167.5t65 169t167 75zM1399 467q104 0 168.5 -72.5t64.5 -171.5q0 -92 -65.5 -166.5t-168 -74.5t-167 73.5t-64.5 167.5t65 169t167 75zM846 346q-51 0 -83 -37t-32 -84t32 -85t83 -38t84 38
t33 85q0 49 -33 85t-84 36zM1399 346q-51 0 -83 -37t-32 -84t32 -85t83 -38t84 38t33 85q0 49 -33 85t-84 36z" />
    <glyph glyph-name="guilsinglleft" unicode="&#x2039;" horiz-adv-x="559" 
d="M444 858l-202 -262l200 -264l-114 -76l-252 340l252 338z" />
    <glyph glyph-name="guilsinglright" unicode="&#x203a;" horiz-adv-x="559" 
d="M231 934l252 -338l-252 -340l-114 76l200 264l-202 262z" />
    <glyph glyph-name="fraction" unicode="&#x2044;" horiz-adv-x="954" 
d="M125 0h-170l872 1399h177z" />
    <glyph glyph-name="trademark" unicode="&#x2122;" horiz-adv-x="1144" 
d="M1042 963h-124l-33 182l-115 -172h-14l-115 170l-33 -180h-121l107 452h18l150 -264l153 264h15zM80 1282v129h369v-129h-125v-319h-123v319h-121z" />
    <glyph glyph-name="minus" unicode="&#x2212;" horiz-adv-x="1021" 
d="M887 623v-144h-752v144h752z" />
    <glyph glyph-name="approxequal" unicode="&#x2248;" horiz-adv-x="1128" 
d="M133 682q104 141 277 141q63 0 171.5 -48t161.5 -48q92 0 191 72l59 -127q-111 -98 -250 -99q-55 0 -169.5 51.5t-174.5 51.5q-106 0 -176 -80zM133 354q104 141 277 142q63 0 171.5 -48.5t161.5 -48.5q92 0 191 72l59 -127q-111 -98 -250 -98q-55 0 -169.5 51t-174.5 51
q-106 0 -176 -80z" />
    <glyph glyph-name="notequal" unicode="&#x2260;" horiz-adv-x="856" 
d="M750 901l-88 -141h77v-144h-168l-94 -149h262v-143h-352l-90 -146h-172l90 146h-104v143h194l92 149h-286v144h376l88 141h175z" />
    <glyph glyph-name="uni261E" unicode="&#x261e;" horiz-adv-x="1257" 
d="M1165 793q41 0 68 -14.5t24 -43.5q0 -20 -50 -29.5t-208 -23.5q8 -10 9 -27q0 -39 -41 -53q12 -18 12 -43q0 -43 -35 -57q8 -18 8 -33q0 -25 -57 -52.5t-94 -31.5q-57 -10 -103 -10q-49 0 -88 8q-51 18 -135 36.5t-113 18.5h-30v-43h-332v430h332v-43l14 2q18 6 45 18.5
t52.5 22t76.5 21.5q20 6 46 12t35 8l22.5 5t22.5 4.5t21.5 2.5t32.5 1l246 10q18 0 19 -10q0 -27 -26 -50.5t-60 -33.5zM940 868q-41 0 -68 -2q4 -16 27 -16q27 0 41 18zM782 580q78 4 141.5 25.5t63.5 49.5q0 12 -8 25q-143 -16 -158 -16q-31 0 -37 18h23q-2 4 -2 14
q0 29 39 29h4v14h-4q-39 0 -39 29q0 8 2 12q-14 0 -38 3t-32 3q-31 0 -73.5 -7t-59.5 -7q-33 0 -53 25q57 -4 65 -4q14 0 51.5 7t60 7t57 -3t49.5 -3q61 16 90 39q-8 -4 -25 -4q-35 0 -43 28l-156 -6q-39 0 -67.5 -5t-64.5 -15.5t-44 -12.5q-41 -10 -63.5 -17t-55 -20.5
t-57.5 -23.5l-16 -2v-303h30q102 0 252 -56q33 -8 84 -8q49 0 101 11q33 4 83 27.5t50 35.5q0 6 -4 18q-53 -29 -125 -28q-35 0 -47 14q113 14 182 47q20 10 20 39q0 16 -10 33q-74 -29 -114 -29q-32 1 -52 17zM280.5 737q12.5 0 21.5 9.5t9 21.5t-9 21.5t-21.5 9.5
t-21.5 -9.5t-9 -21.5t9 -21.5t21.5 -9.5zM848 778h-31q8 -16 31 -24v24zM885 774l-17 2v-16q11 10 17 14zM995 705l156 12q-10 10 -10 20q0 37 65 29q-16 6 -41 6l-241 2q6 -6 6 -16q0 -25 -31 -25q-10 0 -31 4v-10q20 4 31 4q31 0 31 -24q0 -4 -4 -13zM901 762
q-12 0 -18 -14q6 -2 14 -3q16 0 16 8.5t-12 8.5zM1171 717q39 4 66 18q0 8 -2 13q-18 6 -43 6q-33 0 -33 -19q0 -12 12 -18zM883 717q6 -14 18 -14.5t12 8t-16 8.5q-8 0 -14 -2zM848 711q-23 -8 -33 -27l33 2v25zM885 690q-4 2 -17 15v-17z" />
    <glyph glyph-name="uniF8FF" unicode="&#xf8ff;" horiz-adv-x="4724" 
d="M1038 827q57 35 119 35h105v-162h-86v-98q0 -35 36 -35q29 0 50 15v-154q-35 -20 -113 -20q-94 0 -136 39.5t-42 130.5v466h203q0 -61 -40 -121.5t-98 -86.5zM1346 846q84 16 143 16h16v-444h-202v626h200q0 -68 -47 -122t-115 -70zM2697 827q57 35 119 35h102v-162h-86
v-98q0 -35 37 -35q27 0 49 15v-154q-35 -20 -110 -20q-94 0 -137 39.5t-43 130.5v466h202q0 -61 -38.5 -121.5t-98.5 -86.5zM205 418v624h203v-624h-203zM702 877q111 0 172.5 -49.5t61.5 -135.5v-274h-201v45h-6q-39 -55 -145 -55q-66 0 -105 34.5t-39 89.5q0 59 41 97.5
t111 38.5q92 0 135 -43h4v71q0 51 -47 51.5t-47 -59.5l-184 29q36 160 249 160zM1898 872q70 0 110 -46t40 -134v-274h-205v264q0 55 -39 55q-23 0 -32 -13t-21 -52v-254h-203v444h199v-133h6q16 143 145 143zM2337 872q121 0 189.5 -64.5t68.5 -168.5q0 -102 -67.5 -166.5
t-190.5 -64.5t-190.5 63.5t-67.5 167.5t68.5 168.5t189.5 64.5zM3822 872q170 0 170 -233q0 -115 -51.5 -173t-125.5 -58q-106 0 -141 88h-6v-226h-205v592h203v-133h6q23 143 150 143zM4520 649v-18h-307q0 -39 18.5 -66.5t50.5 -27.5q53 0 62 69l168 -16q-16 -94 -82 -138
t-156 -44q-121 0 -187.5 63.5t-66.5 167.5q0 102 71 167.5t189 65.5q106 0 173 -64.5t67 -158.5zM3193 508q12 117 61 354h203l-145 -424q-63 -176 -217 -176h-80v135h133q117 0 137 25l-2 6h-139q-82 0 -107 80l-110 354h204q6 -33 20.5 -108.5t24 -136t13.5 -109.5h4z
M4225 655q113 0 113 50q0 45 -49 45q-35 0 -55.5 -26t-20.5 -69h12zM3738 506q61 0 61 117q0 125 -55 125q-45 0 -62 -68v-148q21 -26 56 -26zM2337 535q59 0 59 104q0 106 -59 106q-57 0 -58 -106q1 -104 58 -104zM686 469q31 0 45 23v104q-10 16 -39 16q-55 0 -55 -71.5
t49 -71.5z" />
    <glyph glyph-name="glyph349" horiz-adv-x="1433" 
d="M1171 696h164v-563q-41 -39 -193.5 -92t-334.5 -53q-311 0 -513 196.5t-202 515.5q0 326 208 518.5t521 192.5q268 0 471 -100l-35 -154q-209 98 -436 98q-246 0 -402.5 -156.5t-156.5 -398.5q0 -246 153.5 -401.5t391.5 -155.5q207 0 364 88v465zM741 -88h174
q8 -156 -118 -379l-82 18q33 137 33 254q-1 56 -7 107z" />
    <glyph glyph-name="glyph350" horiz-adv-x="1228" 
d="M176 0v1399h164v-1399h-164zM627 719l604 -719h-205l-606 715l586 684h202zM575 -88h175q8 -156 -119 -379l-82 18q33 137 33 254q-1 56 -7 107z" />
    <glyph glyph-name="glyph351" horiz-adv-x="987" 
d="M340 1399v-1243h610v-156h-774v1399h164zM662 -88q8 -156 -119 -379l-82 18q33 137 33 254q0 55 -7 107h175z" />
    <glyph glyph-name="glyph352" horiz-adv-x="1452" 
d="M1112 1399h164v-1409h-41l-895 1042v-1032h-164v1409h41l895 -1036v1026zM657 -88h174q8 -156 -118 -379l-82 18q33 137 33 254q-1 56 -7 107z" />
    <glyph glyph-name="glyph353" horiz-adv-x="1204" 
d="M788 592l371 -592h-192l-400 643q309 98 310 340q0 260 -336 260h-201v-1243h-164v1399h365q236 0 368.5 -107.5t132.5 -300.5q0 -276 -254 -399zM555 -88h174q8 -156 -119 -379l-82 18q33 137 33 254q0 56 -6 107z" />
    <glyph glyph-name="O.salt" horiz-adv-x="1605" 
d="M90 702q0 135 46 260t132 226.5t224.5 162t310.5 60.5t310 -60.5t224 -162t132.5 -226t46.5 -260.5q0 -303 -205 -506.5t-508 -203.5t-508 203.5t-205 506.5zM260 702.5q0 -223.5 143.5 -387t399.5 -163.5t399.5 163.5t143.5 387t-143.5 386t-399.5 162.5t-399.5 -162.5
t-143.5 -386zM651 702.5q0 63.5 45 107.5t107 44q63 0 108 -44t45 -107.5t-45 -108.5t-108 -45q-61 0 -106.5 45t-45.5 108.5z" />
    <glyph glyph-name="P.aalt" horiz-adv-x="1067" 
d="M455 1399q266 0 408.5 -119t142.5 -348q0 -190 -134.5 -316.5t-336.5 -130.5v148q147 8 226 88t79 211q0 311 -383 311h-117v-1243h-164v1399h279z" />
    <glyph glyph-name="Q.aalt" horiz-adv-x="1607" 
d="M2103 -268q201 0 400 61l-23 -151q-197 -53 -385 -54q-209 0 -371.5 39t-278.5 116t-183.5 144.5t-147.5 171.5q-145 -68 -311 -67q-303 0 -508 203.5t-205 506.5q0 135 46 260t132 226.5t224.5 162t310.5 60.5t310 -60.5t224 -162t132.5 -226t46.5 -260.5
q0 -172 -71 -318t-198 -245q55 -72 103.5 -123t125 -108.5t160.5 -93t204 -59t263 -23.5zM803 1251q-256 0 -399.5 -162.5t-143.5 -386.5q0 -92 29 -188q139 66 309 66q137 0 245.5 -47.5t169 -105.5t138.5 -159q94 78 144.5 192.5t50.5 241.5q0 223 -143.5 386t-399.5 163z
M348 389q150 -238 455 -237q113 0 213 36q-94 119 -190.5 180.5t-239.5 61.5q-134 0 -238 -41z" />
    <glyph glyph-name="R.aalt" horiz-adv-x="1198" 
d="M1874 -268q188 0 438 67l-22 -151q-250 -59 -432 -60q-197 0 -361 48.5t-290 130t-241.5 220t-205.5 290t-193 366.5q150 43 231 131t81 197q0 139 -87 205.5t-270 66.5h-182v-1243h-164v1399h350q250 0 383 -107.5t133 -308.5q0 -131 -70.5 -237.5t-197.5 -157.5
q199 -428 454 -642t646 -214z" />
    <glyph glyph-name="Racute.aalt" horiz-adv-x="1198" 
d="M842 1606l-484 -131l-30 96l440 198zM1874 -268q188 0 438 67l-22 -151q-250 -59 -432 -60q-197 0 -361 48.5t-290 130t-241.5 220t-205.5 290t-193 366.5q150 43 231 131t81 197q0 139 -87 205.5t-270 66.5h-182v-1243h-164v1399h350q250 0 383 -107.5t133 -308.5
q0 -131 -70.5 -237.5t-197.5 -157.5q199 -428 454 -642t646 -214z" />
    <glyph glyph-name="Rcaron.aalt" horiz-adv-x="1198" 
d="M922 1679l-336 -206l-336 206l47 90l289 -131l288 131zM1874 -268q188 0 438 67l-22 -151q-250 -59 -432 -60q-197 0 -361 48.5t-290 130t-241.5 220t-205.5 290t-193 366.5q150 43 231 131t81 197q0 139 -87 205.5t-270 66.5h-182v-1243h-164v1399h350q250 0 383 -107.5
t133 -308.5q0 -131 -70.5 -237.5t-197.5 -157.5q199 -428 454 -642t646 -214z" />
    <glyph glyph-name="glyph360" horiz-adv-x="1077" 
d="M836 506h159v-389q-49 -49 -166.5 -87t-228.5 -38q-221 0 -371.5 150.5t-150.5 371.5q0 233 147.5 380.5t380.5 147.5q156 0 316 -73l-35 -158q-139 70 -279 70q-166 0 -266 -99.5t-100 -267.5q0 -164 104.5 -269.5t265.5 -105.5q121 0 224 51v316zM512 -72h174
q8 -156 -119 -379l-82 19q33 137 33 254q0 55 -6 106z" />
    <glyph glyph-name="glyph361" horiz-adv-x="454" 
d="M309 1028v-1028h-164v1028h164z" />
    <glyph glyph-name="i.locl" horiz-adv-x="454" 
d="M115 1251q0 45 32.5 78t79.5 33q45 0 78 -33t33 -78t-33 -77.5t-78 -32.5q-47 0 -79.5 32.5t-32.5 77.5zM309 1028v-1028h-164v1028h164z" />
    <glyph glyph-name="j.aalt" horiz-adv-x="473" 
d="M332 1028v-827q0 -219 -109.5 -354.5t-288.5 -135.5l-40 133q127 0 198.5 94.5t71.5 260.5v829h168z" />
    <glyph glyph-name="glyph364" horiz-adv-x="997" 
d="M145 0v1028h164v-1028h-164zM555 524l436 -524h-215l-430 518l440 510h201zM440 -88h174q8 -156 -118 -379l-82 18q33 137 32 254q0 56 -6 107z" />
    <glyph glyph-name="glyph365" horiz-adv-x="1036" 
d="M145 0v1028h164v-1028h-164zM555 524l436 -524h-215l-430 518l342 406q49 57 90 79.5t96 22.5h109v-154h-53q-49 0 -75 -12t-58 -51z" />
    <glyph glyph-name="glyph366" horiz-adv-x="802" 
d="M309 1028v-876h455v-152h-619v1028h164zM539 -88q8 -156 -119 -379l-82 18q33 137 33 254q0 55 -6 107h174z" />
    <glyph glyph-name="glyph367" horiz-adv-x="1155" 
d="M178 1040l567 -583l99 -107l6 678h160v-1038h-29l-590 594l-82 90v-676h-164v1042h33zM662 -88q8 -156 -119 -379l-82 18q33 137 33 254q0 55 -7 107h175z" />
    <glyph glyph-name="glyph368" horiz-adv-x="974" 
d="M434 1028q188 0 298 -89t110 -237q0 -215 -162 -305l252 -397h-182l-287 461q98 4 157.5 63.5t59.5 155.5q0 94 -67.5 147.5t-186.5 53.5h-117v-881h-164v1028h289zM561 -88q8 -156 -119 -379l-82 18q33 137 33 254q0 55 -6 107h174z" />
    <glyph glyph-name="glyph369" horiz-adv-x="1222" 
d="M78 516q0 211 142 368.5t392 157.5t391.5 -157.5t141.5 -368.5q0 -223 -152.5 -375.5t-380 -152.5t-381 152.5t-153.5 375.5zM244 516.5q0 -151.5 97 -263.5t271 -112t270.5 112t96.5 263.5t-96.5 262t-270.5 110.5t-271 -110.5t-97 -262zM481 516q0 53 40 92t93.5 39
t92 -39t38.5 -92t-38.5 -93t-92 -40t-93.5 40t-40 93z" />
    <glyph glyph-name="A_W.dlig" horiz-adv-x="2408" 
d="M2216 1399h172l-487 -1409h-39l-293 852l-56 164l-57 -164l-297 -852h-39l-164 383h-602l-157 -369h-181l631 1413h25l375 -866l90 -207l71 217l279 840h41l301 -834l61 -202l58 202zM414 516h481l-242 565l-49 -118z" />
    <glyph glyph-name="C_h.dlig" horiz-adv-x="2347" 
d="M801 1255q-233 0 -386 -157.5t-153 -399t153.5 -398.5t385.5 -157q209 0 395 99l35 -154q-182 -100 -430 -100q-299 0 -504 193.5t-205 516.5q0 326 205 519.5t504 193.5q248 0 430 -100l-35 -154q-186 98 -395 98zM2038 1028h164v-778h-164v319h-453v-319h-164v778h164
v-311h453v311zM1421 0v147h781v-147h-781z" />
    <glyph glyph-name="C_o.dlig" horiz-adv-x="1349" 
d="M92 698q0 326 205 519.5t504 193.5q248 0 430 -100l-35 -154q-186 98 -395 98q-233 0 -386 -157.5t-153 -399t153.5 -398.5t385.5 -157q209 0 395 99l35 -154q-182 -100 -430 -100q-299 0 -504 193t-205 517zM610 696q0 135 94.5 228.5t227.5 93.5t227 -95.5t94 -226.5
t-94 -226t-229 -95q-133 0 -226.5 94t-93.5 227zM754 696q0 -80 50 -129t128 -49q80 0 128 50t48 128t-49 127t-127 49q-76 0 -127 -50t-51 -126z" />
    <glyph glyph-name="D_O.dlig" horiz-adv-x="2250" 
d="M1448 1411q172 0 310 -60.5t224 -162t132.5 -226t46.5 -260.5q0 -303 -205 -506.5t-508 -203.5q-207 0 -373 98q-170 -90 -389 -90h-510v1399h510q219 0 381 -84q170 96 381 96zM1448 152q256 0 399.5 163.5t143.5 387t-143.5 386t-399.5 162.5q-123 0 -229 -43
q195 -190 194 -503q0 -317 -194 -508q102 -45 229 -45zM340 156h346q137 0 250 45q-201 205 -201 501.5t191 499.5q-106 41 -240 41h-346v-1087zM1243 698q0 266 -170 414q-168 -156 -168 -410q0 -256 172 -415q166 149 166 411z" />
    <glyph glyph-name="d_o.dlig" horiz-adv-x="1677" 
d="M1067 1042q250 0 391 -157.5t141 -368.5q0 -223 -152.5 -375.5t-379.5 -152.5q-150 0 -276 71q-115 -59 -267 -59h-379v1028h385q139 0 256 -55q123 69 281 69zM1067 141q174 0 270.5 112t96.5 263.5t-96.5 262t-270.5 110.5q-76 0 -139 -23q123 -141 123 -352
q0 -209 -123 -348q61 -25 139 -25zM498 156q80 0 155 20q-121 147 -121 340q0 197 117 340q-61 18 -137 18h-203v-718h189zM793 256q92 96 92 248q0 170 -94 268q-92 -104 -93 -256q1 -154 95 -260z" />
    <glyph glyph-name="glyph375" horiz-adv-x="421" 
d="M283 731v-731h-154v618z" />
    <glyph glyph-name="glyph376" horiz-adv-x="743" 
d="M418 131h248v-131h-578v41q182 98 279.5 197.5t97.5 185.5q0 63 -42 95t-112 32q-74 0 -170 -31l-32 131q115 47 225 47q131 0 201.5 -68.5t70.5 -172.5q0 -181 -188 -326z" />
    <glyph glyph-name="glyph377" horiz-adv-x="663" 
d="M365 451q90 -14 149 -73t59 -147q0 -129 -121.5 -206.5t-304.5 -77.5l-28 114q141 0 225 46.5t84 125.5q0 125 -195 125q-25 0 -73 -4l149 213h-200v131h413v-24z" />
    <glyph glyph-name="glyph378" horiz-adv-x="731" 
d="M647 270v-118h-98v-150h-131v150h-348l-33 71l352 473h137l-305 -426h197v176h131v-176h98z" />
    <glyph glyph-name="zero.aalt" horiz-adv-x="1097" 
d="M94 522q0 244 125 392.5t330 148.5t330 -148.5t125 -392.5q0 -240 -125 -386t-330 -146t-330 146t-125 386zM252 524q0 -170 81 -274.5t216 -104.5t217 103.5t82 273.5q0 174 -82 280.5t-217 106.5t-216 -105.5t-81 -279.5z" />
    <glyph glyph-name="one.aalt" horiz-adv-x="475" 
d="M317 1063v-1063h-163v983z" />
    <glyph glyph-name="two.aalt" horiz-adv-x="966" 
d="M453 156h446v-156h-836v41q233 141 404.5 324.5t171.5 343.5q0 90 -56.5 140t-152.5 50q-147 0 -305 -76l-37 154q176 82 346 82q182 0 280.5 -89t98.5 -251q0 -139 -99 -291.5t-261 -271.5z" />
    <glyph glyph-name="three.aalt" horiz-adv-x="905" 
d="M477 618q162 -18 257 -125.5t95 -248.5q0 -242 -199.5 -396.5t-516.5 -162.5l-37 153q270 -2 425.5 118t155.5 271q0 125 -92 195t-233 70q-59 0 -121 -13l274 391h-403v158h661v-43z" />
    <glyph glyph-name="four.aalt" horiz-adv-x="1134" 
d="M1094 264v-155h-199v-297h-164v297h-686v41l530 964l140 -65l-426 -785h444v424h162v-424h199z" />
    <glyph glyph-name="five.aalt" horiz-adv-x="825" 
d="M268 645q221 -4 350.5 -113.5t129.5 -302.5q0 -225 -172.5 -374.5t-466.5 -173.5l-37 149q236 27 374 132.5t138 262.5q0 125 -101.5 201t-265.5 76q-57 0 -104 -8l39 534h565v-147h-432z" />
    <glyph glyph-name="six.aalt" horiz-adv-x="970" 
d="M526 801q156 0 260.5 -106.5t104.5 -288.5q0 -172 -110.5 -292t-284.5 -120q-184 0 -300 130t-116 331q0 309 208 570t517 388l37 -156q-211 -106 -338 -226t-195 -292q94 62 217 62zM489 150q113 0 176.5 68.5t63.5 172.5q0 131 -70.5 196.5t-171.5 65.5
q-129 0 -229 -75q-14 -72 -14 -121q0 -131 65 -219t180 -88z" />
    <glyph glyph-name="seven.aalt" horiz-adv-x="874" 
d="M41 1028h805v-41l-490 -1175h-180l451 1060h-586v156z" />
    <glyph glyph-name="eight.aalt" horiz-adv-x="1134" 
d="M166 1071q0 150 113.5 247t287.5 97t288 -97t114 -247q0 -176 -164 -283q240 -123 239 -382q0 -182 -132 -296t-345 -114t-345 113.5t-132 296.5q0 260 242 382q-166 107 -166 283zM330 1065q0 -90 66.5 -148.5t170.5 -58.5q102 0 169 58.5t67 148.5t-66.5 148.5
t-169.5 58.5q-104 0 -170.5 -58.5t-66.5 -148.5zM254 416q0 -119 88 -197t225.5 -78t224.5 77t87 198q0 129 -87 211t-224.5 82t-225.5 -82t-88 -211z" />
    <glyph glyph-name="nine.aalt" horiz-adv-x="954" 
d="M465 1063q186 0 296.5 -129t110.5 -332q0 -305 -202.5 -566t-513.5 -392l-37 157q391 205 526 514q-80 -55 -190 -55q-156 0 -271.5 109.5t-115.5 281.5q0 166 110.5 289t286.5 123zM233 670q0 -125 74 -193.5t184.5 -68.5t208.5 73q14 72 15 119q0 131 -64.5 220
t-179.5 89q-98 0 -168 -69.5t-70 -169.5z" />
    <glyph glyph-name="glyph389" horiz-adv-x="1204" 
d="M946 156q66 0 144 12l32 -154q-84 -14 -176 -14q-254 0 -446.5 143.5t-245.5 391.5h-188v129h172v41q0 27 4 75h-176v129h198q59 231 247.5 365.5t434.5 134.5q92 0 176 -14l-32 -154q-78 12 -144 12q-176 0 -311 -94t-193 -250h559v-129h-589q-4 -49 -4 -75.5t2 -40.5
h591v-129h-569q49 -170 188.5 -274.5t325.5 -104.5z" />
    <glyph glyph-name="glyph390" horiz-adv-x="1269" 
d="M1243 113l-90 -131q-109 80 -203 153q-172 -150 -428 -149q-203 0 -324.5 105.5t-121.5 291.5q0 109 62.5 208t166.5 161q-115 170 -115 307q0 150 99.5 250t245.5 100q141 0 237 -91t96 -224q0 -240 -317 -392q137 -154 387 -356q72 137 72 367v53h161v-59
q0 -272 -118 -451q73 -57 190 -143zM539 1257q-82 0 -133.5 -56t-51.5 -144q0 -100 99 -238q135 57 193.5 123t58.5 156q0 70 -47 114.5t-119 44.5zM535 139q188 0 301 84q-279 225 -437 408q-160 -90 -159 -242q0 -123 79 -186.5t216 -63.5z" />
    <glyph glyph-name="dollar.aalt" horiz-adv-x="796" 
d="M700 264q0 -104 -77.5 -180t-198.5 -90l-12 -152h-156l12 158q-100 14 -180 55l31 154q78 -41 164 -55l26 335q-90 55 -142 121t-52 166.5t64.5 169t174.5 86.5l13 139h157l-12 -135q94 -12 166 -47l-31 -145q-72 27 -147 37l-27 -306q70 -41 112 -73.5t78.5 -96
t36.5 -141.5zM279 762q0 -47 47 -90l14 192q-61 -32 -61 -102zM438 154q98 27 99 110q0 68 -78 131z" />
    <glyph glyph-name="glyph392" horiz-adv-x="1003" 
d="M897 158l33 -154q-78 -12 -152 -12q-186 0 -321 91t-189 247h-182v119h156q-4 45 -4 69q0 31 2 47h-154v119h174q49 166 187.5 261t316.5 95q63 0 141 -16l-31 -147q-66 10 -110 10q-117 0 -203 -54.5t-129 -148.5h381v-119h-412q-2 -14 -2 -47q0 -35 7 -69h407v-119
h-369q47 -86 132.5 -135.5t193.5 -49.5q53 1 127 13z" />
    <glyph glyph-name="sterling.aalt" horiz-adv-x="927" 
d="M457 301q0 -78 -49 -149h426v-152h-656v143q72 43 98.5 75t26.5 83q0 47 -43 150h-186v110h145q-25 84 -24 144q0 147 120.5 241t278.5 94q143 0 240 -51l-31 -137q-88 39 -187 39q-113 0 -188.5 -53.5t-75.5 -157.5q0 -61 21 -119h350v-110h-301q35 -87 35 -150z" />
    <glyph glyph-name="yen.aalt" horiz-adv-x="1052" 
d="M999 1028l-321 -498h194v-110h-262v-80h262v-111h-262v-229h-168v229h-260v111h260v80h-260v110h193l-322 498h195l280 -455l285 455h186z" />
    <glyph glyph-name="glyph395" 
d="M-537 1042l158 27q8 -59 8 -139q0 -137 -35 -283h-94q10 72 11 129q-1 139 -48 266z" />
    <glyph glyph-name="glyph396" horiz-adv-x="409" 
d="M63 637q43 166 43 305q0 53 -6 107h174v-54q-6 -203 -118 -403z" />
    <glyph glyph-name="uni0308.aalt" 
d="M-684 1266q0 45 33 77.5t80 32.5q45 0 77.5 -32.5t32.5 -77.5t-32.5 -78t-77.5 -33q-47 0 -80 33t-33 78zM-346 1266q0 45 32.5 77.5t80.5 32.5q45 0 77.5 -32.5t32.5 -77.5t-32.5 -78t-77.5 -33q-47 0 -80 33t-33 78z" />
    <glyph glyph-name="uni0307.aalt" 
d="M-346 1251q0 45 32.5 78t80.5 33q45 0 77.5 -33t32.5 -78t-32.5 -77.5t-77.5 -32.5q-47 0 -80 32.5t-33 77.5z" />
    <glyph glyph-name="gravecomb.aalt" 
d="M-510 1399l383 -174l-31 -99l-424 115z" />
    <glyph glyph-name="acutecomb.aalt" 
d="M-123 1241l-424 -115l-31 99l383 174z" />
    <glyph glyph-name="uni030B.aalt" 
d="M-702 1124l-68 80l252 215l94 -125zM-393 1124l-68 80l252 215l96 -121z" />
    <glyph glyph-name="glyph402" 
d="M-270 1042l157 27q8 -55 9 -123q0 -160 -35 -299h-94q10 72 10 129q0 139 -47 266z" />
    <glyph glyph-name="uni0302.aalt" 
d="M-123 1217l-47 -91l-248 119l-248 -119l-47 91l295 196z" />
    <glyph glyph-name="uni030C.aalt" 
d="M-158 1432l47 -91l-295 -196l-294 196l47 91l247 -119z" />
    <glyph glyph-name="uni0306.aalt" 
d="M-553 1399q0 -68 41 -108t112.5 -40t112.5 40t41 108h123q0 -125 -75.5 -200t-200.5 -75t-201 75t-76 200h123z" />
    <glyph glyph-name="uni030A.aalt" 
d="M-336 979q-92 0 -152.5 61.5t-60.5 151.5q0 88 60.5 149.5t152.5 61.5q90 0 151.5 -61.5t61.5 -149.5q0 -90 -61.5 -151.5t-151.5 -61.5zM-250 1192q0 37 -23.5 61.5t-62.5 24.5t-62.5 -24.5t-23.5 -61.5t23.5 -62.5t62.5 -25.5t62.5 25.5t23.5 62.5z" />
    <glyph glyph-name="tildecomb.aalt" 
d="M-117 1346q-35 -55 -94 -90t-125 -35q-55 0 -132 37.5t-120 37.5q-78 0 -131 -82l-90 91q33 57 92.5 94t128.5 37q57 0 133 -38t117 -38q76 0 129 78z" />
    <glyph glyph-name="uni0304.aalt" 
d="M-123 1325v-127h-549v127h549z" />
    <glyph glyph-name="uni0326.aalt" 
d="M-129 -88q8 -156 -119 -379l-82 18q33 137 33 254q0 55 -6 107h174z" />
    <glyph glyph-name="uni0327.aalt" 
d="M-303 -72q84 -8 131 -58t47 -124q0 -84 -61.5 -136t-169.5 -52q-90 0 -154 43l35 110q47 -41 121 -41q98 0 98 78q0 86 -119 86q-31 0 -67 -6l63 274l111 -4z" />
    <glyph glyph-name="uni0328.aalt" 
d="M-434 -193q0 84 59.5 160t159.5 119l47 -80q-55 -25 -93 -77t-38 -95q0 -55 26.5 -82.5t69.5 -27.5q20 0 45 6l35 -103q-59 -27 -108 -26q-92 0 -147.5 57t-55.5 149z" />
    <glyph glyph-name="acute.aalt" horiz-adv-x="759" 
d="M123 1571l440 198l74 -163l-483 -131z" />
    <glyph glyph-name="breve.aalt" horiz-adv-x="798" 
d="M246 1769q0 -68 41 -107.5t112.5 -39.5t112.5 40t41 107h123q0 -125 -76 -199.5t-201 -74.5t-200.5 75t-75.5 199h123z" />
    <glyph glyph-name="caron.aalt" horiz-adv-x="890" 
d="M117 1663l47 90l289 -131l288 131l47 -90l-335 -207z" />
    <glyph glyph-name="circumflex.aalt" horiz-adv-x="917" 
d="M799 1563l-47 -90l-289 131l-289 -131l-47 90l336 206z" />
    <glyph glyph-name="dieresis.aalt" horiz-adv-x="868" 
d="M154 1579q0 45 32.5 78t79.5 33q45 0 78 -33t33 -78t-33 -78t-78 -33q-47 0 -79.5 33t-32.5 78zM492 1579q0 45 32.5 78t79.5 33q45 0 78 -33t33 -78t-33 -78t-78 -33q-47 0 -79.5 33t-32.5 78z" />
    <glyph glyph-name="dotaccent.aalt" horiz-adv-x="438" 
d="M121 1726.5q0 40.5 28.5 68.5t69.5 28t69.5 -28t28.5 -68.5t-28.5 -69.5t-69.5 -29t-69.5 29t-28.5 69.5z" />
    <glyph glyph-name="grave.aalt" horiz-adv-x="759" 
d="M637 1571l-31 -96l-469 127l64 165z" />
    <glyph glyph-name="hungarumlaut.aalt" horiz-adv-x="974" 
d="M510 1645l-320 -170l-67 79l293 215zM872 1649l-321 -174l-68 79l293 215z" />
    <glyph glyph-name="macron.aalt" horiz-adv-x="794" 
d="M672 1645v-127h-549v127h549z" />
    <glyph glyph-name="ogonek.aalt" horiz-adv-x="1228" 
d="M123 -193q0 84 59.5 160t159.5 119l47 -80q-55 -25 -93 -77t-38 -95q0 -55 26.5 -82.5t69.5 -27.5q20 0 45 6l35 -103q-59 -27 -108 -26q-92 0 -147.5 57t-55.5 149z" />
    <glyph glyph-name="ring.aalt" horiz-adv-x="561" 
d="M279 1395q-92 0 -152.5 61.5t-60.5 151.5q0 88 60 149.5t153 61.5q90 0 151.5 -61.5t61.5 -149.5q0 -90 -61.5 -151.5t-151.5 -61.5zM365 1608q0 37 -24 61.5t-62.5 24.5t-62 -24.5t-23.5 -61.5t23.5 -62.5t62 -25.5t62.5 25.5t24 62.5z" />
    <glyph glyph-name="tilde.aalt" horiz-adv-x="991" 
d="M365 1645q57 0 132.5 -38t116.5 -38q76 0 129 78l93 -93q-35 -55 -94.5 -89.5t-125.5 -34.5q-55 0 -131.5 37.5t-119.5 37.5q-78 0 -132 -82l-90 90q33 57 92.5 94.5t129.5 37.5z" />
    <glyph glyph-name="glyph424" horiz-adv-x="1042" 
d="M4 1575l440 199l74 -164l-483 -131zM535 1575l440 199l74 -164l-484 -131zM340 1399v-1399h-164v1399h164zM877 1399v-1206q0 -135 -36 -233.5t-98.5 -151t-132 -75t-151.5 -22.5l-47 150q301 0 301 332v1206h164z" />
    <glyph glyph-name="glyph425" horiz-adv-x="931" 
d="M459 1241l-424 -115l-31 99l383 174zM895 1241l-424 -115l-31 99l383 174zM309 1028v-1028h-164v1028h164zM786 1028v-827q0 -219 -109.5 -354.5t-287.5 -135.5l-41 133q127 0 198.5 94.5t71.5 260.5v829h168z" />
    </font>
</defs>
</svg>
