<?xml version="1.0" standalone="no"?>
<!DOCTYPE svg PUBLIC "-//W3C//DTD SVG 1.1//EN" "http://www.w3.org/Graphics/SVG/1.1/DTD/svg11.dtd" >
<svg xmlns="http://www.w3.org/2000/svg" xmlns:xlink="http://www.w3.org/1999/xlink" version="1.1">
<metadata>
Created by FontForge 20190801 at Tue Dec 13 11:13:06 2011
 By Unknown
Copyright (c) 2006 by Lanston Type Co.- P22 type foundry. All rights reserved.
</metadata>
<defs>
<font id="LTCBodoni175W01-Regular" horiz-adv-x="500" >
  <font-face 
    font-family="LTCBodoni175W01-Regular"
    font-weight="400"
    font-stretch="normal"
    units-per-em="1000"
    panose-1="2 0 6 3 9 0 0 2 0 3"
    ascent="738"
    descent="-262"
    x-height="430"
    cap-height="703"
    bbox="-83 -275 1001 900"
    underline-thickness="50"
    underline-position="-100"
    unicode-range="U+000D-2122"
  />
<missing-glyph horiz-adv-x="0" 
 />
    <glyph glyph-name=".notdef" horiz-adv-x="0" 
 />
    <glyph glyph-name=".null" horiz-adv-x="0" 
 />
    <glyph glyph-name="uni000D" unicode="&#xd;" horiz-adv-x="0" 
 />
    <glyph glyph-name="space" unicode=" " horiz-adv-x="250" 
 />
    <glyph glyph-name="exclam" unicode="!" horiz-adv-x="250" 
d="M70 48q0 23 16 39t39 16t39 -16t16 -39t-16 -39t-39 -16t-39 16t-16 39zM125 710q24 0 39.5 -19t15.5 -44q0 -13 -3.5 -41t-8.5 -66.5t-10.5 -85.5t-10.5 -97.5t-8.5 -101.5t-3.5 -98h-20q0 47 -3.5 98t-8.5 101.5t-10.5 97.5t-10.5 85.5t-8.5 67t-3.5 40.5q0 25 15.5 44
t39.5 19z" />
    <glyph glyph-name="quotedbl" unicode="&#x22;" horiz-adv-x="400" 
d="M275 710q20 0 32.5 -16t12.5 -37q0 -15 -5 -36t-11 -46.5t-11.5 -55t-7.5 -62.5h-20q-2 33 -7.5 62.5t-11.5 55t-11 46.5t-5 36q0 21 12.5 37t32.5 16zM125 710q20 0 32.5 -16t12.5 -37q0 -15 -5 -36t-11 -46.5t-11.5 -55t-7.5 -62.5h-20q-2 33 -7.5 62.5t-11.5 55
t-11 46.5t-5 36q0 21 12.5 37t32.5 16z" />
    <glyph glyph-name="numbersign" unicode="#" horiz-adv-x="606" 
d="M237 339l-51 -175h139l52 175h-140zM312 592l-67 -216h142l66 216h37l-67 -216h114l-8 -37h-116l-53 -175h116l-8 -37h-119l-71 -238h-36l71 238h-138l-73 -238h-35l73 238h-127l8 37h128l53 175h-133l8 37h135l63 216h37z" />
    <glyph glyph-name="dollar" unicode="$" 
d="M273 385v264q-6 0 -11.5 0.5t-11.5 0.5q-16 0 -31 -3v-241zM230 0q24 0 43 4v274q-14 5 -27 10t-27 11v-299h11zM108 526q0 -44 27 -69.5t68 -43.5v230q-42 -13 -68.5 -44.5t-26.5 -72.5zM402 137q0 27 -9 47.5t-24 36.5t-35.5 28t-43.5 22v-262q49 15 80.5 49.5
t31.5 78.5zM273 -11q-11 -2 -21.5 -3t-21.5 -1h-11v-95h-16v97q-32 4 -59.5 17t-47.5 32.5t-31.5 44.5t-11.5 53q0 12 3 26t9.5 26.5t16.5 20.5t25 8q20 0 32.5 -15.5t12.5 -34.5q0 -23 -10.5 -33t-23 -15t-23 -9.5t-10.5 -15.5q0 -13 9.5 -27t26 -26.5t38 -22.5t44.5 -14
v304q-27 12 -51 26t-42.5 34t-29.5 47t-11 64q0 33 10 62t28 53t42.5 41t53.5 25v48h16v-44q15 3 31 3q6 0 11.5 -0.5t11.5 -0.5v42h17v-44q29 -4 55 -14.5t45.5 -27t30.5 -38t11 -48.5q0 -26 -14.5 -43.5t-34.5 -17.5t-33.5 13t-13.5 33t8 30.5t18 17t18 11t8 12.5
q0 13 -27 30.5t-71 25.5v-267q31 -12 60 -27t51.5 -36.5t36.5 -51t14 -70.5q0 -36 -12 -68.5t-34 -59t-51.5 -45.5t-64.5 -28v-103h-17v99z" />
    <glyph glyph-name="percent" unicode="%" horiz-adv-x="606" 
d="M437 10q17 0 34 6q15 6 24 13.5t13.5 23.5t6 42.5t1.5 71.5q0 119 -71 119q-48 0 -67.5 -29.5t-19.5 -101.5q0 -75 18 -109t57 -36h4zM175 418q42 5 59.5 32t17.5 85q0 23 -0.5 39t-1 27.5t-2 21t-4.5 18.5q-6 23 -27 38t-47 15q-24 0 -40 -7.5t-25.5 -26.5t-13 -50.5
t-3.5 -80.5q0 -59 18 -85.5t60 -26.5q2 0 4.5 0.5t4.5 0.5zM433 -4q-27 0 -52 12.5t-43.5 33.5t-30 49t-11.5 58t12 57.5t32 48.5t46.5 33.5t55.5 12.5q30 0 54.5 -10.5t42.5 -29.5t28 -44.5t10 -56.5q0 -34 -11.5 -64t-31 -52t-45.5 -35t-56 -13zM537 687l-483 -688l-25 -1
l475 671q-19 -6 -33 -10.5t-27.5 -6.5t-27.5 -3t-32 -1q-16 0 -28.5 0.5t-24.5 2t-26 4.5t-32 7q13 -16 21 -28.5t12.5 -24t6.5 -24t2 -28.5q0 -32 -11 -60t-30.5 -49t-45 -33.5t-55.5 -12.5t-56 12.5t-46 33.5t-31.5 49t-11.5 60q0 30 11 56.5t30 47t44 32.5t53 12
q16 0 38.5 -5t51.5 -14q39 -12 65 -16.5t57 -4.5q42 0 75 7.5t74 25.5z" />
    <glyph glyph-name="ampersand" unicode="&#x26;" horiz-adv-x="722" 
d="M260 627q0 -27 17.5 -71.5t46.5 -99.5q45 29 75 60.5t30 73.5q0 52 -24.5 82.5t-66.5 30.5q-35 0 -56.5 -21t-21.5 -55zM307 262q-19 32 -35 62.5t-30 59.5q-42 -28 -71.5 -58.5t-29.5 -69.5q0 -22 6.5 -48t18.5 -53t28 -52.5t34 -45.5q19 -20 46 -32.5t52 -12.5
q29 0 57.5 13t55.5 36q-29 34 -61 83t-71 118zM338 717q28 0 52.5 -9t41.5 -25t27 -38t10 -48q0 -25 -11 -46.5t-30 -41t-43.5 -37t-51.5 -33.5q17 -32 36.5 -66.5t39.5 -69.5q26 -48 50.5 -89t46.5 -75q20 30 36.5 63.5t28.5 69.5t18.5 72t6.5 71q0 8 -5 10t-21 2h-93v16
h223v-16h-72q-7 0 -10.5 -3.5t-3.5 -6.5q0 -68 -24.5 -147.5t-72.5 -147.5q32 -46 57.5 -71.5t45.5 -25.5q26 0 39.5 28.5t19.5 97.5h16q-2 -169 -118 -169q-34 0 -64.5 15.5t-62.5 50.5q-37 -30 -81 -48t-97 -18q-47 0 -88 15.5t-71.5 42.5t-48 63.5t-17.5 78.5
q0 39 16 70.5t42 58t60 49t69 43.5q-25 54 -37.5 98t-12.5 74q0 29 12 55t33 45.5t49 30.5t60 11z" />
    <glyph glyph-name="quotesingle" unicode="'" horiz-adv-x="250" 
d="M125 710q20 0 32.5 -16t12.5 -37q0 -15 -5 -36t-11 -46.5t-11.5 -55t-7.5 -62.5h-20q-2 33 -7.5 62.5t-11.5 55t-11 46.5t-5 36q0 21 12.5 37t32.5 16z" />
    <glyph glyph-name="parenleft" unicode="(" horiz-adv-x="300" 
d="M25 270q0 49 5 102t15.5 103t28 95t42.5 79t58 54t75 20h16v-16h-16q-33 0 -57.5 -22t-42.5 -57.5t-29 -80.5t-18 -91t-9.5 -90t-2.5 -76v-132q0 -33 2.5 -76.5t9.5 -89.5t18 -91t29 -80.5t42.5 -57.5t57.5 -22h16v-16h-16q-63 0 -106 43t-69.5 110t-37.5 147t-11 155v90
z" />
    <glyph glyph-name="parenright" unicode=")" horiz-adv-x="300" 
d="M275 180q0 -75 -11 -155t-37.5 -147t-69.5 -110t-106 -43h-16v16h16q33 0 57.5 22t42.5 57.5t29 80.5t18 91t9.5 90t2.5 76v132q0 32 -2.5 76t-9.5 90t-18 91t-29 80.5t-42.5 57.5t-57.5 22h-16v16h16q42 0 75 -20t58 -54t42.5 -79t28 -95t15.5 -103t5 -102v-90z" />
    <glyph glyph-name="asterisk" unicode="*" horiz-adv-x="350" 
d="M38 618q0 14 10.5 23t24.5 9t25.5 -9.5t22.5 -22t22 -26t23 -20.5q-1 13 -5 25.5t-8.5 24.5t-8.5 24t-4 24q0 15 9.5 27.5t25.5 12.5t25.5 -12.5t9.5 -27.5q0 -12 -4 -23.5t-8.5 -23.5t-9 -24.5t-4.5 -26.5q12 8 23 21l22 26t23 22t26 9t24 -8.5t10 -23.5
q0 -19 -14 -28.5t-33 -14.5t-39 -8.5t-33 -9.5q13 -6 33 -9.5t39 -8.5t33 -14.5t14 -28.5q0 -14 -10.5 -23t-24.5 -9t-26 9t-23 21.5t-21.5 25.5t-22.5 21q0 -14 4.5 -26.5t9 -24.5t8.5 -23t4 -23q0 -15 -9.5 -27.5t-25.5 -12.5t-25.5 12.5t-9.5 27.5q0 12 4 23.5t8.5 23.5
t8.5 24.5t5 25.5q-12 -8 -22.5 -20.5t-21.5 -25.5t-23 -22t-27 -9q-14 0 -24 8.5t-10 23.5q0 19 14 28.5t33 14.5t39 8.5t33 9.5q-12 6 -32.5 9.5t-39.5 8.5t-33 14.5t-14 28.5z" />
    <glyph glyph-name="plus" unicode="+" 
d="M263 331h167v-27h-167v-167h-27v167h-166v27h166v166h27v-166z" />
    <glyph glyph-name="comma" unicode="," horiz-adv-x="250" 
d="M150 1q-16 -5 -24 -7t-16 -2q-23 0 -39 16t-16 38t17.5 40t39.5 18q30 0 48.5 -25.5t18.5 -67.5q0 -22 -7.5 -45t-20 -45t-30 -40.5t-38.5 -30.5l-10 11q38 33 58.5 65t20.5 55q0 5 -0.5 9.5t-1.5 10.5z" />
    <glyph glyph-name="hyphen" unicode="-" horiz-adv-x="239" 
d="M210 270v-71h-181v71h181z" />
    <glyph glyph-name="period" unicode="." horiz-adv-x="250" 
d="M70 50q0 23 16 39t39 16t39 -16t16 -39t-16 -39t-39 -16t-39 16t-16 39z" />
    <glyph glyph-name="slash" unicode="/" horiz-adv-x="340" 
d="M5 -192l300 932h30l-300 -932h-30z" />
    <glyph glyph-name="zero" unicode="0" 
d="M250 649q-27 0 -46 -17.5t-31 -55.5t-17.5 -98.5t-5.5 -147.5q0 -90 6.5 -152t19 -101t31 -56.5t43.5 -17.5t43.5 17.5t31 56.5t19 101t6.5 152q0 87 -5.5 147.5t-17.5 98.5t-31 55.5t-46 17.5zM250 -14q-38 0 -74 28t-64.5 75t-46 108.5t-17.5 128.5q0 68 16.5 129.5
t44.5 108.5t64.5 75t76.5 28t76.5 -28t64.5 -75t44.5 -108.5t16.5 -129.5q0 -67 -17.5 -128.5t-46 -108.5t-64.5 -75t-74 -28z" />
    <glyph glyph-name="one" unicode="1" horiz-adv-x="420" 
d="M156 15v612h-121v13h23q26 0 67 5t88 15l35 -1v-643h126v-16h-329v16z" />
    <glyph glyph-name="two" unicode="2" 
d="M43 0v60l137 128q43 40 74 75.5t51 69.5t29.5 68t9.5 70q0 74 -36 117t-98 43q-23 0 -45 -8t-38.5 -21t-26.5 -30.5t-10 -35.5q0 -24 14 -24q4 0 12 2q10 2 18.5 3t14.5 1q20 0 33 -14t13 -36q0 -24 -16 -40t-39 -16q-31 0 -51.5 26.5t-20.5 66.5q0 33 15 62.5t40.5 51.5
t60.5 35t74 13t73 -12.5t59 -34t39 -51t14 -63.5q0 -20 -4 -38t-13 -36.5t-24 -38.5t-37 -45q-61 -68 -126.5 -129t-135.5 -126h316l12 91h10l-17 -184h-381z" />
    <glyph glyph-name="three" unicode="3" 
d="M240 356q104 -18 152.5 -62t48.5 -119q0 -42 -16 -76.5t-45.5 -59.5t-70 -39t-88.5 -14q-36 0 -68 10t-56.5 27.5t-38.5 40.5t-14 49q0 27 16.5 46t40.5 19q22 0 37.5 -15.5t15.5 -38.5q0 -17 -8 -30.5t-34 -31.5q-4 -4 -4 -11t7.5 -15.5t20.5 -16.5t30.5 -13.5
t38.5 -5.5q29 0 53 13t41 36.5t26 56.5t9 74q0 82 -37.5 125.5t-108.5 43.5q-12 0 -24.5 -2.5t-26.5 -2.5q-20 0 -20 11q0 7 7.5 11.5t18.5 4.5q13 0 26 -2.5t30 -2.5q51 0 77.5 38.5t26.5 111.5q0 64 -28 99t-79 35q-32 0 -53 -12.5t-21 -30.5q0 -4 2 -6q29 -22 37 -33.5
t8 -27.5q0 -23 -13 -36.5t-33 -13.5q-26 0 -41 17t-15 47q0 51 41.5 81t111.5 30q40 0 74 -10.5t58.5 -29.5t38.5 -44.5t14 -56.5q0 -58 -42 -104.5t-123 -63.5z" />
    <glyph glyph-name="four" unicode="4" 
d="M257 564l-215 -373h215v373zM257 16v159h-232v19l268 472h60v-475h93v87h15v-178h-15v75h-93v-159h83v-16h-260l1 16h80z" />
    <glyph glyph-name="five" unicode="5" 
d="M91 339l3 243q0 32 13.5 51t36.5 19h227l8 29h15q-5 -65 -20 -91.5t-47 -26.5h-216v-212q23 14 37 19q9 4 22 7.5t27.5 6t28.5 4t26 1.5q39 0 74 -15.5t60.5 -41.5t40.5 -62t15 -76q0 -45 -17 -83t-46.5 -66t-70 -44t-88.5 -16q-35 0 -65.5 10t-53.5 27t-36 40t-13 49
q0 29 15.5 47t39.5 18q22 0 37.5 -15.5t15.5 -37.5q0 -32 -20 -42l-27 -14q-9 -5 -9 -15q0 -2 0.5 -3t0.5 -3q4 -8 15 -15.5t25.5 -13.5t31 -9.5t31.5 -3.5q59 0 94 51t35 137q0 81 -34.5 127t-94.5 46q-20 0 -41.5 -6.5t-62.5 -25.5z" />
    <glyph glyph-name="six" unicode="6" 
d="M251 3q31 0 51 15t31.5 42t16 65.5t4.5 85.5q0 188 -88 188q-15 0 -30.5 -5.5t-30 -14.5t-26 -20.5t-17.5 -24.5q-8 -17 -10.5 -37t-2.5 -58q0 -123 24.5 -179.5t77.5 -56.5zM432 676q-68 -14 -119.5 -45t-86 -75t-53 -98.5t-21.5 -113.5q35 49 64 68t70 19
q36 0 67.5 -17t55.5 -46.5t38 -68.5t14 -83q0 -46 -16.5 -88t-44.5 -73.5t-65 -50t-77 -18.5q-42 0 -80 24.5t-67.5 66t-46.5 95.5t-17 114q0 78 30 148.5t82 125t122 89.5t150 41z" />
    <glyph glyph-name="seven" unicode="7" horiz-adv-x="420" 
d="M58 645h360l-110 -231q-5 -11 -12 -28t-16 -40q-12 -33 -20 -56.5t-12.5 -40t-6.5 -29t-2 -23.5q0 -30 16 -68q14 -34 18.5 -50.5t4.5 -27.5q0 -29 -16.5 -47.5t-42.5 -18.5q-28 0 -44.5 21t-16.5 59q0 21 3.5 40.5t11 40.5t18.5 47t27 61l137 303h-302l-24 -91l-13 3z
" />
    <glyph glyph-name="eight" unicode="8" 
d="M250 657q-43 0 -66.5 -40.5t-23.5 -115.5q0 -72 22 -110t68 -38t68 38t22 110q0 75 -23.5 115.5t-66.5 40.5zM250 335q-51 0 -75.5 -40t-24.5 -127q0 -85 23.5 -124.5t76.5 -39.5t76.5 39.5t23.5 124.5q0 87 -24.5 127t-75.5 40zM250 -14q-36 0 -72.5 14.5t-66 40
t-48 58.5t-18.5 71q0 67 42.5 109.5t133.5 64.5q-80 24 -118 62.5t-38 100.5q0 36 14 66.5t39 52t59 34t73 12.5t73 -12.5t59 -34t39 -52t14 -66.5q0 -62 -38 -100.5t-118 -62.5q91 -22 133.5 -64.5t42.5 -109.5q0 -38 -18.5 -71t-48 -58.5t-66 -40t-72.5 -14.5z" />
    <glyph glyph-name="nine" unicode="9" 
d="M250 648q-31 0 -51 -15t-31.5 -42t-16 -65.5t-4.5 -85.5q0 -188 88 -188q15 0 30.5 5.5t30 14.5t26 20.5t17.5 24.5q8 17 10.5 37t2.5 58q0 123 -24.5 179.5t-77.5 56.5zM69 -25q68 13 119.5 44.5t86 75.5t53 98.5t21.5 113.5q-18 -25 -33 -41.5t-31 -26.5t-32.5 -14.5
t-37.5 -4.5q-36 0 -67.5 17t-55.5 46.5t-38 68.5t-14 83q0 46 16.5 88t44.5 73.5t64.5 50t77.5 18.5q42 0 80 -24.5t67.5 -66t46.5 -95.5t17 -114q0 -78 -30 -148.5t-82 -125t-122 -89.5t-150 -41z" />
    <glyph glyph-name="colon" unicode=":" horiz-adv-x="250" 
d="M70 380q0 23 16 39t39 16t39 -16t16 -39t-16 -39t-39 -16t-39 16t-16 39zM70 50q0 23 16 39t39 16t39 -16t16 -39t-16 -39t-39 -16t-39 16t-16 39z" />
    <glyph glyph-name="semicolon" unicode=";" horiz-adv-x="250" 
d="M69 -137q25 20 40.5 36t24.5 31.5t13 33t6 41.5q-27 -12 -45 -12q-23 0 -38.5 16t-15.5 39t17 39.5t41 16.5q13 0 25 -6.5t21.5 -18t15 -26t5.5 -29.5q0 -16 -3 -33.5t-11 -36.5q-6 -17 -13 -30t-16.5 -25t-23 -24t-32.5 -27zM111 437q23 0 38.5 -14.5t15.5 -36.5
q0 -25 -17 -43t-41 -18q-22 0 -37.5 17t-15.5 40t17 39t40 16z" />
    <glyph glyph-name="less" unicode="&#x3c;" 
d="M83 304v27l326 148l14 -23l-304 -139l304 -138l-14 -23z" />
    <glyph glyph-name="equal" unicode="=" 
d="M70 224v27h360v-27h-360zM70 384v27h360v-27h-360z" />
    <glyph glyph-name="greater" unicode="&#x3e;" 
d="M91 156l-14 23l304 138l-304 139l14 23l326 -148v-27z" />
    <glyph glyph-name="question" unicode="?" horiz-adv-x="400" 
d="M60 48q0 23 16 39t39 16t39 -16t16 -39t-16 -39t-39 -16t-39 16t-16 39zM94 416h19q14 -91 40 -133.5t69 -42.5q23 0 36 21.5t13 59.5q0 40 -3.5 82.5t-9.5 83.5t-15 79t-20 70q-11 30 -28.5 46.5t-40.5 16.5q-14 0 -22 -5.5t-8 -14.5q0 -5 3 -8l23 -26q8 -10 8 -23
q0 -17 -12.5 -28t-26.5 -11q-20 0 -33 16.5t-13 41.5q0 32 23 53.5t56 21.5q31 0 60 -22t63 -72q35 -51 50 -102.5t15 -117.5q0 -83 -30.5 -131t-84.5 -48q-38 0 -62 22.5t-43 64.5l3 -156h-19z" />
    <glyph glyph-name="at" unicode="@" horiz-adv-x="760" 
d="M524 47q-20 0 -33.5 6.5t-23.5 17t-15.5 23.5t-8.5 26q-22 -39 -47.5 -56.5t-51.5 -17.5q-22 0 -41.5 11.5t-34.5 32t-23.5 47.5t-8.5 58q0 23 6.5 49t17.5 49q13 27 32 50t40 40.5t44 27.5t44 10q26 0 42.5 -15.5t32.5 -56.5l13 60h66l-71 -298q-1 -2 -1 -5v-5
q0 -14 7.5 -24t18.5 -10q34 0 63.5 21t51.5 58t35 85.5t13 104.5q0 52 -18 98t-49.5 80t-73 53.5t-89.5 19.5q-72 0 -135 -36t-110.5 -97.5t-74.5 -145t-27 -177.5q0 -50 18 -94t49.5 -76.5t73 -51.5t89.5 -19q46 0 91 12.5t94 45.5l9 -11q-54 -37 -100.5 -50t-99.5 -13
q-56 0 -106.5 23.5t-88.5 66t-61 101.5t-23 129q0 88 33 163t88.5 130t129.5 85.5t157 30.5q50 0 94.5 -21t77.5 -58t52 -86t19 -104q0 -59 -14.5 -111.5t-40 -91.5t-59 -61.5t-72.5 -22.5zM348 69q27 0 50.5 23.5t35.5 59.5q40 119 40 177q0 29 -16.5 50t-41.5 21
q-49 0 -74 -97q-20 -70 -28.5 -108.5t-8.5 -61.5q0 -64 43 -64z" />
    <glyph glyph-name="A" unicode="A" horiz-adv-x="692" 
d="M194 264h186l-109 278zM301 712l17 4l278 -700h89v-16h-304v16h96l-87 224h-203l-64 -224h97v-16h-213v16h92z" />
    <glyph glyph-name="B" unicode="B" horiz-adv-x="722" 
d="M340 385q51 0 84.5 7.5t53.5 25.5t28.5 47t8.5 71q0 69 -39 110t-103 41h-114v-302h81zM325 16q64 0 107 10t68.5 30.5t36.5 52.5t11 76q0 49 -12.5 83t-35.5 56t-55.5 32t-72.5 10h-113v-350h66zM144 687h-102v16h347q43 0 86 -12.5t77.5 -35t55.5 -54t21 -68.5
q0 -48 -45.5 -90.5t-148.5 -64.5q49 -10 91 -28.5t73 -44t48.5 -56.5t17.5 -66q0 -41 -21 -75t-59.5 -58t-92 -37t-118.5 -13h-332v16h102v671z" />
    <glyph glyph-name="C" unicode="C" horiz-adv-x="712" 
d="M626 703q-4 -33 -5.5 -60t-1.5 -49q0 -37 3 -62.5t6 -48.5l-13 -1q-5 11 -8 19.5t-5 13.5q-9 24 -16 40t-14 28t-14 22t-17 21q-64 73 -155 73q-63 0 -105 -25t-67.5 -72.5t-36 -116t-10.5 -155.5q0 -90 11.5 -153.5t37 -103.5t65.5 -58.5t97 -18.5q47 0 92.5 17t80.5 47
q15 13 26 26t21 29t19.5 36.5t20.5 49.5l10 -1q-2 -29 -3.5 -46t-2 -27t-0.5 -15v-9q0 -23 1.5 -43t4.5 -45l-14 -1q-11 22 -19.5 29t-23.5 7q-9 0 -18.5 -3.5t-27.5 -14.5q-41 -25 -85.5 -38.5t-87.5 -13.5q-65 0 -124 29t-103 78.5t-70 115.5t-26 139q0 76 27 143.5
t73 118.5t107 81t129 30q31 0 61.5 -9t77.5 -32q14 -7 25.5 -11t19.5 -4q13 0 25.5 13.5t17.5 30.5h14z" />
    <glyph glyph-name="D" unicode="D" horiz-adv-x="820" 
d="M332 16q93 0 154 20t98 59.5t52 97.5t15 135q0 183 -77 271t-242 88h-66v-671h66zM151 687h-87v16h289q93 0 170.5 -26t133 -73.5t86 -113.5t30.5 -146q0 -93 -37 -158t-96 -106.5t-134.5 -60.5t-151.5 -19h-305v16h102v671z" />
    <glyph glyph-name="E" unicode="E" horiz-adv-x="722" 
d="M144 687h-101v16h632q-2 -28 -8.5 -54.5t-6.5 -52.5q0 -20 1 -41.5t3 -44.5h-16q-12 50 -30 84t-45 54.5t-65 29.5t-89 9h-159v-305q62 0 103.5 4.5t66.5 19t36 42t14 74.5h17q-3 -86 -3 -171q0 -69 3 -136l-15 -1q-7 54 -24 84.5t-44.5 45.5t-66 18.5t-87.5 3.5v-350
h155q61 0 104.5 15.5t73 43t46.5 65.5t26 83h14q-2 -35 -3.5 -67.5t-1.5 -64.5q0 -24 1 -45t4 -46h-636v16h101v671z" />
    <glyph glyph-name="F" unicode="F" horiz-adv-x="647" 
d="M52 0v16h93v671h-103v16h580q1 -51 3 -100t5 -100h-15q-7 42 -22 76t-39.5 58t-60.5 37t-85 13h-147v-314h40q72 0 105 36.5t36 120.5h13v-323h-12q0 69 -33.5 108.5t-92.5 39.5h-56v-339h104v-16h-313z" />
    <glyph glyph-name="G" unicode="G" horiz-adv-x="768" 
d="M422 297v16h318v-16h-87v-303h-15q-17 59 -60 59q-8 0 -18.5 -3.5t-19.5 -8.5l-52 -31q-21 -13 -56.5 -20.5t-72.5 -7.5q-65 0 -121 28t-97.5 76t-65.5 113t-24 139q0 76 27.5 145.5t74 121.5t108.5 83t130 31q15 0 33 -2.5t36 -6.5t34.5 -9.5t28.5 -12.5
q15 -8 30.5 -15.5t35.5 -7.5t27 11t8 34h14v-238h-14q-3 51 -22 93t-49.5 72.5t-71.5 47.5t-88 17q-117 0 -170.5 -85t-53.5 -270q0 -75 4.5 -127t15.5 -94q15 -62 59 -95t111 -33q17 0 36.5 2.5t36.5 7.5q30 8 50.5 19.5t32.5 30t17 45.5t5 66v128h-115z" />
    <glyph glyph-name="H" unicode="H" horiz-adv-x="834" 
d="M41 16h101v671h-101v16h318v-16h-101v-305h318v305h-101v16h318v-16h-101v-671h101v-16h-333v16h116v350h-318v-350h101v-16h-318v16z" />
    <glyph glyph-name="I" unicode="I" horiz-adv-x="425" 
d="M43 0v16h102v671h-102v16h318v-16h-101v-671h101v-16h-318z" />
    <glyph glyph-name="J" unicode="J" 
d="M454 687h-102v-625q0 -41 -13 -76t-36.5 -60t-56 -39t-70.5 -14q-32 0 -60 9t-49 25.5t-33 38t-12 47.5q0 29 14.5 46.5t40.5 17.5q25 0 41.5 -17.5t16.5 -43.5q0 -19 -5.5 -32.5t-5.5 -30.5q0 -20 13.5 -31.5t35.5 -11.5q33 0 48.5 24t15.5 66v707h-101v16h318v-16z" />
    <glyph glyph-name="K" unicode="K" horiz-adv-x="814" 
d="M721 687h-117l-167 -250l264 -421h111v-16h-365v16h125l-206 331q-19 -20 -37.5 -35.5t-47.5 -35.5v-260h106v-16h-323v16h101v671h-97v16h315v-16h-102v-387q20 14 36.5 28t32.5 31t33 38t38 50l156 240h-117v16h261v-16z" />
    <glyph glyph-name="L" unicode="L" horiz-adv-x="667" 
d="M374 687h-110v-671h79q61 0 108 10t81.5 35.5t56 69t32.5 109.5h13v-240h-584v16h98v671h-97v16h323v-16z" />
    <glyph glyph-name="M" unicode="M" horiz-adv-x="980" 
d="M934 687h-102v-671h103v-16h-320v16h101v671h-10l-248 -701h-18l-248 701h-14v-671h100v-16h-235l1 16h115v671h-111v16h253l197 -551l195 551h241v-16z" />
    <glyph glyph-name="N" unicode="N" horiz-adv-x="834" 
d="M789 687h-99v-703h-19l-488 700v-668h110v-16h-224v16h94v671h-102v16h250l360 -516v500h-108v16h226v-16z" />
    <glyph glyph-name="O" unicode="O" horiz-adv-x="722" 
d="M360 -1q52 0 89.5 19.5t61.5 60.5t35 104.5t11 151.5q0 96 -11 164.5t-34.5 113t-61 65t-90.5 20.5t-90.5 -20.5t-61 -65t-34.5 -113t-11 -164.5q0 -88 11 -151.5t35 -104.5t61.5 -60.5t89.5 -19.5zM360 716q64 0 121 -31.5t100 -84t68.5 -120.5t25.5 -141
q0 -75 -25.5 -140t-69 -113t-100.5 -76t-120 -28t-120 28t-100.5 76t-69 113t-25.5 140q0 73 25.5 141t68.5 120.5t100 84t121 31.5z" />
    <glyph glyph-name="P" unicode="P" horiz-adv-x="667" 
d="M263 310h111q150 0 150 180q0 43 -11 79.5t-30.5 62.5t-47.5 40.5t-61 14.5h-111v-377zM346 703q67 0 121 -15t92 -43.5t58.5 -68.5t20.5 -90q0 -40 -19 -75.5t-51.5 -62t-76 -42t-92.5 -15.5h-136v-275h101v-16h-317v16h101v671h-94v16h292z" />
    <glyph glyph-name="Q" unicode="Q" horiz-adv-x="722" 
d="M360 -1q52 0 89.5 19.5t61.5 60.5t35 104.5t11 151.5q0 96 -11 164.5t-34.5 113t-61 65t-90.5 20.5t-90.5 -20.5t-61 -65t-34.5 -113t-11 -164.5q0 -88 11 -151.5t35 -104.5t61.5 -60.5t89.5 -19.5zM360 716q64 0 121 -31.5t100 -84t68.5 -120.5t25.5 -141t-24.5 -137
t-66.5 -112t-97 -76.5t-115 -31.5q15 -37 37 -52t62 -15q5 0 12 0.5t15 0.5q7 -14 13.5 -23.5t13 -17t15 -14.5t20.5 -16t21.5 -14.5t19 -9.5t21 -6t27.5 -3v-16q-23 0 -40.5 0.5t-32 2.5t-28 5t-29.5 8q-35 10 -60 23.5t-44.5 33t-35.5 47.5t-32 67q-61 3 -115.5 31.5
t-96 76.5t-66 111.5t-24.5 136.5t25.5 141t68.5 120.5t100 84t121 31.5z" />
    <glyph glyph-name="R" unicode="R" horiz-adv-x="756" 
d="M396 387q60 0 94.5 38.5t34.5 104.5q0 75 -44 117.5t-120 42.5h-104v-303h139zM390 703q61 0 107.5 -14t77.5 -37t47 -52.5t16 -61.5q0 -27 -10.5 -52t-32.5 -45t-57 -35t-83 -22q32 -6 65 -16.5t59.5 -28.5t43 -46t16.5 -69v-111q0 -30 4.5 -48.5t17 -29t35.5 -14.5
t60 -5v-16q-46 0 -88 4.5t-74 21.5t-51 50t-19 90v99q0 54 -32.5 80t-92.5 26h-142v-355h107v-16h-320v16h97v671h-91v16h340z" />
    <glyph glyph-name="S" unicode="S" horiz-adv-x="556" 
d="M306 -3q30 0 59.5 8.5t53.5 25.5t39 42.5t15 58.5q0 47 -21 77t-54.5 50t-76 33.5t-84.5 28.5q-36 12 -69 27.5t-58.5 38.5t-40.5 55.5t-15 78.5q0 39 12 74.5t35 62.5t56 42.5t74 15.5q35 0 70.5 -9.5t58.5 -26.5q15 -10 21 -13t13 -3q33 0 38 41h16l7 -210h-17
q-6 26 -12 45.5t-12 34.5t-12.5 26.5t-14.5 22.5q-26 35 -66 55t-86 20q-25 0 -50 -7.5t-45 -21.5t-32.5 -35t-12.5 -49q0 -41 19.5 -67t51 -43.5t71.5 -29.5t81 -25q39 -12 75.5 -27.5t65 -40t45.5 -60t17 -87.5q0 -49 -15 -90t-43 -71t-68 -46.5t-90 -16.5q-68 0 -120 30
l-49 27q-15 9 -30 9t-23.5 -11t-14.5 -38h-14l-1 247h14q6 -33 11.5 -55.5t11.5 -39.5t13 -31t17 -29q14 -21 34.5 -38t45.5 -29.5t52 -19.5t54 -7z" />
    <glyph glyph-name="T" unicode="T" horiz-adv-x="722" 
d="M194 0v16h107v671h-57q-36 0 -69.5 -16t-59.5 -42t-42.5 -61t-17.5 -72h-19q12 82 12 150q0 30 -3 57h626q-3 -27 -3 -57q0 -68 12 -150h-19q-2 37 -18 72t-42 61t-59.5 42t-69.5 16h-57v-671h107v-16h-328z" />
    <glyph glyph-name="U" unicode="U" horiz-adv-x="778" 
d="M353 703v-16h-104v-512q0 -84 43 -129t133 -45q205 0 205 219v467h-117v16h239v-16h-106v-489q0 -105 -59 -160.5t-170 -55.5q-149 0 -216.5 60t-67.5 178v467h-107v16h327z" />
    <glyph glyph-name="V" unicode="V" horiz-adv-x="671" 
d="M92 670q-5 11 -10 14t-19 3h-64v16h299v-16h-94l191 -533l165 533h-100l4 16h204l2 -16h-67q-20 0 -27 -20l-216 -679l-21 -6z" />
    <glyph glyph-name="W" unicode="W" horiz-adv-x="950" 
d="M67 687h-63v16h259v-16h-77l171 -525l112 380l-49 145h-90v16h297v-16h-92l170 -511l146 511h-93v16h191v-16h-77l-199 -695l-20 -10l-175 538l-154 -528l-20 -10z" />
    <glyph glyph-name="X" unicode="X" horiz-adv-x="804" 
d="M117 16l231 331l-220 340h-117v16h347v-16h-98l158 -242l166 242h-93v16h231v-16h-112l-181 -260l261 -411h108v-16h-341v16h102l-199 311l-216 -311h118v-16h-257v16h112z" />
    <glyph glyph-name="Y" unicode="Y" horiz-adv-x="723" 
d="M320 16v315l-227 356h-93v16h318v-16h-91l199 -322l177 322h-101v16h221v-16h-94l-192 -344v-327h113v-16h-340v16h110z" />
    <glyph glyph-name="Z" unicode="Z" horiz-adv-x="600" 
d="M29 0v23l407 664h-63q-67 0 -115 -11.5t-80.5 -36t-49.5 -62.5t-21 -92h-15v218h472l-1 -18l-406 -669h131q119 0 182 55t80 176h14v-247h-535z" />
    <glyph glyph-name="bracketleft" unicode="[" horiz-adv-x="250" 
d="M25 723h200v-16h-136v-966h136v-16h-200v998z" />
    <glyph glyph-name="backslash" unicode="\" horiz-adv-x="340" 
d="M305 -192l-300 932h30l300 -932h-30z" />
    <glyph glyph-name="bracketright" unicode="]" horiz-adv-x="250" 
d="M225 -275h-200v16h136v966h-136v16h200v-998z" />
    <glyph glyph-name="asciicircum" unicode="^" 
d="M239 677h27l148 -326l-23 -14l-139 304l-138 -304l-23 14z" />
    <glyph glyph-name="underscore" unicode="_" 
d="M-1 -75v25h502v-25h-502z" />
    <glyph glyph-name="grave" unicode="`" 
d="M96 678q0 20 13.5 32.5t34.5 12.5q17 0 29.5 -8.5t22 -22t17 -30t15.5 -31.5q6 -11 11.5 -21t12 -20t15 -22t20.5 -28l-13 -10q-11 9 -19 15.5t-16.5 12.5t-19 12t-25.5 15q-56 30 -77 50t-21 43z" />
    <glyph glyph-name="a" unicode="a" 
d="M303 244q-24 -6 -41 -10.5t-29.5 -7.5t-23 -5.5t-20.5 -4.5q-41 -8 -57 -32.5t-16 -77.5q0 -45 20 -71.5t54 -26.5q21 0 41.5 10.5t36.5 27t25.5 38t9.5 43.5v117zM470 -10q-12 -2 -18.5 -2.5t-13.5 -0.5q-39 0 -66 16t-60 58q-23 -23 -40.5 -38t-33 -23t-31.5 -11
t-35 -3q-30 0 -56 9.5t-45 26t-29.5 39.5t-10.5 50q0 90 115 114l97 19q12 2 19.5 4t13.5 3.5t12.5 4t15.5 5.5v92q0 36 -26 56t-74 20q-37 0 -60.5 -12t-23.5 -31q0 -8 3.5 -15.5t7 -14.5t7 -14.5t3.5 -16.5q0 -17 -15 -29.5t-32 -12.5q-19 0 -31.5 15t-12.5 38
q0 24 12.5 44.5t35 35.5t53 23.5t66.5 8.5q38 0 70 -11t55.5 -30t36.5 -46t13 -58v-219q0 -44 16 -61t62 -18v-15z" />
    <glyph glyph-name="b" unicode="b" horiz-adv-x="556" 
d="M319 1q36 0 57 19.5t32.5 51.5t14.5 73t3 85q0 103 -24 151t-76 48q-65 0 -100.5 -52.5t-35.5 -147.5q0 -106 34.5 -167t94.5 -61zM28 0v16h72v671h-73v16h160v-357q18 28 34.5 47.5t33 31.5t34.5 17t40 5q38 0 73 -19.5t61.5 -52t42 -75.5t15.5 -90q0 -45 -15.5 -86
t-42.5 -71.5t-62.5 -48.5t-74.5 -18q-50 0 -80.5 25.5t-55.5 89.5v-101h-162z" />
    <glyph glyph-name="c" unicode="c" horiz-adv-x="445" 
d="M415 156q-25 -171 -163 -171q-46 0 -85.5 17t-68 46.5t-45 70.5t-16.5 89q0 49 17 92.5t47 76t69.5 51.5t84.5 19q30 0 58 -9.5t49.5 -25.5t34 -37t12.5 -43q0 -25 -13 -39.5t-33 -14.5q-18 0 -32 13t-14 30t8 32t8 32q0 20 -21.5 33.5t-52.5 13.5q-127 0 -127 -209
q0 -60 7 -101.5t22.5 -68t40 -38.5t59.5 -12q56 0 89.5 36.5t51.5 117.5z" />
    <glyph glyph-name="d" unicode="d" horiz-adv-x="550" 
d="M238 4q28 0 51.5 16.5t40.5 46t26.5 70.5t9.5 90q0 43 -10 80t-27 63.5t-41 41.5t-52 15q-54 0 -79 -52t-25 -168q0 -203 106 -203zM359 0v85q-32 -54 -62.5 -77t-69.5 -23q-37 0 -71.5 19t-61 51t-42.5 73t-16 86q0 47 14.5 89t39.5 73.5t58 50t71 18.5q21 0 38.5 -3.5
t34 -12.5t33.5 -23.5t37 -36.5v318h-75v16h162v-687h80v-16h-170z" />
    <glyph glyph-name="e" unicode="e" horiz-adv-x="445" 
d="M322 255q0 51 -4.5 84.5t-15.5 54t-29.5 29t-46.5 8.5q-98 0 -98 -176h194zM129 240q-1 -14 -1 -27.5v-24.5q0 -186 124 -186q119 0 146 134h17q-13 -72 -54.5 -111.5t-112.5 -39.5q-45 0 -83.5 17.5t-67 48t-44.5 72t-16 89.5q0 47 15.5 89.5t42.5 75t62.5 51.5t74.5 19
q38 0 71.5 -16.5t58 -44.5t39 -65.5t14.5 -80.5h-286z" />
    <glyph glyph-name="f" unicode="f" horiz-adv-x="333" 
d="M27 0l1 16h69v396h-70v16h68v54q0 49 12 92.5t33.5 75t50 50t61.5 18.5q23 0 44 -8t37 -22t25.5 -32t9.5 -37q0 -24 -13.5 -40.5t-33.5 -16.5q-17 0 -32 13t-15 32q0 16 7.5 30.5t7.5 31.5q0 13 -10.5 22t-26.5 9q-29 0 -49 -25.5t-20 -64.5v-182h89v-16h-89v-395h95v-17
h-251z" />
    <glyph glyph-name="g" unicode="g" 
d="M235 154q24 0 40.5 7.5t26 26t13.5 49.5t4 77q0 57 -21.5 87t-62.5 30q-48 0 -68 -31t-20 -106t20 -107.5t68 -32.5zM235 -227q75 0 121 31.5t46 83.5q0 44 -33.5 61.5t-116.5 17.5q-85 0 -125.5 -21.5t-40.5 -67.5q0 -105 149 -105zM130 -37q-52 22 -74 46.5t-22 61.5
q0 42 22 66t73 38q-17 16 -27.5 29t-16.5 25.5t-8.5 26.5t-2.5 32q0 35 12 64t33 50t50.5 33t65.5 12q19 0 34.5 -2.5t29.5 -8.5t29 -16t33 -26q19 26 33.5 36t31.5 10q24 0 40.5 -17.5t16.5 -43.5q0 -20 -10.5 -32.5t-25.5 -12.5q-12 0 -20.5 8t-8.5 19q0 12 7.5 23t7.5 24
q0 10 -14 10t-28 -13.5t-18 -30.5q8 -21 13.5 -42t5.5 -47q0 -32 -12 -59t-33 -47t-50 -31t-63 -11q-19 0 -61 12q-12 3 -23 5t-19 2q-28 0 -48.5 -16t-20.5 -38q0 -30 22 -42t78 -12q24 0 48 2t52 2q88 0 127 -31.5t39 -100.5q0 -76 -51.5 -119.5t-142.5 -43.5q-44 0 -82 9
t-65.5 24.5t-43 37t-15.5 47.5q0 32 22 51t80 37z" />
    <glyph glyph-name="h" unicode="h" horiz-adv-x="556" 
d="M303 0v16h74v325q0 41 -18 65t-48 24q-26 0 -49 -13.5t-41 -36.5t-28.5 -53t-10.5 -63v-248h72v-16h-229v16h67v671h-67v16h154l1 -354q32 55 64.5 77.5t80.5 22.5q31 0 57 -11t45 -31t29.5 -47.5t10.5 -59.5v-284h66v-16h-230z" />
    <glyph glyph-name="i" unicode="i" horiz-adv-x="278" 
d="M139 585q-26 0 -44 17.5t-18 41.5t17 41.5t42 17.5t42 -16.5t17 -39.5q0 -26 -16.5 -44t-39.5 -18zM25 0l1 16h71v397h-66v17h153v-414h69v-16h-228z" />
    <glyph glyph-name="j" unicode="j" horiz-adv-x="278" 
d="M136 582q-25 0 -42.5 17.5t-17.5 43.5q0 25 18 42.5t44 17.5q25 0 42 -17t17 -40q0 -27 -17.5 -45.5t-43.5 -18.5zM14 414v16h172v-482q0 -46 -12.5 -85.5t-34 -68.5t-50.5 -45.5t-63 -16.5q-21 0 -40.5 7t-34.5 19t-24.5 27.5t-9.5 31.5q0 19 15 34t34 15q17 0 28 -12.5
t11 -32.5q0 -11 -4.5 -21t-4.5 -22q0 -11 9 -18.5t32 -7.5q38 0 50 27.5t12 91.5v543h-85z" />
    <glyph glyph-name="k" unicode="k" horiz-adv-x="536" 
d="M304 0v16h70l-127 200l-54 -60v-140h69v-16h-241v16h82v671h-86v16h176v-519q19 19 37 41t38 49t43 61.5t53 78.5h-85v16h184v-16h-77l-81 -122l173 -276h58v-16h-232z" />
    <glyph glyph-name="l" unicode="l" horiz-adv-x="278" 
d="M184 16h85v-16h-247v16h72v673h-72v14h162v-687z" />
    <glyph glyph-name="m" unicode="m" horiz-adv-x="834" 
d="M581 0v16h79v272q0 139 -68 139q-26 0 -49.5 -16.5t-41 -45t-27.5 -66t-10 -79.5v-204h73v-16h-242v16h82v261q0 78 -15 113.5t-48 35.5q-27 0 -51 -18.5t-43 -50t-30 -72.5t-11 -86v-183h64v-16h-210v16h59v400h-66v16h156v-102q18 34 33.5 56t32 35.5t35 19t41.5 5.5
q58 0 89.5 -28t47.5 -93q32 67 64.5 95t80.5 28q64 0 101.5 -40t37.5 -110v-282h62v-16h-226z" />
    <glyph glyph-name="n" unicode="n" horiz-adv-x="556" 
d="M303 16h73v318q0 96 -67 96q-27 0 -51 -13.5t-42 -37t-28 -55t-10 -68.5v-240h76v-16h-233v16h71v399h-71v16h157v-78q33 51 67.5 73.5t81.5 22.5q29 0 54 -10.5t43 -28.5t28.5 -42.5t10.5 -52.5v-299h72v-16h-232v16z" />
    <glyph glyph-name="o" unicode="o" 
d="M250 2q69 0 97.5 51.5t28.5 160.5q0 115 -30 166t-96 51t-96 -51t-30 -166q0 -109 28.5 -160.5t97.5 -51.5zM250 447q45 0 84.5 -18.5t69.5 -50.5t47.5 -74.5t17.5 -89.5q0 -45 -18 -86.5t-48 -73t-70 -50t-83 -18.5q-44 0 -83.5 18.5t-69.5 50t-48 73t-18 86.5
q0 47 17.5 89.5t47.5 74.5t69.5 50.5t84.5 18.5z" />
    <glyph glyph-name="p" unicode="p" horiz-adv-x="556" 
d="M324 3q54 0 79 52t25 161q0 212 -106 212q-66 0 -101 -54.5t-35 -157.5q0 -45 10.5 -84t29 -67.5t44 -45t54.5 -16.5zM27 -262v16h75v662h-75v14h162v-70q38 50 67.5 69.5t67.5 19.5q40 0 76 -19.5t63 -53t43 -77.5t16 -92q0 -45 -15 -85.5t-41 -70.5t-60.5 -48
t-72.5 -18q-20 0 -37.5 5t-34.5 16.5t-34.5 30t-37.5 45.5v-328h85v-16h-247z" />
    <glyph glyph-name="q" unicode="q" horiz-adv-x="556" 
d="M232 3q31 0 56 15.5t43 44t27.5 68.5t9.5 89q0 97 -36 154.5t-97 57.5q-57 0 -82 -53t-25 -176q0 -200 104 -200zM527 -262h-252v16h90v334q-17 -29 -32.5 -48.5t-31.5 -31.5t-33.5 -17.5t-39.5 -5.5q-40 0 -75 17.5t-61.5 48t-41.5 71t-15 85.5q0 48 16 91.5t42.5 77
t61.5 53t74 19.5q80 0 133 -90v75h167v-16h-77v-663h75v-16z" />
    <glyph glyph-name="r" unicode="r" horiz-adv-x="389" 
d="M19 0v16h73v399h-75v16h158v-95q19 58 48.5 84.5t62.5 26.5t56 -22t23 -54q0 -25 -11.5 -40t-31.5 -15q-17 0 -28.5 11t-11.5 27q0 11 3.5 21.5t3.5 24.5q0 23 -24 23q-8 0 -19 -5.5t-19 -14.5q-10 -11 -18.5 -28.5t-15 -38.5t-10.5 -43t-4 -42v-235h80v-16h-240z" />
    <glyph glyph-name="s" unicode="s" horiz-adv-x="389" 
d="M42 1q2 21 2 40v38q0 22 -1 43.5t-3 45.5h13q22 -88 62 -127t106 -39q44 0 71 20.5t27 54.5q0 19 -6 33t-22 26t-42.5 23t-67.5 25q-74 25 -107 57.5t-33 80.5q0 26 9.5 49t26 40t38.5 27t47 10q51 0 113 -41q8 -4 10 -4q7 0 13 9.5t9 25.5l12 1q0 -37 0.5 -73.5
t3.5 -74.5h-17q-16 66 -53 103.5t-88 37.5q-18 0 -34.5 -6t-28.5 -15.5t-19.5 -22.5t-7.5 -27q0 -13 5.5 -24t19.5 -21.5t38 -21.5t61 -23q45 -14 75.5 -29t49.5 -32.5t27.5 -38.5t8.5 -47q0 -30 -11 -55t-30 -44t-45 -29.5t-56 -10.5q-26 0 -53.5 9t-51.5 26q-25 16 -31 16
q-10 0 -16.5 -10t-7.5 -25h-16z" />
    <glyph glyph-name="t" unicode="t" horiz-adv-x="389" 
d="M365 164q0 -93 -29.5 -136t-92.5 -43q-60 0 -93.5 39.5t-33.5 111.5v278h-92v16h92v131q22 7 42.5 16t40.5 23l6 -2v-168h112v-16h-112v-342q0 -63 56 -63q45 0 66.5 36.5t23.5 118.5h14z" />
    <glyph glyph-name="u" unicode="u" horiz-adv-x="556" 
d="M369 0v68q-14 -19 -27.5 -34.5t-29.5 -27t-35.5 -17.5t-44.5 -6q-40 0 -67.5 12.5t-45 34t-25.5 50t-8 59.5v275h-60v16h147l-1 -334q0 -45 18.5 -69t53.5 -24q27 0 50.5 13t40.5 36t27 53.5t10 66.5v242h-81v16h167v-414h72v-16h-161z" />
    <glyph glyph-name="v" unicode="v" horiz-adv-x="546" 
d="M512 414h-81l-154 -425l-17 -4l-168 429h-77v16h157l128 -314l107 298h-76v16h181v-16z" />
    <glyph glyph-name="w" unicode="w" horiz-adv-x="722" 
d="M632 414l-138 -422l-19 -10l-113 324l-107 -319l-20 -5l-151 432h-67v16h154l109 -307l72 214l-27 77h-80v16h239v-16h-67l101 -291l91 291h-73v16h162v-16h-66z" />
    <glyph glyph-name="x" unicode="x" 
d="M477 0h-224v16h71l-94 164l-119 -164h74v-16h-160v16h59l134 181l-124 217h-71v16h157l92 -159l101 143h-71v16h166l-1 -16h-72l-110 -160l137 -238h54z" />
    <glyph glyph-name="y" unicode="y" horiz-adv-x="546" 
d="M522 414h-73l-162 -574q-13 -47 -42.5 -74.5t-67.5 -27.5q-18 0 -35 7.5t-30 20t-21 29t-8 33.5q0 20 13 35t32 15q16 0 29 -13t13 -29q0 -14 -5.5 -27t-5.5 -28q0 -23 20 -23q23 0 39 8.5t30.5 33.5t28.5 71t34 122l-207 421h-82v16h169l153 -314l83 298h-77v16h172v-16
z" />
    <glyph glyph-name="z" unicode="z" horiz-adv-x="445" 
d="M26 0v12l268 402h-116q-37 0 -60 -45l-37 -71h-14q5 32 5.5 64t0.5 68h327v-17l-267 -398h125q30 0 49.5 15t33.5 48l37 89l10 3v-170h-362z" />
    <glyph glyph-name="braceleft" unicode="{" horiz-adv-x="300" 
d="M25 232h19q17 0 31.5 8.5t25.5 23t17.5 34t6.5 42.5q0 43 -6.5 74.5t-14 59t-13.5 53.5t-6 57q0 28 13 53.5t35 44.5t52 30t64 11h26v-16h-26q-23 0 -41 -9.5t-31 -25t-20 -35.5t-7 -42q0 -32 6 -58t13.5 -53.5t14 -59t6.5 -74.5q0 -21 -8.5 -41t-23.5 -37t-35 -29.5
t-43 -18.5q23 -6 43 -18.5t35 -29.5t23.5 -37t8.5 -41q0 -43 -6.5 -74.5t-14 -59t-13.5 -54t-6 -57.5q0 -22 7 -42t20 -35.5t31 -25t41 -9.5h26v-16h-26q-34 0 -64 11t-52 30t-35 44t-13 54q0 31 6 57t13.5 53.5t14 59t6.5 74.5q0 22 -6.5 42t-17.5 34.5t-25.5 23t-31.5 8.5
h-19v16z" />
    <glyph glyph-name="bar" unicode="|" horiz-adv-x="250" 
d="M110 -250v1000h30v-1000h-30z" />
    <glyph glyph-name="braceright" unicode="}" horiz-adv-x="300" 
d="M275 216h-19q-17 0 -31.5 -8.5t-25.5 -23t-17.5 -34.5t-6.5 -42q0 -43 6 -74.5t13.5 -59t14 -53.5t6.5 -57q0 -29 -13 -54t-35 -44t-52 -30t-64 -11h-26v16h26q22 0 40.5 9.5t31.5 25t20 35.5t7 42q0 31 -6.5 57.5t-14 54t-13.5 59t-6 74.5q0 21 8.5 41t23.5 37t35 29.5
t43 18.5q-23 6 -43 18.5t-35 29.5t-23.5 37t-8.5 41q0 43 6 74.5t13.5 59t14 53.5t6.5 58q0 22 -7 42t-20 35.5t-31.5 25t-40.5 9.5h-26v16h26q34 0 64 -11t52 -30t35 -44.5t13 -53.5q0 -31 -6.5 -57t-14 -53.5t-13.5 -59t-6 -74.5q0 -23 6.5 -42.5t17.5 -34t25.5 -23
t31.5 -8.5h19v-16z" />
    <glyph glyph-name="asciitilde" unicode="~" 
d="M440 308q-12 -14 -32 -29t-54 -15q-30 0 -57 12.5t-52.5 27t-50 27t-48.5 12.5q-26 0 -40 -10.5t-26 -24.5l-20 19q12 14 32 29t54 15q30 0 57 -12.5t52.5 -27t50 -27t48.5 -12.5q26 0 40 10.5t26 24.5z" />
    <glyph glyph-name="uni00A0" unicode="&#xa0;" horiz-adv-x="0" 
 />
    <glyph glyph-name="exclamdown" unicode="&#xa1;" horiz-adv-x="250" 
d="M180 412q0 -23 -16 -39t-39 -16t-39 16t-16 39t16 39t39 16t39 -16t16 -39zM125 -250q-24 0 -39.5 19t-15.5 44q0 19 7 71.5t15.5 122t15.5 147.5t7 149h20q0 -71 7 -149t15.5 -147.5t15.5 -122t7 -71.5q0 -25 -15.5 -44t-39.5 -19z" />
    <glyph glyph-name="cent" unicode="&#xa2;" 
d="M152 333q0 -112 25.5 -162.5t85.5 -56.5v427q-111 -13 -111 -208zM435 266q-26 -168 -156 -171v-205h-16v205q-45 1 -82.5 18.5t-65 47.5t-43 70t-15.5 87t16 89t44 74.5t65.5 52t80.5 22.5v150h16v-149q30 -1 57 -10.5t47.5 -25.5t33 -36.5t12.5 -42.5q0 -25 -13 -39.5
t-33 -14.5q-18 0 -32 13t-14 30t8 32t8 32q0 20 -21.5 33.5t-52.5 13.5v-429q57 0 91 36.5t52 117.5z" />
    <glyph glyph-name="sterling" unicode="&#xa3;" 
d="M231 55q-27 20 -55.5 34t-63.5 14q-10 0 -21.5 -2t-21 -7.5t-15.5 -14t-6 -20.5q0 -15 8 -26.5t20.5 -19.5t27 -12t26.5 -4q20 0 34.5 2.5t25.5 9.5t20.5 18t20.5 28zM251 38q-26 -26 -51.5 -42t-63.5 -16q-20 0 -39 6t-34 17.5t-24 28.5t-9 39q0 19 9 37t23.5 32
t33 22.5t37.5 8.5q33 0 59.5 -7t56.5 -21q-23 55 -60.5 99t-79.5 86h-120v16h104q-20 37 -32.5 69t-12.5 70q0 42 21.5 76t55 59t73.5 38.5t78 13.5q28 0 58 -8.5t55 -25.5t41.5 -41.5t16.5 -56.5q0 -19 -11 -33.5t-31 -14.5q-23 0 -39 16t-16 39q0 19 8.5 28.5t8.5 17.5
q0 15 -11 26.5t-26 19t-32 11t-29 3.5q-35 0 -60 -16.5t-41 -42.5t-23.5 -57t-7.5 -61q0 -19 2 -35t5.5 -31t8.5 -30.5t12 -33.5h141v-16h-132q14 -26 29 -48.5t28.5 -45t24.5 -47t16 -53.5q18 -9 42.5 -25t49.5 -32t48 -28t38 -12q10 0 20 3.5t17.5 12.5t12 24.5t4.5 39.5
h16v-7q0 -26 -8.5 -48.5t-25 -39t-40.5 -26.5t-55 -10q-37 0 -73.5 16t-66.5 36z" />
    <glyph glyph-name="currency" unicode="&#xa4;" 
d="M87 317q0 30 10 57t28 48l-73 74l19 19l73 -74q21 19 48 29.5t58 10.5q30 0 57 -10.5t49 -28.5l73 73l19 -19l-73 -73q18 -21 28.5 -48.5t10.5 -57.5q0 -31 -10.5 -58t-29.5 -48l74 -73l-19 -19l-74 73q-21 -18 -48 -28t-57 -10t-57 10t-49 28l-73 -73l-19 19l73 74
q-38 44 -38 105zM114 317q0 -28 10.5 -53t29 -43.5t43.5 -29t53 -10.5t53 10.5t44 29t29.5 43.5t10.5 53t-10.5 53t-29.5 44t-44 29.5t-53 10.5t-53 -10.5t-43.5 -29.5t-29 -44t-10.5 -53z" />
    <glyph glyph-name="yen" unicode="&#xa5;" 
d="M315 200v-184h103v-16h-314v15h102v185h-125v15h125v85h-125v15h117l-202 320h-56v15h254v-15h-74l184 -298l163 298h-73v15h154v-15h-57l-176 -313v-7h125v-15h-125v-85h125v-15h-125z" />
    <glyph glyph-name="brokenbar" unicode="&#xa6;" horiz-adv-x="250" 
d="M110 -250v485h30v-485h-30zM140 265h-30v485h30v-485z" />
    <glyph glyph-name="section" unicode="&#xa7;" 
d="M246 162q22 0 44 5t40 16.5t29.5 29t11.5 43.5q0 25 -14 43.5t-34.5 30.5t-45 17.5t-45.5 5.5q-18 0 -38 -4.5t-37 -14t-28 -25t-11 -36.5q0 -20 12.5 -40t32 -36t41.5 -25.5t42 -9.5zM283 367q-29 19 -56.5 37.5t-56.5 36.5q-21 13 -40 26t-33.5 29t-23 35.5t-8.5 46.5
q0 36 15 62.5t39.5 44t55.5 25.5t63 8q21 0 52 -7t59 -21t48 -34.5t20 -47.5q0 -18 -12.5 -30.5t-30.5 -12.5q-19 0 -33.5 14.5t-14.5 33.5q0 11 7.5 18.5t7.5 17.5q0 14 -12.5 24t-30 16t-35 8.5t-27.5 2.5q-14 0 -35 -5t-40.5 -14t-33.5 -22t-14 -30q0 -33 23.5 -59
t58 -49.5t75.5 -47.5t75.5 -51.5t58 -61t23.5 -77.5q0 -36 -14 -61.5t-37.5 -42.5t-53.5 -26.5t-61 -12.5q27 -20 57 -37.5t56 -38.5t43 -48.5t17 -67.5q0 -38 -20 -66.5t-50.5 -48t-66.5 -29.5t-68 -10q-21 0 -46.5 6t-48 18t-37.5 30.5t-15 44.5q0 18 13.5 30.5t31.5 12.5
q15 0 29.5 -10t14.5 -27q0 -8 -2.5 -15t-2.5 -15q0 -17 8 -27.5t21 -16.5t27.5 -8t28.5 -2q20 0 40.5 6t37 17.5t27 28.5t10.5 40q0 38 -22 66t-54.5 50.5t-71 43t-71 44t-54.5 53t-22 70.5q0 32 13.5 58t35.5 44t50.5 28t58.5 10q14 0 27 -2t27 -5z" />
    <glyph glyph-name="dieresis" unicode="&#xa8;" horiz-adv-x="575" 
d="M290 643q0 26 17 43t43 17t43 -17t17 -43t-17 -43t-43 -17t-43 17t-17 43zM90 643q0 26 17 43t43 17t43 -17t17 -43t-17 -43t-43 -17t-43 17t-17 43z" />
    <glyph glyph-name="copyright" unicode="&#xa9;" horiz-adv-x="820" 
d="M410 -1q60 0 113.5 19.5t94.5 60.5t65 104.5t24 151.5q0 96 -23.5 164.5t-64 113t-94.5 65t-115 20.5t-115 -20.5t-94.5 -65t-64 -113t-23.5 -164.5q0 -88 24 -151.5t65 -104.5t94.5 -60.5t113.5 -19.5zM410 716q73 0 139.5 -29.5t116.5 -80.5t79.5 -119.5t29.5 -146.5
q0 -74 -29.5 -139.5t-79.5 -114t-116.5 -76.5t-139.5 -28q-74 0 -140 28t-116 76.5t-79.5 114t-29.5 139.5q0 78 29.5 146.5t79.5 119.5t116 80.5t140 29.5zM573 584q-2 -22 -3.5 -40.5t-1.5 -35.5q0 -20 1.5 -35.5t3.5 -28.5q0 -2 0.5 -6.5t0.5 -6.5l-15 -1q-2 5 -2.5 7.5
t-3.5 7.5l-3 10q-12 29 -19.5 44t-19.5 29q-43 46 -101 46q-41 0 -68 -16.5t-43.5 -47.5t-23.5 -75.5t-7 -101.5q0 -117 32 -167.5t105 -50.5q30 0 59.5 11.5t51.5 30.5q20 16 31.5 36t27.5 59l13 -1q-2 -19 -2.5 -31t-1 -19.5t-0.5 -11v-6.5q0 -17 1 -31t3 -31l-16 -1
q-8 15 -13 19.5t-13 4.5q-5 0 -11 -2t-18 -9q-28 -17 -57.5 -26t-58.5 -9q-44 0 -83.5 19.5t-69.5 53t-47.5 77.5t-17.5 93q0 51 18 96.5t49 80t72 54.5t87 20q22 0 42.5 -6t51.5 -21q9 -4 16.5 -7t12.5 -3q8 0 15 9t10 20h16z" />
    <glyph glyph-name="ordfeminine" unicode="&#xaa;" horiz-adv-x="350" 
d="M43 325v25h262v-25h-262zM207 543q-2 -1 -4 -1v4zM138 408q12 0 23.5 6t21 15.5t15 21.5t5.5 25v66q-26 -7 -39.5 -10t-25.5 -5q-22 -5 -31.5 -19.5t-9.5 -43.5q0 -26 11 -41t30 -15zM309 391q-8 -2 -12.5 -2h-9.5q-24 0 -40 9t-36 35q-14 -14 -24.5 -23t-19.5 -13.5
t-18.5 -6t-21.5 -1.5q-38 0 -62.5 21.5t-24.5 56.5q0 56 71 71l58 11q11 2 18 4t16 6v53q0 42 -57 42q-20 0 -33.5 -6t-13.5 -16q0 -5 2 -9t4 -9t4.5 -8.5t2.5 -10.5q0 -11 -10.5 -19.5t-21.5 -8.5q-13 0 -21 9.5t-8 25.5q0 30 29 50t74 20q48 0 78 -25.5t30 -64.5v-132
q0 -25 9.5 -34t37.5 -10v-15z" />
    <glyph glyph-name="guillemotleft" unicode="&#xab;" horiz-adv-x="400" 
d="M343 96q7 -6 11.5 -13.5t4.5 -15.5q0 -15 -11 -24.5t-23 -9.5q-14 0 -21.5 7t-12.5 15l-104 157v16l104 157q5 8 12.5 15t21.5 7q12 0 23 -9.5t11 -24.5q0 -8 -4.5 -15.5t-11.5 -13.5l-138 -124zM193 96q7 -6 11.5 -13.5t4.5 -15.5q0 -15 -11 -24.5t-23 -9.5
q-14 0 -21.5 7t-12.5 15l-104 157v16l104 157q5 8 12.5 15t21.5 7q12 0 23 -9.5t11 -24.5q0 -8 -4.5 -15.5t-11.5 -13.5l-138 -124z" />
    <glyph glyph-name="logicalnot" unicode="&#xac;" 
d="M430 331v-194h-27v167h-333v27h360z" />
    <glyph glyph-name="uni00AD" unicode="&#xad;" horiz-adv-x="239" 
d="M210 270v-71h-181v71h181z" />
    <glyph glyph-name="registered" unicode="&#xae;" horiz-adv-x="560" 
d="M297 545q23 0 36 14.5t13 39.5q0 28 -17 44.5t-46 16.5h-38v-115h52zM281 303q45 0 84.5 17.5t64.5 55.5q-18 0 -33 3t-26.5 11t-18 22t-6.5 37v40q0 20 -12.5 29.5t-35.5 9.5h-53v-136h44v-16h-135v16h34v266h-32v17h138q54 0 81 -22t27 -51q0 -20 -15.5 -37t-41.5 -27
q23 -6 40 -20t17 -46v-45q0 -20 8 -27t31 -8q28 50 28 124q0 61 -15 104.5t-40.5 71.5t-60 41t-72.5 13t-72 -13t-59.5 -41t-40.5 -71.5t-15 -104.5q0 -56 15.5 -96t41 -66t59.5 -38.5t71 -12.5zM281 763q48 0 91 -19t75.5 -52t51.5 -77.5t19 -95.5q0 -48 -19 -90.5
t-51.5 -74t-75.5 -50t-91 -18.5t-90.5 18.5t-75 50t-51.5 74t-19 90.5q0 51 19 95.5t51.5 77.5t75 52t90.5 19z" />
    <glyph glyph-name="macron" unicode="&#xaf;" 
d="M133 610v30h238v-30h-238z" />
    <glyph glyph-name="degree" unicode="&#xb0;" horiz-adv-x="249" 
d="M30 626q0 -40 27 -67t67 -27t67.5 27t27.5 67t-27.5 67.5t-67.5 27.5t-67 -27.5t-27 -67.5zM11 626q0 23 9 44t24 36.5t35.5 24.5t44.5 9q23 0 44 -9t36.5 -24.5t24.5 -36.5t9 -44q0 -24 -9 -44.5t-24.5 -35.5t-36.5 -24t-44 -9q-24 0 -44.5 9t-35.5 24t-24 35.5t-9 44.5
z" />
    <glyph glyph-name="plusminus" unicode="&#xb1;" 
d="M70 4v27h360v-27h-360zM263 331h167v-27h-167v-167h-27v167h-166v27h166v166h27v-166z" />
    <glyph glyph-name="uni00B2" unicode="&#xb2;" horiz-adv-x="310" 
d="M24 440v41l84 77q48 45 73.5 83.5t25.5 80.5t-21 66t-57 24q-26 0 -47.5 -16t-21.5 -36q0 -11 4 -11h4q1 0 1 0.5t2 0.5q10 3 21 3q14 0 23 -9.5t9 -23.5q0 -16 -11 -27t-26 -11q-21 0 -34.5 17t-13.5 42q0 20 9.5 38.5t25.5 32t38 21.5t46 8q25 0 46 -7.5t37 -21
t25 -31.5t9 -39q0 -25 -11 -46.5t-37 -50.5q-35 -36 -74 -71.5t-78 -70.5h178l7 53h13l-9 -116h-240z" />
    <glyph glyph-name="uni00B3" unicode="&#xb3;" horiz-adv-x="310" 
d="M252 752q0 -32 -21.5 -58.5t-63.5 -39.5q55 -13 80.5 -39t25.5 -68q0 -51 -38.5 -83t-98.5 -32q-23 0 -43.5 6t-35.5 17t-24 25t-9 31t11.5 29.5t27.5 12.5q15 0 25.5 -11t10.5 -25q0 -11 -5 -19.5t-22 -20.5q-1 -1 -1 -3q0 -7 16 -16.5t39 -9.5q34 0 54.5 27.5
t20.5 74.5q0 46 -22 70.5t-63 24.5q-9 0 -14 -1q-8 -2 -17 -2q-16 0 -16 11q0 5 5 9.5t15 4.5h8t7 -1q10 -2 18 -2q29 0 44.5 21t15.5 63q0 35 -16 55t-45 20q-18 0 -29.5 -6t-11.5 -15q0 -1 2 -3q17 -12 21.5 -19t4.5 -18q0 -15 -9 -24t-23 -9q-37 0 -37 41q0 32 26 51
t70 19q51 0 84 -25t33 -63z" />
    <glyph glyph-name="acute" unicode="&#xb4;" 
d="M404 678q0 -11 -5 -21.5t-16.5 -21.5t-30.5 -23t-47 -27q-15 -9 -25.5 -15t-19 -12t-16.5 -12.5t-19 -15.5l-12 10q12 16 20.5 28t15 22t11.5 20t11 21q8 15 16 31.5t17.5 30t21.5 22t29 8.5q21 0 35 -12.5t14 -32.5z" />
    <glyph glyph-name="mu" unicode="&#xb5;" horiz-adv-x="555" 
d="M86 414l3 16h149l-85 -338q-2 -5 -2 -9v-9q0 -30 16 -48t42 -18q24 0 51.5 19t53 51t46 73t30.5 85l42 178h-76l1 16h158l-88 -344q-3 -9 -4 -17.5t-1 -16.5q0 -19 8.5 -31.5t22.5 -12.5q10 0 21.5 9t22.5 24t20.5 35.5t15.5 44.5h11q-18 -71 -43.5 -101.5t-65.5 -30.5
q-18 0 -31.5 6.5t-22.5 21.5t-14.5 40t-9.5 62q-22 -36 -42 -60.5t-39.5 -40.5t-40 -23t-43.5 -7q-35 0 -61.5 17t-37.5 45q-10 -24 -15.5 -46t-5.5 -38q0 -18 6 -42.5t19 -53.5q12 -28 18 -49.5t6 -32.5q0 -19 -8 -30t-22 -11q-25 0 -36.5 27t-11.5 85q0 61 12 115.5
t32 99.5q-1 3 -1 6.5v6.5q0 28 11 75l59 252h-70z" />
    <glyph glyph-name="paragraph" unicode="&#xb6;" horiz-adv-x="432" 
d="M324 410h-62v-394h62v394zM261 0q-50 0 -92 16t-73 45t-48 68t-17 86q0 48 16.5 87t47 66.5t73.5 42.5t96 15h137v-16h-56l-1 -394h57v-16h-140z" />
    <glyph glyph-name="periodcentered" unicode="&#xb7;" horiz-adv-x="250" 
d="M70 350q0 23 16 39t39 16t39 -16t16 -39t-16 -39t-39 -16t-39 16t-16 39z" />
    <glyph glyph-name="cedilla" unicode="&#xb8;" 
d="M348 -110q0 -26 -31 -44t-77 -18q-14 0 -27.5 1.5t-28.5 5t-32.5 9.5t-41.5 15l7 20q38 -15 60 -21t42 -6q40 0 40 27q0 12 -12.5 22t-28.5 10q-5 0 -8.5 -0.5t-18.5 -2.5l52 77l29 2l-24 -38q54 -6 77 -19.5t23 -39.5z" />
    <glyph glyph-name="uni00B9" unicode="&#xb9;" horiz-adv-x="310" 
d="M123 457v352h-73v16h17q15 0 40 3t53 9l27 -1v-378h77v-18h-209v18z" />
    <glyph glyph-name="ordmasculine" unicode="&#xba;" horiz-adv-x="350" 
d="M44 325v25h262v-25h-262zM175 404q40 0 56.5 30.5t16.5 93.5q0 68 -17.5 98t-55.5 30t-55.5 -30t-17.5 -98q0 -63 16.5 -93.5t56.5 -30.5zM175 671q27 0 51.5 -11.5t43 -31t29 -45.5t10.5 -55q0 -28 -11 -53t-29 -44t-42.5 -30.5t-51.5 -11.5t-51.5 11.5t-42.5 30.5
t-29 44t-11 53q0 29 10.5 55t29 45.5t43 31t51.5 11.5z" />
    <glyph glyph-name="guillemotright" unicode="&#xbb;" horiz-adv-x="400" 
d="M345 220l-138 124q-7 6 -11.5 13.5t-4.5 15.5q0 15 11 24.5t23 9.5q14 0 21.5 -7t12.5 -15l104 -157v-16l-104 -157q-5 -8 -12.5 -15t-21.5 -7q-12 0 -23 9.5t-11 24.5q0 8 4.5 15.5t11.5 13.5zM195 220l-138 124q-7 6 -11.5 13.5t-4.5 15.5q0 15 11 24.5t23 9.5
q14 0 21.5 -7t12.5 -15l104 -157v-16l-104 -157q-5 -8 -12.5 -15t-21.5 -7q-12 0 -23 9.5t-11 24.5q0 8 4.5 15.5t11.5 13.5z" />
    <glyph glyph-name="onequarter" unicode="&#xbc;" horiz-adv-x="700" 
d="M81 -38l519 742l19 -10l-520 -742zM544 322l-121 -201h121v201zM544 18v85h-142v15l166 283h42v-280h49v51h17v-113h-17v44h-49v-85h50v-18h-166l1 18h49zM123 277v352h-73v16h17q15 0 40 3t53 9l27 -1v-378h77v-18h-209v18z" />
    <glyph glyph-name="onehalf" unicode="&#xbd;" horiz-adv-x="700" 
d="M81 -38l519 742l19 -10l-520 -742zM414 0v41l84 77q48 45 73.5 83.5t25.5 80.5t-21 66t-57 24q-26 0 -47.5 -16t-21.5 -36q0 -11 4 -11h4q1 0 1 0.5t2 0.5q10 3 21 3q14 0 23 -9.5t9 -23.5q0 -16 -11 -27t-26 -11q-21 0 -34.5 17t-13.5 42q0 20 9.5 38.5t25.5 32t38 21.5
t46 8q25 0 46 -7.5t37 -21t25 -31.5t9 -39q0 -25 -11 -46.5t-37 -50.5q-35 -36 -74 -71.5t-78 -70.5h178l7 53h13l-9 -116h-240zM123 277v352h-73v16h17q15 0 40 3t53 9l27 -1v-378h77v-18h-209v18z" />
    <glyph glyph-name="threequarters" unicode="&#xbe;" horiz-adv-x="700" 
d="M81 -38l519 742l19 -10l-520 -742zM544 322l-121 -201h121v201zM544 18v85h-142v15l166 283h42v-280h49v51h17v-113h-17v44h-49v-85h50v-18h-166l1 18h49zM252 572q0 -32 -21.5 -58.5t-63.5 -39.5q55 -13 80.5 -39t25.5 -68q0 -51 -38.5 -83t-98.5 -32q-23 0 -43.5 6
t-35.5 17t-24 25t-9 31t11.5 29.5t27.5 12.5q15 0 25.5 -11t10.5 -25q0 -11 -5 -19.5t-22 -20.5q-1 -1 -1 -3q0 -7 16 -16.5t39 -9.5q34 0 54.5 27.5t20.5 74.5q0 46 -22 70.5t-63 24.5q-9 0 -14 -1q-8 -2 -17 -2q-16 0 -16 11q0 5 5 9.5t15 4.5h8t7 -1q10 -2 18 -2
q29 0 44.5 21t15.5 63q0 35 -16 55t-45 20q-18 0 -29.5 -6t-11.5 -15q0 -1 2 -3q17 -12 21.5 -19t4.5 -18q0 -15 -9 -24t-23 -9q-37 0 -37 41q0 32 26 51t70 19q51 0 84 -25t33 -63z" />
    <glyph glyph-name="questiondown" unicode="&#xbf;" horiz-adv-x="400" 
d="M340 412q0 -23 -16 -39t-39 -16t-39 16t-16 39t16 39t39 16t39 -16t16 -39zM306 44h-19q-14 91 -40 133.5t-69 42.5q-23 0 -36 -21.5t-13 -59.5q0 -41 3.5 -83t9.5 -83t15 -79t20 -70q11 -30 28.5 -46.5t40.5 -16.5q14 0 22 5.5t8 14.5q0 5 -3 8l-23 26q-8 10 -8 23
q0 17 12.5 28t26.5 11q20 0 33 -16.5t13 -41.5q0 -32 -23 -53.5t-56 -21.5q-31 0 -60 22t-63 72q-35 51 -50 102.5t-15 117.5q0 83 30.5 131t84.5 48q38 0 62 -22.5t43 -64.5l-3 156h19z" />
    <glyph glyph-name="Agrave" unicode="&#xc0;" horiz-adv-x="692" 
d="M194 264h186l-109 278zM301 712l17 4l278 -700h89v-16h-304v16h96l-87 224h-203l-64 -224h97v-16h-213v16h92zM237 885q13 0 25 -6t23 -15t22 -19.5t22 -20.5q9 -9 18 -16.5t18.5 -14.5t21.5 -15.5t29 -18.5l-9 -14q-14 5 -23.5 8t-19.5 5.5t-21.5 5t-29.5 5.5
q-40 6 -64.5 13t-38.5 15.5t-19 18.5t-5 23q0 19 15.5 32.5t35.5 13.5z" />
    <glyph glyph-name="Aacute" unicode="&#xc1;" horiz-adv-x="692" 
d="M194 264h186l-109 278zM301 712l17 4l278 -700h89v-16h-304v16h96l-87 224h-203l-64 -224h97v-16h-213v16h92zM423 885q20 0 35.5 -13.5t15.5 -32.5q0 -13 -5 -23t-19 -18.5t-38.5 -15.5t-64.5 -13q-18 -3 -29.5 -5.5t-21.5 -5t-20 -5.5t-23 -8l-9 14q16 10 28.5 18.5
t22 15.5t18.5 14.5t18 16.5q11 10 21.5 20.5t22 19.5t23.5 15t25 6z" />
    <glyph glyph-name="Acircumflex" unicode="&#xc2;" horiz-adv-x="692" 
d="M450 745l-140 68l-140 -68h-30l148 153h44l148 -153h-30zM194 264h186l-109 278zM301 712l17 4l278 -700h89v-16h-304v16h96l-87 224h-203l-64 -224h97v-16h-213v16h92z" />
    <glyph glyph-name="Atilde" unicode="&#xc3;" horiz-adv-x="692" 
d="M194 264h186l-109 278zM301 712l17 4l278 -700h89v-16h-304v16h96l-87 224h-203l-64 -224h97v-16h-213v16h92zM522 843q-14 -18 -29 -36t-31.5 -31.5t-35 -22t-38.5 -8.5q-23 0 -47.5 7.5t-48 16.5t-43.5 16.5t-35 7.5q-18 0 -31.5 -10.5t-30.5 -38.5l-14 6
q26 44 58.5 74.5t76.5 30.5q25 0 49 -8t46 -17.5t41.5 -17.5t35.5 -8t30.5 10.5t34.5 36.5z" />
    <glyph glyph-name="Adieresis" unicode="&#xc4;" horiz-adv-x="692" 
d="M140 824q0 26 17 43t43 17t43 -17t17 -43t-17 -43t-43 -17t-43 17t-17 43zM360 824q0 26 17 43t43 17t43 -17t17 -43t-17 -43t-43 -17t-43 17t-17 43zM194 264h186l-109 278zM301 712l17 4l278 -700h89v-16h-304v16h96l-87 224h-203l-64 -224h97v-16h-213v16h92z" />
    <glyph glyph-name="Aring" unicode="&#xc5;" horiz-adv-x="722" 
d="M259 805q0 -30 20.5 -50.5t50.5 -20.5t51 20.5t21 50.5t-21 51t-51 21t-50.5 -21t-20.5 -51zM214 264h186l-109 278zM236 805q0 19 7.5 36.5t20 30.5t29.5 20.5t37 7.5q19 0 36.5 -7.5t30.5 -20.5t20.5 -30.5t7.5 -36.5q0 -37 -25 -63.5t-60 -30.5l276 -695h89v-16h-304
v16h96l-87 224h-203l-64 -224h97v-16h-213v16h92l202 695q-36 4 -60.5 30.5t-24.5 63.5z" />
    <glyph glyph-name="AE" unicode="&#xc6;" horiz-adv-x="1000" 
d="M472 281v407h-10l-208 -407h218zM112 16h89v-16h-180v16h65l355 672h-96v16h593v-196h-12q-8 88 -62.5 134t-148.5 46h-127v-309h45q142 0 148 142h20q-2 -27 -3.5 -47.5t-2 -36.5t-1 -29.5t-0.5 -26.5q0 -14 1 -41t3 -65l3 -54h-20q-2 69 -40.5 105t-107.5 36h-45v-346
h87q124 0 187 52.5t80 167.5h16v-236h-588v16h102v249h-226z" />
    <glyph glyph-name="Ccedilla" unicode="&#xc7;" horiz-adv-x="712" 
d="M478 -110q0 -26 -31 -44t-77 -18q-14 0 -27.5 1.5t-28.5 5t-32.5 9.5t-41.5 15l7 20q38 -15 60 -21t42 -6q40 0 40 27q0 12 -12.5 22t-28.5 10q-5 0 -8.5 -0.5t-18.5 -2.5l48 72q-65 1 -123 30t-102 78.5t-69.5 115t-25.5 138.5q0 76 27 143.5t73 118.5t107 81t129 30
q31 0 61.5 -9t77.5 -32q14 -7 25.5 -11t19.5 -4q13 0 25.5 13.5t17.5 30.5h14q-4 -33 -5.5 -60t-1.5 -49q0 -37 3 -62.5t6 -48.5l-13 -1q-5 11 -8 19.5t-5 13.5q-9 24 -16 40t-14 28t-14 22t-17 21q-64 73 -155 73q-63 0 -105 -25t-67.5 -72.5t-36 -116t-10.5 -155.5
q0 -90 11.5 -153.5t37 -103.5t65.5 -58.5t97 -18.5q47 0 92.5 17t80.5 47q15 13 26 26t21 29t19.5 36.5t20.5 49.5l10 -1q-2 -29 -3.5 -46t-2 -27t-0.5 -15v-9q0 -23 1.5 -43t4.5 -45l-14 -1q-11 22 -19.5 29t-23.5 7q-9 0 -18.5 -3.5t-27.5 -14.5q-71 -43 -147 -51l-20 -32
q54 -6 77 -19.5t23 -39.5z" />
    <glyph glyph-name="Egrave" unicode="&#xc8;" horiz-adv-x="722" 
d="M287 885q13 0 25 -6t23 -15t22 -19.5t22 -20.5q9 -9 18 -16.5t18.5 -14.5t21.5 -15.5t29 -18.5l-9 -14q-14 5 -23.5 8t-19.5 5.5t-21.5 5t-29.5 5.5q-40 6 -64.5 13t-38.5 15.5t-19 18.5t-5 23q0 19 15.5 32.5t35.5 13.5zM144 687h-101v16h632q-2 -28 -8.5 -54.5
t-6.5 -52.5q0 -20 1 -41.5t3 -44.5h-16q-12 50 -30 84t-45 54.5t-65 29.5t-89 9h-159v-305q62 0 103.5 4.5t66.5 19t36 42t14 74.5h17q-3 -86 -3 -171q0 -69 3 -136l-15 -1q-7 54 -24 84.5t-44.5 45.5t-66 18.5t-87.5 3.5v-350h155q61 0 104.5 15.5t73 43t46.5 65.5t26 83
h14q-2 -35 -3.5 -67.5t-1.5 -64.5q0 -24 1 -45t4 -46h-636v16h101v671z" />
    <glyph glyph-name="Eacute" unicode="&#xc9;" horiz-adv-x="722" 
d="M473 885q20 0 35.5 -13.5t15.5 -32.5q0 -13 -5 -23t-19 -18.5t-38.5 -15.5t-64.5 -13q-18 -3 -29.5 -5.5t-21.5 -5t-20 -5.5t-23 -8l-9 14q16 10 28.5 18.5t22 15.5t18.5 14.5t18 16.5q11 10 21.5 20.5t22 19.5t23.5 15t25 6zM144 687h-101v16h632q-2 -28 -8.5 -54.5
t-6.5 -52.5q0 -20 1 -41.5t3 -44.5h-16q-12 50 -30 84t-45 54.5t-65 29.5t-89 9h-159v-305q62 0 103.5 4.5t66.5 19t36 42t14 74.5h17q-3 -86 -3 -171q0 -69 3 -136l-15 -1q-7 54 -24 84.5t-44.5 45.5t-66 18.5t-87.5 3.5v-350h155q61 0 104.5 15.5t73 43t46.5 65.5t26 83
h14q-2 -35 -3.5 -67.5t-1.5 -64.5q0 -24 1 -45t4 -46h-636v16h101v671z" />
    <glyph glyph-name="Ecircumflex" unicode="&#xca;" horiz-adv-x="722" 
d="M520 745l-140 68l-140 -68h-30l148 153h44l148 -153h-30zM144 687h-101v16h632q-2 -28 -8.5 -54.5t-6.5 -52.5q0 -20 1 -41.5t3 -44.5h-16q-12 50 -30 84t-45 54.5t-65 29.5t-89 9h-159v-305q62 0 103.5 4.5t66.5 19t36 42t14 74.5h17q-3 -86 -3 -171q0 -69 3 -136
l-15 -1q-7 54 -24 84.5t-44.5 45.5t-66 18.5t-87.5 3.5v-350h155q61 0 104.5 15.5t73 43t46.5 65.5t26 83h14q-2 -35 -3.5 -67.5t-1.5 -64.5q0 -24 1 -45t4 -46h-636v16h101v671z" />
    <glyph glyph-name="Edieresis" unicode="&#xcb;" horiz-adv-x="722" 
d="M210 824q0 26 17 43t43 17t43 -17t17 -43t-17 -43t-43 -17t-43 17t-17 43zM430 824q0 26 17 43t43 17t43 -17t17 -43t-17 -43t-43 -17t-43 17t-17 43zM144 687h-101v16h632q-2 -28 -8.5 -54.5t-6.5 -52.5q0 -20 1 -41.5t3 -44.5h-16q-12 50 -30 84t-45 54.5t-65 29.5
t-89 9h-159v-305q62 0 103.5 4.5t66.5 19t36 42t14 74.5h17q-3 -86 -3 -171q0 -69 3 -136l-15 -1q-7 54 -24 84.5t-44.5 45.5t-66 18.5t-87.5 3.5v-350h155q61 0 104.5 15.5t73 43t46.5 65.5t26 83h14q-2 -35 -3.5 -67.5t-1.5 -64.5q0 -24 1 -45t4 -46h-636v16h101v671z" />
    <glyph glyph-name="Igrave" unicode="&#xcc;" horiz-adv-x="425" 
d="M109 885q13 0 25 -6t23 -15t22 -19.5t22 -20.5q9 -9 18 -16.5t18.5 -14.5t21.5 -15.5t29 -18.5l-9 -14q-14 5 -23.5 8t-19.5 5.5t-21.5 5t-29.5 5.5q-40 6 -64.5 13t-38.5 15.5t-19 18.5t-5 23q0 19 15.5 32.5t35.5 13.5zM43 0v16h102v671h-102v16h318v-16h-101v-671h101
v-16h-318z" />
    <glyph glyph-name="Iacute" unicode="&#xcd;" horiz-adv-x="425" 
d="M295 885q20 0 35.5 -13.5t15.5 -32.5q0 -13 -5 -23t-19 -18.5t-38.5 -15.5t-64.5 -13q-18 -3 -29.5 -5.5t-21.5 -5t-20 -5.5t-23 -8l-9 14q16 10 28.5 18.5t22 15.5t18.5 14.5t18 16.5q11 10 21.5 20.5t22 19.5t23.5 15t25 6zM43 0v16h102v671h-102v16h318v-16h-101v-671
h101v-16h-318z" />
    <glyph glyph-name="Icircumflex" unicode="&#xce;" horiz-adv-x="425" 
d="M342 745l-140 68l-140 -68h-30l148 153h44l148 -153h-30zM43 0v16h102v671h-102v16h318v-16h-101v-671h101v-16h-318z" />
    <glyph glyph-name="Idieresis" unicode="&#xcf;" horiz-adv-x="425" 
d="M32 824q0 26 17 43t43 17t43 -17t17 -43t-17 -43t-43 -17t-43 17t-17 43zM252 824q0 26 17 43t43 17t43 -17t17 -43t-17 -43t-43 -17t-43 17t-17 43zM43 0v16h102v671h-102v16h318v-16h-101v-671h101v-16h-318z" />
    <glyph glyph-name="Eth" unicode="&#xd0;" horiz-adv-x="820" 
d="M332 16q93 0 154 20t98 59.5t52 97.5t15 135q0 183 -77 271t-242 88h-66v-327h124v-15h-124v-329h66zM151 345h-101v15h101v327h-87v16h289q93 0 170.5 -26t133 -73.5t86 -113.5t30.5 -146q0 -93 -37 -158t-96 -106.5t-134.5 -60.5t-151.5 -19h-305v16h102v329z" />
    <glyph glyph-name="Ntilde" unicode="&#xd1;" horiz-adv-x="834" 
d="M642 843q-14 -18 -29 -36t-31.5 -31.5t-35 -22t-38.5 -8.5q-23 0 -47.5 7.5t-48 16.5t-43.5 16.5t-35 7.5q-18 0 -31.5 -10.5t-30.5 -38.5l-14 6q26 44 58.5 74.5t76.5 30.5q25 0 49 -8t46 -17.5t41.5 -17.5t35.5 -8t30.5 10.5t34.5 36.5zM789 687h-99v-703h-19l-488 700
v-668h110v-16h-224v16h94v671h-102v16h250l360 -516v500h-108v16h226v-16z" />
    <glyph glyph-name="Ograve" unicode="&#xd2;" horiz-adv-x="722" 
d="M267 885q13 0 25 -6t23 -15t22 -19.5t22 -20.5q9 -9 18 -16.5t18.5 -14.5t21.5 -15.5t29 -18.5l-9 -14q-14 5 -23.5 8t-19.5 5.5t-21.5 5t-29.5 5.5q-40 6 -64.5 13t-38.5 15.5t-19 18.5t-5 23q0 19 15.5 32.5t35.5 13.5zM360 -1q52 0 89.5 19.5t61.5 60.5t35 104.5
t11 151.5q0 96 -11 164.5t-34.5 113t-61 65t-90.5 20.5t-90.5 -20.5t-61 -65t-34.5 -113t-11 -164.5q0 -88 11 -151.5t35 -104.5t61.5 -60.5t89.5 -19.5zM360 716q64 0 121 -31.5t100 -84t68.5 -120.5t25.5 -141q0 -75 -25.5 -140t-69 -113t-100.5 -76t-120 -28t-120 28
t-100.5 76t-69 113t-25.5 140q0 73 25.5 141t68.5 120.5t100 84t121 31.5z" />
    <glyph glyph-name="Oacute" unicode="&#xd3;" horiz-adv-x="722" 
d="M453 885q20 0 35.5 -13.5t15.5 -32.5q0 -13 -5 -23t-19 -18.5t-38.5 -15.5t-64.5 -13q-18 -3 -29.5 -5.5t-21.5 -5t-20 -5.5t-23 -8l-9 14q16 10 28.5 18.5t22 15.5t18.5 14.5t18 16.5q11 10 21.5 20.5t22 19.5t23.5 15t25 6zM360 -1q52 0 89.5 19.5t61.5 60.5t35 104.5
t11 151.5q0 96 -11 164.5t-34.5 113t-61 65t-90.5 20.5t-90.5 -20.5t-61 -65t-34.5 -113t-11 -164.5q0 -88 11 -151.5t35 -104.5t61.5 -60.5t89.5 -19.5zM360 716q64 0 121 -31.5t100 -84t68.5 -120.5t25.5 -141q0 -75 -25.5 -140t-69 -113t-100.5 -76t-120 -28t-120 28
t-100.5 76t-69 113t-25.5 140q0 73 25.5 141t68.5 120.5t100 84t121 31.5z" />
    <glyph glyph-name="Ocircumflex" unicode="&#xd4;" horiz-adv-x="722" 
d="M500 745l-140 68l-140 -68h-30l148 153h44l148 -153h-30zM360 -1q52 0 89.5 19.5t61.5 60.5t35 104.5t11 151.5q0 96 -11 164.5t-34.5 113t-61 65t-90.5 20.5t-90.5 -20.5t-61 -65t-34.5 -113t-11 -164.5q0 -88 11 -151.5t35 -104.5t61.5 -60.5t89.5 -19.5zM360 716
q64 0 121 -31.5t100 -84t68.5 -120.5t25.5 -141q0 -75 -25.5 -140t-69 -113t-100.5 -76t-120 -28t-120 28t-100.5 76t-69 113t-25.5 140q0 73 25.5 141t68.5 120.5t100 84t121 31.5z" />
    <glyph glyph-name="Otilde" unicode="&#xd5;" horiz-adv-x="722" 
d="M552 843q-14 -18 -29 -36t-31.5 -31.5t-35 -22t-38.5 -8.5q-23 0 -47.5 7.5t-48 16.5t-43.5 16.5t-35 7.5q-18 0 -31.5 -10.5t-30.5 -38.5l-14 6q26 44 58.5 74.5t76.5 30.5q25 0 49 -8t46 -17.5t41.5 -17.5t35.5 -8t30.5 10.5t34.5 36.5zM360 -1q52 0 89.5 19.5
t61.5 60.5t35 104.5t11 151.5q0 96 -11 164.5t-34.5 113t-61 65t-90.5 20.5t-90.5 -20.5t-61 -65t-34.5 -113t-11 -164.5q0 -88 11 -151.5t35 -104.5t61.5 -60.5t89.5 -19.5zM360 716q64 0 121 -31.5t100 -84t68.5 -120.5t25.5 -141q0 -75 -25.5 -140t-69 -113t-100.5 -76
t-120 -28t-120 28t-100.5 76t-69 113t-25.5 140q0 73 25.5 141t68.5 120.5t100 84t121 31.5z" />
    <glyph glyph-name="Odieresis" unicode="&#xd6;" horiz-adv-x="722" 
d="M190 824q0 26 17 43t43 17t43 -17t17 -43t-17 -43t-43 -17t-43 17t-17 43zM410 824q0 26 17 43t43 17t43 -17t17 -43t-17 -43t-43 -17t-43 17t-17 43zM360 -1q52 0 89.5 19.5t61.5 60.5t35 104.5t11 151.5q0 96 -11 164.5t-34.5 113t-61 65t-90.5 20.5t-90.5 -20.5
t-61 -65t-34.5 -113t-11 -164.5q0 -88 11 -151.5t35 -104.5t61.5 -60.5t89.5 -19.5zM360 716q64 0 121 -31.5t100 -84t68.5 -120.5t25.5 -141q0 -75 -25.5 -140t-69 -113t-100.5 -76t-120 -28t-120 28t-100.5 76t-69 113t-25.5 140q0 73 25.5 141t68.5 120.5t100 84
t121 31.5z" />
    <glyph glyph-name="multiply" unicode="&#xd7;" 
d="M249 336l140 139l19 -19l-140 -139l140 -139l-19 -19l-140 139l-138 -139l-19 19l138 139l-138 139l19 19z" />
    <glyph glyph-name="Oslash" unicode="&#xd8;" horiz-adv-x="722" 
d="M163 335q0 -57 4 -103.5t14 -83.5l347 424q-22 66 -63 96t-105 30q-53 0 -90.5 -20.5t-61 -65t-34.5 -113t-11 -164.5zM360 -1q52 0 89.5 19.5t61.5 60.5t35 104.5t11 151.5q0 130 -21 211l-346 -424q22 -63 63.5 -93t106.5 -30zM360 716q58 0 111 -26.5t95 -71.5l80 98
h29l-94 -115q44 -53 69 -121t25 -141q0 -75 -25.5 -140t-69 -113t-100.5 -76t-120 -28q-59 0 -113 24t-96 68l-75 -92h-31l90 109q-42 48 -66 111.5t-24 136.5t25.5 141t68.5 120.5t100 84t121 31.5z" />
    <glyph glyph-name="Ugrave" unicode="&#xd9;" horiz-adv-x="778" 
d="M337 885q13 0 25 -6t23 -15t22 -19.5t22 -20.5q9 -9 18 -16.5t18.5 -14.5t21.5 -15.5t29 -18.5l-9 -14q-14 5 -23.5 8t-19.5 5.5t-21.5 5t-29.5 5.5q-40 6 -64.5 13t-38.5 15.5t-19 18.5t-5 23q0 19 15.5 32.5t35.5 13.5zM353 703v-16h-104v-512q0 -84 43 -129t133 -45
q205 0 205 219v467h-117v16h239v-16h-106v-489q0 -105 -59 -160.5t-170 -55.5q-149 0 -216.5 60t-67.5 178v467h-107v16h327z" />
    <glyph glyph-name="Uacute" unicode="&#xda;" horiz-adv-x="778" 
d="M523 885q20 0 35.5 -13.5t15.5 -32.5q0 -13 -5 -23t-19 -18.5t-38.5 -15.5t-64.5 -13q-18 -3 -29.5 -5.5t-21.5 -5t-20 -5.5t-23 -8l-9 14q16 10 28.5 18.5t22 15.5t18.5 14.5t18 16.5q11 10 21.5 20.5t22 19.5t23.5 15t25 6zM353 703v-16h-104v-512q0 -84 43 -129
t133 -45q205 0 205 219v467h-117v16h239v-16h-106v-489q0 -105 -59 -160.5t-170 -55.5q-149 0 -216.5 60t-67.5 178v467h-107v16h327z" />
    <glyph glyph-name="Ucircumflex" unicode="&#xdb;" horiz-adv-x="778" 
d="M570 745l-140 68l-140 -68h-30l148 153h44l148 -153h-30zM353 703v-16h-104v-512q0 -84 43 -129t133 -45q205 0 205 219v467h-117v16h239v-16h-106v-489q0 -105 -59 -160.5t-170 -55.5q-149 0 -216.5 60t-67.5 178v467h-107v16h327z" />
    <glyph glyph-name="Udieresis" unicode="&#xdc;" horiz-adv-x="778" 
d="M260 824q0 26 17 43t43 17t43 -17t17 -43t-17 -43t-43 -17t-43 17t-17 43zM480 824q0 26 17 43t43 17t43 -17t17 -43t-17 -43t-43 -17t-43 17t-17 43zM353 703v-16h-104v-512q0 -84 43 -129t133 -45q205 0 205 219v467h-117v16h239v-16h-106v-489q0 -105 -59 -160.5
t-170 -55.5q-149 0 -216.5 60t-67.5 178v467h-107v16h327z" />
    <glyph glyph-name="Yacute" unicode="&#xdd;" horiz-adv-x="723" 
d="M513 885q20 0 35.5 -13.5t15.5 -32.5q0 -13 -5 -23t-19 -18.5t-38.5 -15.5t-64.5 -13q-18 -3 -29.5 -5.5t-21.5 -5t-20 -5.5t-23 -8l-9 14q16 10 28.5 18.5t22 15.5t18.5 14.5t18 16.5q11 10 21.5 20.5t22 19.5t23.5 15t25 6zM320 16v315l-227 356h-93v16h318v-16h-91
l199 -322l177 322h-101v16h221v-16h-94l-192 -344v-327h113v-16h-340v16h110z" />
    <glyph glyph-name="Thorn" unicode="&#xde;" horiz-adv-x="667" 
d="M46 0v16h102v671h-102v16h318v-16h-101v-124h83q67 0 121 -15t92 -43.5t58.5 -68.5t20.5 -90q0 -40 -19 -75.5t-51.5 -62t-76 -42t-92.5 -15.5h-136v-135h101v-16h-318zM263 170h111q150 0 150 180q0 43 -11 79.5t-30.5 62.5t-47.5 40.5t-61 14.5h-111v-377z" />
    <glyph glyph-name="germandbls" unicode="&#xdf;" horiz-adv-x="556" 
d="M31 16h66v405q0 137 53.5 214t150.5 77q39 0 72 -11.5t56.5 -31.5t37 -47.5t13.5 -59.5q0 -27 -6.5 -48.5t-21.5 -39t-39.5 -33t-61.5 -30.5q97 -29 140 -80t43 -136q0 -44 -12.5 -82t-33.5 -66.5t-49.5 -45t-60.5 -16.5q-20 0 -37 7.5t-30 21t-20.5 31.5t-7.5 39
q0 30 15.5 48.5t39.5 18.5q20 0 34 -12t14 -29q0 -26 -29 -44q-15 -11 -20 -16.5t-5 -13.5q0 -13 11 -22.5t28 -9.5q34 0 48 38t14 128q0 70 -9.5 115.5t-28.5 72t-48 37t-67 10.5h-35v16h38q22 0 36.5 1.5t24 6t15 12.5t10.5 21q8 26 11.5 57t3.5 63q0 112 -94 112
q-48 0 -77 -42.5t-29 -110.5v-525h72v-16h-225v16z" />
    <glyph glyph-name="agrave" unicode="&#xe0;" 
d="M66 678q0 20 13.5 32.5t34.5 12.5q17 0 29.5 -8.5t22 -22t17 -30t15.5 -31.5q6 -11 11.5 -21t12 -20t15 -22t20.5 -28l-13 -10q-11 9 -19 15.5t-16.5 12.5t-19 12t-25.5 15q-56 30 -77 50t-21 43zM303 244q-24 -6 -41 -10.5t-29.5 -7.5t-23 -5.5t-20.5 -4.5
q-41 -8 -57 -32.5t-16 -77.5q0 -45 20 -71.5t54 -26.5q21 0 41.5 10.5t36.5 27t25.5 38t9.5 43.5v117zM470 -10q-12 -2 -18.5 -2.5t-13.5 -0.5q-39 0 -66 16t-60 58q-23 -23 -40.5 -38t-33 -23t-31.5 -11t-35 -3q-30 0 -56 9.5t-45 26t-29.5 39.5t-10.5 50q0 90 115 114
l97 19q12 2 19.5 4t13.5 3.5t12.5 4t15.5 5.5v92q0 36 -26 56t-74 20q-37 0 -60.5 -12t-23.5 -31q0 -8 3.5 -15.5t7 -14.5t7 -14.5t3.5 -16.5q0 -17 -15 -29.5t-32 -12.5q-19 0 -31.5 15t-12.5 38q0 24 12.5 44.5t35 35.5t53 23.5t66.5 8.5q38 0 70 -11t55.5 -30t36.5 -46
t13 -58v-219q0 -44 16 -61t62 -18v-15z" />
    <glyph glyph-name="aacute" unicode="&#xe1;" 
d="M374 678q0 -11 -5 -21.5t-16.5 -21.5t-30.5 -23t-47 -27q-15 -9 -25.5 -15t-19 -12t-16.5 -12.5t-19 -15.5l-12 10q12 16 20.5 28t15 22t11.5 20t11 21q8 15 16 31.5t17.5 30t21.5 22t29 8.5q21 0 35 -12.5t14 -32.5zM303 244q-24 -6 -41 -10.5t-29.5 -7.5t-23 -5.5
t-20.5 -4.5q-41 -8 -57 -32.5t-16 -77.5q0 -45 20 -71.5t54 -26.5q21 0 41.5 10.5t36.5 27t25.5 38t9.5 43.5v117zM470 -10q-12 -2 -18.5 -2.5t-13.5 -0.5q-39 0 -66 16t-60 58q-23 -23 -40.5 -38t-33 -23t-31.5 -11t-35 -3q-30 0 -56 9.5t-45 26t-29.5 39.5t-10.5 50
q0 90 115 114l97 19q12 2 19.5 4t13.5 3.5t12.5 4t15.5 5.5v92q0 36 -26 56t-74 20q-37 0 -60.5 -12t-23.5 -31q0 -8 3.5 -15.5t7 -14.5t7 -14.5t3.5 -16.5q0 -17 -15 -29.5t-32 -12.5q-19 0 -31.5 15t-12.5 38q0 24 12.5 44.5t35 35.5t53 23.5t66.5 8.5q38 0 70 -11
t55.5 -30t36.5 -46t13 -58v-219q0 -44 16 -61t62 -18v-15z" />
    <glyph glyph-name="acircumflex" unicode="&#xe2;" 
d="M330 541l-110 74l-110 -74h-30l125 170h30l125 -170h-30zM303 244q-24 -6 -41 -10.5t-29.5 -7.5t-23 -5.5t-20.5 -4.5q-41 -8 -57 -32.5t-16 -77.5q0 -45 20 -71.5t54 -26.5q21 0 41.5 10.5t36.5 27t25.5 38t9.5 43.5v117zM470 -10q-12 -2 -18.5 -2.5t-13.5 -0.5
q-39 0 -66 16t-60 58q-23 -23 -40.5 -38t-33 -23t-31.5 -11t-35 -3q-30 0 -56 9.5t-45 26t-29.5 39.5t-10.5 50q0 90 115 114l97 19q12 2 19.5 4t13.5 3.5t12.5 4t15.5 5.5v92q0 36 -26 56t-74 20q-37 0 -60.5 -12t-23.5 -31q0 -8 3.5 -15.5t7 -14.5t7 -14.5t3.5 -16.5
q0 -17 -15 -29.5t-32 -12.5q-19 0 -31.5 15t-12.5 38q0 24 12.5 44.5t35 35.5t53 23.5t66.5 8.5q38 0 70 -11t55.5 -30t36.5 -46t13 -58v-219q0 -44 16 -61t62 -18v-15z" />
    <glyph glyph-name="atilde" unicode="&#xe3;" 
d="M383 689q-41 -125 -107 -125q-23 0 -44 9t-40.5 20t-38 20t-34.5 9q-18 0 -28 -11.5t-19 -44.5h-15q8 56 35 87t66 31q18 0 38 -8t40.5 -18t40 -18t34.5 -8q19 0 32.5 13.5t23.5 43.5h16zM303 244q-24 -6 -41 -10.5t-29.5 -7.5t-23 -5.5t-20.5 -4.5q-41 -8 -57 -32.5
t-16 -77.5q0 -45 20 -71.5t54 -26.5q21 0 41.5 10.5t36.5 27t25.5 38t9.5 43.5v117zM470 -10q-12 -2 -18.5 -2.5t-13.5 -0.5q-39 0 -66 16t-60 58q-23 -23 -40.5 -38t-33 -23t-31.5 -11t-35 -3q-30 0 -56 9.5t-45 26t-29.5 39.5t-10.5 50q0 90 115 114l97 19q12 2 19.5 4
t13.5 3.5t12.5 4t15.5 5.5v92q0 36 -26 56t-74 20q-37 0 -60.5 -12t-23.5 -31q0 -8 3.5 -15.5t7 -14.5t7 -14.5t3.5 -16.5q0 -17 -15 -29.5t-32 -12.5q-19 0 -31.5 15t-12.5 38q0 24 12.5 44.5t35 35.5t53 23.5t66.5 8.5q38 0 70 -11t55.5 -30t36.5 -46t13 -58v-219
q0 -44 16 -61t62 -18v-15z" />
    <glyph glyph-name="adieresis" unicode="&#xe4;" 
d="M260 643q0 26 17 43t43 17t43 -17t17 -43t-17 -43t-43 -17t-43 17t-17 43zM60 643q0 26 17 43t43 17t43 -17t17 -43t-17 -43t-43 -17t-43 17t-17 43zM303 244q-24 -6 -41 -10.5t-29.5 -7.5t-23 -5.5t-20.5 -4.5q-41 -8 -57 -32.5t-16 -77.5q0 -45 20 -71.5t54 -26.5
q21 0 41.5 10.5t36.5 27t25.5 38t9.5 43.5v117zM470 -10q-12 -2 -18.5 -2.5t-13.5 -0.5q-39 0 -66 16t-60 58q-23 -23 -40.5 -38t-33 -23t-31.5 -11t-35 -3q-30 0 -56 9.5t-45 26t-29.5 39.5t-10.5 50q0 90 115 114l97 19q12 2 19.5 4t13.5 3.5t12.5 4t15.5 5.5v92
q0 36 -26 56t-74 20q-37 0 -60.5 -12t-23.5 -31q0 -8 3.5 -15.5t7 -14.5t7 -14.5t3.5 -16.5q0 -17 -15 -29.5t-32 -12.5q-19 0 -31.5 15t-12.5 38q0 24 12.5 44.5t35 35.5t53 23.5t66.5 8.5q38 0 70 -11t55.5 -30t36.5 -46t13 -58v-219q0 -44 16 -61t62 -18v-15z" />
    <glyph glyph-name="aring" unicode="&#xe5;" 
d="M149 626q0 -30 20.5 -50.5t50.5 -20.5t51 20.5t21 50.5t-21 51t-51 21t-50.5 -21t-20.5 -51zM126 626q0 19 7.5 36.5t20 30.5t29.5 20.5t37 7.5q19 0 36.5 -7.5t30.5 -20.5t20.5 -30.5t7.5 -36.5q0 -20 -7.5 -37t-20.5 -29.5t-30.5 -20t-36.5 -7.5q-20 0 -37 7.5
t-29.5 20t-20 29.5t-7.5 37zM303 244q-24 -6 -41 -10.5t-29.5 -7.5t-23 -5.5t-20.5 -4.5q-41 -8 -57 -32.5t-16 -77.5q0 -45 20 -71.5t54 -26.5q21 0 41.5 10.5t36.5 27t25.5 38t9.5 43.5v117zM470 -10q-12 -2 -18.5 -2.5t-13.5 -0.5q-39 0 -66 16t-60 58q-23 -23 -40.5 -38
t-33 -23t-31.5 -11t-35 -3q-30 0 -56 9.5t-45 26t-29.5 39.5t-10.5 50q0 90 115 114l97 19q12 2 19.5 4t13.5 3.5t12.5 4t15.5 5.5v92q0 36 -26 56t-74 20q-37 0 -60.5 -12t-23.5 -31q0 -8 3.5 -15.5t7 -14.5t7 -14.5t3.5 -16.5q0 -17 -15 -29.5t-32 -12.5q-19 0 -31.5 15
t-12.5 38q0 24 12.5 44.5t35 35.5t53 23.5t66.5 8.5q38 0 70 -11t55.5 -30t36.5 -46t13 -58v-219q0 -44 16 -61t62 -18v-15z" />
    <glyph glyph-name="ae" unicode="&#xe6;" horiz-adv-x="705" 
d="M303 244q-24 -6 -41 -10.5t-29.5 -7.5t-23 -5.5t-20.5 -4.5q-41 -8 -57 -32.5t-16 -77.5q0 -45 20 -71.5t54 -26.5q21 0 41.5 10.5t36.5 27t25.5 38t9.5 43.5v117zM582 255q0 51 -4.5 84.5t-15.5 54t-29.5 29t-46.5 8.5q-98 0 -98 -176h194zM389 240q-1 -14 -1 -27.5
v-24.5q0 -186 124 -186q119 0 146 134h17q-13 -72 -54.5 -111.5t-112.5 -39.5q-65 0 -115.5 35t-75.5 93q-5 -33 -20.5 -57t-36.5 -39.5t-44.5 -23t-43.5 -7.5q-30 0 -56 9.5t-45 26t-29.5 39.5t-10.5 50q0 90 115 114l97 19q12 2 19.5 4t13.5 3.5t12.5 4t15.5 5.5v92
q0 36 -26 56t-74 20q-37 0 -60.5 -12t-23.5 -31q0 -8 3.5 -15.5t7 -14.5t7 -14.5t3.5 -16.5q0 -17 -15 -29.5t-32 -12.5q-19 0 -31.5 15t-12.5 38q0 24 12.5 44.5t35 35.5t53 23.5t66.5 8.5q48 0 85.5 -16.5t60.5 -45.5q26 28 59 44.5t70 16.5q38 0 71.5 -16.5t58 -44.5
t39 -65.5t14.5 -80.5h-286z" />
    <glyph glyph-name="ccedilla" unicode="&#xe7;" horiz-adv-x="445" 
d="M348 -110q0 -26 -31 -44t-77 -18q-14 0 -27.5 1.5t-28.5 5t-32.5 9.5t-41.5 15l7 20q38 -15 60 -21t42 -6q40 0 40 27q0 12 -12.5 22t-28.5 10q-5 0 -8.5 -0.5t-18.5 -2.5l52 77q-45 2 -82.5 19.5t-65 47t-43 69.5t-15.5 87q0 49 17 92.5t47 76t69.5 51.5t84.5 19
q30 0 58 -9.5t49.5 -25.5t34 -37t12.5 -43q0 -25 -13 -39.5t-33 -14.5q-18 0 -32 13t-14 30t8 32t8 32q0 20 -21.5 33.5t-52.5 13.5q-127 0 -127 -209q0 -60 7 -101.5t22.5 -68t40 -38.5t59.5 -12q56 0 89.5 36.5t51.5 117.5l13 -1q-24 -158 -144 -170l-23 -37
q54 -6 77 -19.5t23 -39.5z" />
    <glyph glyph-name="egrave" unicode="&#xe8;" horiz-adv-x="445" 
d="M76 678q0 20 13.5 32.5t34.5 12.5q17 0 29.5 -8.5t22 -22t17 -30t15.5 -31.5q6 -11 11.5 -21t12 -20t15 -22t20.5 -28l-13 -10q-11 9 -19 15.5t-16.5 12.5t-19 12t-25.5 15q-56 30 -77 50t-21 43zM322 255q0 51 -4.5 84.5t-15.5 54t-29.5 29t-46.5 8.5q-98 0 -98 -176
h194zM129 240q-1 -14 -1 -27.5v-24.5q0 -186 124 -186q119 0 146 134h17q-13 -72 -54.5 -111.5t-112.5 -39.5q-45 0 -83.5 17.5t-67 48t-44.5 72t-16 89.5q0 47 15.5 89.5t42.5 75t62.5 51.5t74.5 19q38 0 71.5 -16.5t58 -44.5t39 -65.5t14.5 -80.5h-286z" />
    <glyph glyph-name="eacute" unicode="&#xe9;" horiz-adv-x="445" 
d="M384 678q0 -11 -5 -21.5t-16.5 -21.5t-30.5 -23t-47 -27q-15 -9 -25.5 -15t-19 -12t-16.5 -12.5t-19 -15.5l-12 10q12 16 20.5 28t15 22t11.5 20t11 21q8 15 16 31.5t17.5 30t21.5 22t29 8.5q21 0 35 -12.5t14 -32.5zM322 255q0 51 -4.5 84.5t-15.5 54t-29.5 29
t-46.5 8.5q-98 0 -98 -176h194zM129 240q-1 -14 -1 -27.5v-24.5q0 -186 124 -186q119 0 146 134h17q-13 -72 -54.5 -111.5t-112.5 -39.5q-45 0 -83.5 17.5t-67 48t-44.5 72t-16 89.5q0 47 15.5 89.5t42.5 75t62.5 51.5t74.5 19q38 0 71.5 -16.5t58 -44.5t39 -65.5
t14.5 -80.5h-286z" />
    <glyph glyph-name="ecircumflex" unicode="&#xea;" horiz-adv-x="445" 
d="M340 541l-110 74l-110 -74h-30l125 170h30l125 -170h-30zM322 255q0 51 -4.5 84.5t-15.5 54t-29.5 29t-46.5 8.5q-98 0 -98 -176h194zM129 240q-1 -14 -1 -27.5v-24.5q0 -186 124 -186q119 0 146 134h17q-13 -72 -54.5 -111.5t-112.5 -39.5q-45 0 -83.5 17.5t-67 48
t-44.5 72t-16 89.5q0 47 15.5 89.5t42.5 75t62.5 51.5t74.5 19q38 0 71.5 -16.5t58 -44.5t39 -65.5t14.5 -80.5h-286z" />
    <glyph glyph-name="edieresis" unicode="&#xeb;" horiz-adv-x="445" 
d="M270 643q0 26 17 43t43 17t43 -17t17 -43t-17 -43t-43 -17t-43 17t-17 43zM70 643q0 26 17 43t43 17t43 -17t17 -43t-17 -43t-43 -17t-43 17t-17 43zM322 255q0 51 -4.5 84.5t-15.5 54t-29.5 29t-46.5 8.5q-98 0 -98 -176h194zM129 240q-1 -14 -1 -27.5v-24.5
q0 -186 124 -186q119 0 146 134h17q-13 -72 -54.5 -111.5t-112.5 -39.5q-45 0 -83.5 17.5t-67 48t-44.5 72t-16 89.5q0 47 15.5 89.5t42.5 75t62.5 51.5t74.5 19q38 0 71.5 -16.5t58 -44.5t39 -65.5t14.5 -80.5h-286z" />
    <glyph glyph-name="igrave" unicode="&#xec;" horiz-adv-x="278" 
d="M-14 678q0 20 13.5 32.5t34.5 12.5q17 0 29.5 -8.5t22 -22t17 -30t15.5 -31.5q6 -11 11.5 -21t12 -20t15 -22t20.5 -28l-13 -10q-11 9 -19 15.5t-16.5 12.5t-19 12t-25.5 15q-56 30 -77 50t-21 43zM25 0l1 16h71v397h-66v17h153v-414h69v-16h-228z" />
    <glyph glyph-name="iacute" unicode="&#xed;" horiz-adv-x="278" 
d="M294 678q0 -11 -5 -21.5t-16.5 -21.5t-30.5 -23t-47 -27q-15 -9 -25.5 -15t-19 -12t-16.5 -12.5t-19 -15.5l-12 10q12 16 20.5 28t15 22t11.5 20t11 21q8 15 16 31.5t17.5 30t21.5 22t29 8.5q21 0 35 -12.5t14 -32.5zM25 0l1 16h71v397h-66v17h153v-414h69v-16h-228z" />
    <glyph glyph-name="icircumflex" unicode="&#xee;" horiz-adv-x="278" 
d="M250 541l-110 74l-110 -74h-30l125 170h30l125 -170h-30zM25 0l1 16h71v397h-66v17h153v-414h69v-16h-228z" />
    <glyph glyph-name="idieresis" unicode="&#xef;" horiz-adv-x="278" 
d="M25 0l1 16h71v397h-66v17h153v-414h69v-16h-228zM164 626q0 27 18.5 46t45.5 19t46 -19t19 -46t-19 -45.5t-46 -18.5t-45.5 18.5t-18.5 45.5zM-13 626q0 27 18.5 46t45.5 19t46 -19t19 -46t-19 -45.5t-46 -18.5t-45.5 18.5t-18.5 45.5z" />
    <glyph glyph-name="eth" unicode="&#xf0;" 
d="M303 612q74 -59 117.5 -144.5t43.5 -180.5q0 -67 -17.5 -122.5t-47.5 -95t-70 -61t-86 -21.5q-45 0 -83.5 19t-67.5 50.5t-45.5 73.5t-16.5 88q0 43 16.5 84.5t44.5 73t65.5 51t80.5 19.5q42 0 72.5 -21.5t59.5 -79.5q-8 72 -34.5 134t-72.5 110l-155 -88l-8 13l152 86
q-34 32 -77 55t-95 34v14q59 -5 112 -26t99 -55l143 82l8 -13zM126 213q0 -44 4.5 -82t17.5 -66.5t37.5 -44.5t64.5 -16q52 0 86.5 57t34.5 179q0 38 -7.5 58t-15.5 37q-6 13 -15.5 29.5t-23 31.5t-32 25t-40.5 10t-42 -11t-35.5 -36.5t-24.5 -67.5t-9 -103z" />
    <glyph glyph-name="ntilde" unicode="&#xf1;" horiz-adv-x="556" 
d="M453 689q-41 -125 -107 -125q-23 0 -44 9t-40.5 20t-38 20t-34.5 9q-18 0 -28 -11.5t-19 -44.5h-15q8 56 35 87t66 31q18 0 38 -8t40.5 -18t40 -18t34.5 -8q19 0 32.5 13.5t23.5 43.5h16zM303 16h73v318q0 96 -67 96q-27 0 -51 -13.5t-42 -37t-28 -55t-10 -68.5v-240h76
v-16h-233v16h71v399h-71v16h157v-78q33 51 67.5 73.5t81.5 22.5q29 0 54 -10.5t43 -28.5t28.5 -42.5t10.5 -52.5v-299h72v-16h-232v16z" />
    <glyph glyph-name="ograve" unicode="&#xf2;" 
d="M96 678q0 20 13.5 32.5t34.5 12.5q17 0 29.5 -8.5t22 -22t17 -30t15.5 -31.5q6 -11 11.5 -21t12 -20t15 -22t20.5 -28l-13 -10q-11 9 -19 15.5t-16.5 12.5t-19 12t-25.5 15q-56 30 -77 50t-21 43zM250 2q69 0 97.5 51.5t28.5 160.5q0 115 -30 166t-96 51t-96 -51
t-30 -166q0 -109 28.5 -160.5t97.5 -51.5zM250 447q45 0 84.5 -18.5t69.5 -50.5t47.5 -74.5t17.5 -89.5q0 -45 -18 -86.5t-48 -73t-70 -50t-83 -18.5q-44 0 -83.5 18.5t-69.5 50t-48 73t-18 86.5q0 47 17.5 89.5t47.5 74.5t69.5 50.5t84.5 18.5z" />
    <glyph glyph-name="oacute" unicode="&#xf3;" 
d="M404 678q0 -11 -5 -21.5t-16.5 -21.5t-30.5 -23t-47 -27q-15 -9 -25.5 -15t-19 -12t-16.5 -12.5t-19 -15.5l-12 10q12 16 20.5 28t15 22t11.5 20t11 21q8 15 16 31.5t17.5 30t21.5 22t29 8.5q21 0 35 -12.5t14 -32.5zM250 2q69 0 97.5 51.5t28.5 160.5q0 115 -30 166
t-96 51t-96 -51t-30 -166q0 -109 28.5 -160.5t97.5 -51.5zM250 447q45 0 84.5 -18.5t69.5 -50.5t47.5 -74.5t17.5 -89.5q0 -45 -18 -86.5t-48 -73t-70 -50t-83 -18.5q-44 0 -83.5 18.5t-69.5 50t-48 73t-18 86.5q0 47 17.5 89.5t47.5 74.5t69.5 50.5t84.5 18.5z" />
    <glyph glyph-name="ocircumflex" unicode="&#xf4;" 
d="M360 541l-110 74l-110 -74h-30l125 170h30l125 -170h-30zM250 2q69 0 97.5 51.5t28.5 160.5q0 115 -30 166t-96 51t-96 -51t-30 -166q0 -109 28.5 -160.5t97.5 -51.5zM250 447q45 0 84.5 -18.5t69.5 -50.5t47.5 -74.5t17.5 -89.5q0 -45 -18 -86.5t-48 -73t-70 -50
t-83 -18.5q-44 0 -83.5 18.5t-69.5 50t-48 73t-18 86.5q0 47 17.5 89.5t47.5 74.5t69.5 50.5t84.5 18.5z" />
    <glyph glyph-name="otilde" unicode="&#xf5;" 
d="M413 689q-41 -125 -107 -125q-23 0 -44 9t-40.5 20t-38 20t-34.5 9q-18 0 -28 -11.5t-19 -44.5h-15q8 56 35 87t66 31q18 0 38 -8t40.5 -18t40 -18t34.5 -8q19 0 32.5 13.5t23.5 43.5h16zM250 2q69 0 97.5 51.5t28.5 160.5q0 115 -30 166t-96 51t-96 -51t-30 -166
q0 -109 28.5 -160.5t97.5 -51.5zM250 447q45 0 84.5 -18.5t69.5 -50.5t47.5 -74.5t17.5 -89.5q0 -45 -18 -86.5t-48 -73t-70 -50t-83 -18.5q-44 0 -83.5 18.5t-69.5 50t-48 73t-18 86.5q0 47 17.5 89.5t47.5 74.5t69.5 50.5t84.5 18.5z" />
    <glyph glyph-name="odieresis" unicode="&#xf6;" 
d="M250 2q69 0 97.5 51.5t28.5 160.5q0 115 -30 166t-96 51t-96 -51t-30 -166q0 -109 28.5 -160.5t97.5 -51.5zM250 447q45 0 84.5 -18.5t69.5 -50.5t47.5 -74.5t17.5 -89.5q0 -45 -18 -86.5t-48 -73t-70 -50t-83 -18.5q-44 0 -83.5 18.5t-69.5 50t-48 73t-18 86.5
q0 47 17.5 89.5t47.5 74.5t69.5 50.5t84.5 18.5zM349 633q24 0 41 -17.5t17 -43.5q0 -24 -17 -41t-41 -17q-23 0 -39 17.5t-16 42.5t16 42t39 17zM149 632q26 0 44 -18t18 -44q0 -23 -18 -39.5t-44 -16.5q-23 0 -39 16.5t-16 39.5q0 26 16 43.5t39 18.5z" />
    <glyph glyph-name="divide" unicode="&#xf7;" 
d="M206 456q0 18 13 31t31 13t31 -13t13 -31t-13 -31t-31 -13t-31 13t-13 31zM206 179q0 18 13 31t31 13t31 -13t13 -31t-13 -31t-31 -13t-31 13t-13 31zM70 304v27h360v-27h-360z" />
    <glyph glyph-name="oslash" unicode="&#xf8;" 
d="M250 2q69 0 97.5 51.5t28.5 160.5q0 66 -11 113l-224 -249q28 -76 109 -76zM124 214q0 -67 10 -110l224 248q-28 79 -108 79q-66 0 -96 -51t-30 -166zM250 447q41 0 77 -15.5t65 -42.5l52 58h29l-66 -73q29 -32 45.5 -73t16.5 -87q0 -45 -18 -86.5t-48 -73t-70 -50
t-83 -18.5q-39 0 -75.5 15t-65.5 41l-50 -56h-32l66 73q-29 31 -45.5 70.5t-16.5 84.5q0 47 17.5 89.5t47.5 74.5t69.5 50.5t84.5 18.5z" />
    <glyph glyph-name="ugrave" unicode="&#xf9;" horiz-adv-x="556" 
d="M106 678q0 20 13.5 32.5t34.5 12.5q17 0 29.5 -8.5t22 -22t17 -30t15.5 -31.5q6 -11 11.5 -21t12 -20t15 -22t20.5 -28l-13 -10q-11 9 -19 15.5t-16.5 12.5t-19 12t-25.5 15q-56 30 -77 50t-21 43zM369 0v68q-14 -19 -27.5 -34.5t-29.5 -27t-35.5 -17.5t-44.5 -6
q-40 0 -67.5 12.5t-45 34t-25.5 50t-8 59.5v275h-60v16h147l-1 -334q0 -45 18.5 -69t53.5 -24q27 0 50.5 13t40.5 36t27 53.5t10 66.5v242h-81v16h167v-414h72v-16h-161z" />
    <glyph glyph-name="uacute" unicode="&#xfa;" horiz-adv-x="556" 
d="M414 678q0 -11 -5 -21.5t-16.5 -21.5t-30.5 -23t-47 -27q-15 -9 -25.5 -15t-19 -12t-16.5 -12.5t-19 -15.5l-12 10q12 16 20.5 28t15 22t11.5 20t11 21q8 15 16 31.5t17.5 30t21.5 22t29 8.5q21 0 35 -12.5t14 -32.5zM369 0v68q-14 -19 -27.5 -34.5t-29.5 -27
t-35.5 -17.5t-44.5 -6q-40 0 -67.5 12.5t-45 34t-25.5 50t-8 59.5v275h-60v16h147l-1 -334q0 -45 18.5 -69t53.5 -24q27 0 50.5 13t40.5 36t27 53.5t10 66.5v242h-81v16h167v-414h72v-16h-161z" />
    <glyph glyph-name="ucircumflex" unicode="&#xfb;" horiz-adv-x="556" 
d="M370 541l-110 74l-110 -74h-30l125 170h30l125 -170h-30zM369 0v68q-14 -19 -27.5 -34.5t-29.5 -27t-35.5 -17.5t-44.5 -6q-40 0 -67.5 12.5t-45 34t-25.5 50t-8 59.5v275h-60v16h147l-1 -334q0 -45 18.5 -69t53.5 -24q27 0 50.5 13t40.5 36t27 53.5t10 66.5v242h-81v16
h167v-414h72v-16h-161z" />
    <glyph glyph-name="udieresis" unicode="&#xfc;" horiz-adv-x="556" 
d="M300 643q0 26 17 43t43 17t43 -17t17 -43t-17 -43t-43 -17t-43 17t-17 43zM100 643q0 26 17 43t43 17t43 -17t17 -43t-17 -43t-43 -17t-43 17t-17 43zM369 0v68q-14 -19 -27.5 -34.5t-29.5 -27t-35.5 -17.5t-44.5 -6q-40 0 -67.5 12.5t-45 34t-25.5 50t-8 59.5v275h-60
v16h147l-1 -334q0 -45 18.5 -69t53.5 -24q27 0 50.5 13t40.5 36t27 53.5t10 66.5v242h-81v16h167v-414h72v-16h-161z" />
    <glyph glyph-name="yacute" unicode="&#xfd;" horiz-adv-x="546" 
d="M444 678q0 -11 -5 -21.5t-16.5 -21.5t-30.5 -23t-47 -27q-15 -9 -25.5 -15t-19 -12t-16.5 -12.5t-19 -15.5l-12 10q12 16 20.5 28t15 22t11.5 20t11 21q8 15 16 31.5t17.5 30t21.5 22t29 8.5q21 0 35 -12.5t14 -32.5zM522 414h-73l-162 -574q-13 -47 -42.5 -74.5
t-67.5 -27.5q-18 0 -35 7.5t-30 20t-21 29t-8 33.5q0 20 13 35t32 15q16 0 29 -13t13 -29q0 -14 -5.5 -27t-5.5 -28q0 -23 20 -23q23 0 39 8.5t30.5 33.5t28.5 71t34 122l-207 421h-82v16h169l153 -314l83 298h-77v16h172v-16z" />
    <glyph glyph-name="thorn" unicode="&#xfe;" horiz-adv-x="556" 
d="M27 -262v16h75v935h-72v14h159v-343q38 50 67.5 69.5t67.5 19.5q40 0 76 -19.5t63 -53t43 -77.5t16 -92q0 -45 -15 -85.5t-41 -70.5t-60.5 -48t-72.5 -18q-20 0 -37.5 5t-34.5 16.5t-34.5 30t-37.5 45.5v-328h85v-16h-247zM324 3q54 0 79 52t25 161q0 212 -106 212
q-66 0 -101 -54.5t-35 -157.5q0 -45 10.5 -84t29 -67.5t44 -45t54.5 -16.5z" />
    <glyph glyph-name="ydieresis" unicode="&#xff;" horiz-adv-x="546" 
d="M330 643q0 26 17 43t43 17t43 -17t17 -43t-17 -43t-43 -17t-43 17t-17 43zM130 643q0 26 17 43t43 17t43 -17t17 -43t-17 -43t-43 -17t-43 17t-17 43zM522 414h-73l-162 -574q-13 -47 -42.5 -74.5t-67.5 -27.5q-18 0 -35 7.5t-30 20t-21 29t-8 33.5q0 20 13 35t32 15
q16 0 29 -13t13 -29q0 -14 -5.5 -27t-5.5 -28q0 -23 20 -23q23 0 39 8.5t30.5 33.5t28.5 71t34 122l-207 421h-82v16h169l153 -314l83 298h-77v16h172v-16z" />
    <glyph glyph-name="OE" unicode="&#x152;" horiz-adv-x="1000" 
d="M495 386q0 51 -2 89t-7 66.5t-13 50t-20 39.5q-15 23 -45.5 39.5t-60.5 16.5t-56.5 -12t-47.5 -33.5t-35.5 -52t-20.5 -66.5q-3 -21 -6.5 -51t-5.5 -63t-3.5 -66t-1.5 -59q0 -128 45 -197t129 -69q111 0 134 115q4 18 6.5 39t4.5 50t3.5 68.5t2.5 95.5zM625 16q47 0 80 2
t57.5 7t44 14t40.5 23t34.5 27.5t23.5 32t18 45t17 67.5h16q-2 -17 -3.5 -31.5t-2 -29.5t-1 -32.5t-0.5 -41.5q0 -20 0.5 -43.5t1.5 -55.5h-584q-65 0 -122.5 27t-100.5 74t-68 109t-25 133q0 69 25 134t67 115t96 80.5t111 30.5h587q-1 -20 -1.5 -33t-0.5 -22v-16v-14v-7.5
t0.5 -14t1 -26t1.5 -44.5l-1 -24l-14 -3q-4 22 -8.5 38.5t-10 30t-13.5 25t-19 23.5q-12 14 -29 27t-35 22.5t-35 15.5t-30 6h-133v-311q5 0 10.5 -0.5t10.5 -0.5q74 0 111 33t47 107h17q-1 -23 -4 -47.5t-3 -67.5q0 -16 1 -33.5t2.5 -39.5t2.5 -49.5t1 -61.5l-20 -1
q-7 53 -20.5 81t-38.5 40q-21 10 -52 17t-54 7h-11v-344h15z" />
    <glyph glyph-name="oe" unicode="&#x153;" horiz-adv-x="785" 
d="M469 240q-1 -14 -1 -27.5v-24.5q0 -186 124 -186q119 0 146 134h17q-13 -72 -54.5 -111.5t-112.5 -39.5q-53 0 -96.5 23.5t-72.5 64.5q-31 -39 -75 -63t-94 -24q-44 0 -83.5 18.5t-69.5 50t-48 73t-18 86.5q0 47 17.5 89.5t47.5 74.5t69.5 50.5t84.5 18.5
q51 0 95.5 -24.5t75.5 -65.5q27 41 66.5 65.5t84.5 24.5q38 0 71.5 -16.5t58 -44.5t39 -65.5t14.5 -80.5h-286zM662 255q0 51 -4.5 84.5t-15.5 54t-29.5 29t-46.5 8.5q-98 0 -98 -176h194zM250 2q69 0 97.5 51.5t28.5 160.5q0 115 -30 166t-96 51t-96 -51t-30 -166
q0 -109 28.5 -160.5t97.5 -51.5z" />
    <glyph glyph-name="Scaron" unicode="&#x160;" horiz-adv-x="556" 
d="M95 898l140 -68l140 68h30l-148 -153h-44l-148 153h30zM306 -3q30 0 59.5 8.5t53.5 25.5t39 42.5t15 58.5q0 47 -21 77t-54.5 50t-76 33.5t-84.5 28.5q-36 12 -69 27.5t-58.5 38.5t-40.5 55.5t-15 78.5q0 39 12 74.5t35 62.5t56 42.5t74 15.5q35 0 70.5 -9.5t58.5 -26.5
q15 -10 21 -13t13 -3q33 0 38 41h16l7 -210h-17q-6 26 -12 45.5t-12 34.5t-12.5 26.5t-14.5 22.5q-26 35 -66 55t-86 20q-25 0 -50 -7.5t-45 -21.5t-32.5 -35t-12.5 -49q0 -41 19.5 -67t51 -43.5t71.5 -29.5t81 -25q39 -12 75.5 -27.5t65 -40t45.5 -60t17 -87.5
q0 -49 -15 -90t-43 -71t-68 -46.5t-90 -16.5q-68 0 -120 30l-49 27q-15 9 -30 9t-23.5 -11t-14.5 -38h-14l-1 247h14q6 -33 11.5 -55.5t11.5 -39.5t13 -31t17 -29q14 -21 34.5 -38t45.5 -29.5t52 -19.5t54 -7z" />
    <glyph glyph-name="scaron" unicode="&#x161;" horiz-adv-x="389" 
d="M55 711l110 -74l110 74h30l-125 -170h-30l-125 170h30zM42 1q2 21 2 40v38q0 22 -1 43.5t-3 45.5h13q22 -88 62 -127t106 -39q44 0 71 20.5t27 54.5q0 19 -6 33t-22 26t-42.5 23t-67.5 25q-74 25 -107 57.5t-33 80.5q0 26 9.5 49t26 40t38.5 27t47 10q51 0 113 -41
q8 -4 10 -4q7 0 13 9.5t9 25.5l12 1q0 -37 0.5 -73.5t3.5 -74.5h-17q-16 66 -53 103.5t-88 37.5q-18 0 -34.5 -6t-28.5 -15.5t-19.5 -22.5t-7.5 -27q0 -13 5.5 -24t19.5 -21.5t38 -21.5t61 -23q45 -14 75.5 -29t49.5 -32.5t27.5 -38.5t8.5 -47q0 -30 -11 -55t-30 -44
t-45 -29.5t-56 -10.5q-26 0 -53.5 9t-51.5 26q-25 16 -31 16q-10 0 -16.5 -10t-7.5 -25h-16z" />
    <glyph glyph-name="Ydieresis" unicode="&#x178;" horiz-adv-x="723" 
d="M250 824q0 26 17 43t43 17t43 -17t17 -43t-17 -43t-43 -17t-43 17t-17 43zM470 824q0 26 17 43t43 17t43 -17t17 -43t-17 -43t-43 -17t-43 17t-17 43zM320 16v315l-227 356h-93v16h318v-16h-91l199 -322l177 322h-101v16h221v-16h-94l-192 -344v-327h113v-16h-340v16h110
z" />
    <glyph glyph-name="Zcaron" unicode="&#x17d;" horiz-adv-x="600" 
d="M160 898l140 -68l140 68h30l-148 -153h-44l-148 153h30zM29 0v23l407 664h-63q-67 0 -115 -11.5t-80.5 -36t-49.5 -62.5t-21 -92h-15v218h472l-1 -18l-406 -669h131q119 0 182 55t80 176h14v-247h-535z" />
    <glyph glyph-name="zcaron" unicode="&#x17e;" horiz-adv-x="445" 
d="M130 711l110 -74l110 74h30l-125 -170h-30l-125 170h30zM26 0v12l268 402h-116q-37 0 -60 -45l-37 -71h-14q5 32 5.5 64t0.5 68h327v-17l-267 -398h125q30 0 49.5 15t33.5 48l37 89l10 3v-170h-362z" />
    <glyph glyph-name="florin" unicode="&#x192;" 
d="M196 433q11 47 19.5 79.5t17.5 57t20 44t26 41.5q17 26 40 40t47 14q32 0 53.5 -21.5t21.5 -53.5q0 -25 -15 -42t-35 -17q-16 0 -27 11t-11 27q0 17 12 31q11 12 14 16.5t3 8.5q0 9 -7 15.5t-17 6.5q-35 0 -54.5 -60.5t-29.5 -197.5h81l-3 -16h-80l-9 -64
q-42 -281 -98.5 -416.5t-131.5 -135.5q-17 0 -33 6t-28 15.5t-19 22.5t-7 27q0 21 14 36t33 15q17 0 29 -11.5t12 -26.5q0 -21 -15 -36q-9 -8 -9 -12q0 -5 7 -12q11 -8 24 -8q42 0 61 46q10 25 19.5 64t19 96t20.5 134.5t24 181.5l9 78h-91l4 16h89z" />
    <glyph glyph-name="circumflex" unicode="&#x2c6;" 
d="M360 541l-110 74l-110 -74h-30l125 170h30l125 -170h-30z" />
    <glyph glyph-name="tilde" unicode="&#x2dc;" 
d="M413 689q-41 -125 -107 -125q-23 0 -44 9t-40.5 20t-38 20t-34.5 9q-18 0 -28 -11.5t-19 -44.5h-15q8 56 35 87t66 31q18 0 38 -8t40.5 -18t40 -18t34.5 -8q19 0 32.5 13.5t23.5 43.5h16z" />
    <glyph glyph-name="endash" unicode="&#x2013;" 
d="M-1 205v25h502v-25h-502z" />
    <glyph glyph-name="emdash" unicode="&#x2014;" horiz-adv-x="1000" 
d="M-1 205v25h1002v-25h-1002z" />
    <glyph glyph-name="quoteleft" unicode="&#x2018;" horiz-adv-x="250" 
d="M90 580q25 16 45 16q21 0 36 -15.5t15 -38.5q0 -24 -17 -41t-40 -17q-30 0 -47 24t-17 66t26.5 84t68.5 74l10 -10q-16 -14 -30.5 -29t-25.5 -32t-17.5 -37t-6.5 -44z" />
    <glyph glyph-name="quoteright" unicode="&#x2019;" horiz-adv-x="250" 
d="M160 620q-25 -16 -45 -16q-21 0 -36 15.5t-15 38.5q0 24 17 41t40 17q30 0 47 -24t17 -66t-26.5 -84t-68.5 -74l-10 10q16 14 30.5 29t25.5 32t17.5 37t6.5 44z" />
    <glyph glyph-name="quotesinglbase" unicode="&#x201a;" horiz-adv-x="250" 
d="M160 5q-25 -16 -45 -16q-21 0 -36 15.5t-15 38.5q0 24 17 41t40 17q30 0 47 -24t17 -66t-26.5 -84t-68.5 -74l-10 10q16 14 30.5 29t25.5 32t17.5 37t6.5 44z" />
    <glyph glyph-name="quotedblleft" unicode="&#x201c;" horiz-adv-x="400" 
d="M240 580q25 16 45 16q21 0 36 -15.5t15 -38.5q0 -24 -17 -41t-40 -17q-30 0 -47 24t-17 66t26.5 84t68.5 74l10 -10q-16 -14 -30.5 -29t-25.5 -32t-17.5 -37t-6.5 -44zM90 580q25 16 45 16q21 0 36 -15.5t15 -38.5q0 -24 -17 -41t-40 -17q-30 0 -47 24t-17 66t26.5 84
t68.5 74l10 -10q-16 -14 -30.5 -29t-25.5 -32t-17.5 -37t-6.5 -44z" />
    <glyph glyph-name="quotedblright" unicode="&#x201d;" horiz-adv-x="400" 
d="M310 620q-25 -16 -45 -16q-21 0 -36 15.5t-15 38.5q0 24 17 41t40 17q30 0 47 -24t17 -66t-26.5 -84t-68.5 -74l-10 10q16 14 30.5 29t25.5 32t17.5 37t6.5 44zM160 620q-25 -16 -45 -16q-21 0 -36 15.5t-15 38.5q0 24 17 41t40 17q30 0 47 -24t17 -66t-26.5 -84
t-68.5 -74l-10 10q16 14 30.5 29t25.5 32t17.5 37t6.5 44z" />
    <glyph glyph-name="quotedblbase" unicode="&#x201e;" horiz-adv-x="400" 
d="M310 5q-25 -16 -45 -16q-21 0 -36 15.5t-15 38.5q0 24 17 41t40 17q30 0 47 -24t17 -66t-26.5 -84t-68.5 -74l-10 10q16 14 30.5 29t25.5 32t17.5 37t6.5 44zM160 5q-25 -16 -45 -16q-21 0 -36 15.5t-15 38.5q0 24 17 41t40 17q30 0 47 -24t17 -66t-26.5 -84t-68.5 -74
l-10 10q16 14 30.5 29t25.5 32t17.5 37t6.5 44z" />
    <glyph glyph-name="dagger" unicode="&#x2020;" horiz-adv-x="450" 
d="M182 381q0 12 5 27.5t11.5 32.5t11.5 35.5t5 38.5h20q0 -20 5 -38.5t11.5 -35.5t11.5 -32.5t5 -27.5q0 -17 -5 -39t-11.5 -58.5t-11.5 -93.5t-5 -142h-20q0 85 -5 142t-11.5 93.5t-11.5 58.5t-5 39zM415 527q0 -17 -13.5 -28t-30.5 -11q-12 0 -27.5 4.5t-32.5 10t-36 10
t-38 4.5v20q19 0 38 4.5t36 9.5t32.5 9.5t27.5 4.5q17 0 30.5 -10.5t13.5 -27.5zM35 527q0 17 13.5 27.5t30.5 10.5q12 0 27.5 -4.5t32.5 -9.5t35.5 -9.5t38.5 -4.5v-20q-20 0 -38.5 -4.5t-35.5 -10t-32.5 -10t-27.5 -4.5q-17 0 -30.5 11t-13.5 28zM225 717q17 0 27.5 -13.5
t10.5 -30.5q0 -12 -4.5 -27.5t-9.5 -32.5t-9.5 -36t-4.5 -38h-20q0 19 -4.5 38t-10 36t-10 32.5t-4.5 27.5q0 17 11 30.5t28 13.5z" />
    <glyph glyph-name="daggerdbl" unicode="&#x2021;" horiz-adv-x="450" 
d="M415 234q0 -17 -13.5 -27.5t-30.5 -10.5q-12 0 -27.5 4.5t-32.5 9.5t-36 9.5t-38 4.5v20q19 0 38 4.5t36 10t32.5 10t27.5 4.5q17 0 30.5 -11t13.5 -28zM225 44q-17 0 -28 13.5t-11 30.5q0 12 4.5 27.5t10 32.5t10 36t4.5 38h20q0 -19 4.5 -38t9.5 -36t9.5 -32.5
t4.5 -27.5q0 -17 -10.5 -30.5t-27.5 -13.5zM35 234q0 17 13.5 28t30.5 11q12 0 27.5 -4.5t32.5 -10t35.5 -10t38.5 -4.5v-20q-20 0 -38.5 -4.5t-35.5 -9.5t-32.5 -9.5t-27.5 -4.5q-17 0 -30.5 10.5t-13.5 27.5zM186 381q0 12 4.5 27.5t10 32.5t10 35.5t4.5 38.5h20
q0 -20 4.5 -38.5t9.5 -35.5t9.5 -32.5t4.5 -27.5t-4.5 -27.5t-9.5 -33t-9.5 -36.5t-4.5 -38h-20q0 19 -4.5 38t-10 36.5t-10 33t-4.5 27.5zM415 527q0 -17 -13.5 -28t-30.5 -11q-12 0 -27.5 4.5t-32.5 10t-36 10t-38 4.5v20q19 0 38 4.5t36 9.5t32.5 9.5t27.5 4.5
q17 0 30.5 -10.5t13.5 -27.5zM35 527q0 17 13.5 27.5t30.5 10.5q12 0 27.5 -4.5t32.5 -9.5t35.5 -9.5t38.5 -4.5v-20q-20 0 -38.5 -4.5t-35.5 -10t-32.5 -10t-27.5 -4.5q-17 0 -30.5 11t-13.5 28zM225 717q17 0 27.5 -13.5t10.5 -30.5q0 -12 -4.5 -27.5t-9.5 -32.5t-9.5 -36
t-4.5 -38h-20q0 19 -4.5 38t-10 36t-10 32.5t-4.5 27.5q0 17 11 30.5t28 13.5z" />
    <glyph glyph-name="bullet" unicode="&#x2022;" 
d="M255 327q37 0 63 -25.5t26 -62.5q0 -21 -7.5 -39t-20 -31.5t-29.5 -21.5t-36 -8q-20 0 -37 8t-29.5 21.5t-20 31.5t-7.5 39q0 37 28.5 62.5t69.5 25.5z" />
    <glyph glyph-name="ellipsis" unicode="&#x2026;" horiz-adv-x="1000" 
d="M736 50q0 23 16 39t39 16t39 -16t16 -39t-16 -39t-39 -16t-39 16t-16 39zM403 50q0 23 16 39t39 16t39 -16t16 -39t-16 -39t-39 -16t-39 16t-16 39zM70 50q0 23 16 39t39 16t39 -16t16 -39t-16 -39t-39 -16t-39 16t-16 39z" />
    <glyph glyph-name="perthousand" unicode="&#x2030;" horiz-adv-x="950" 
d="M437 10q17 0 34 6q15 6 24 13.5t13.5 23.5t6 42.5t1.5 71.5q0 119 -71 119q-48 0 -67.5 -29.5t-19.5 -101.5q0 -75 18 -109t57 -36h4zM175 418q42 5 59.5 32t17.5 85q0 23 -0.5 39t-1 27.5t-2 21t-4.5 18.5q-6 23 -27 38t-47 15q-24 0 -40 -7.5t-25.5 -26.5t-13 -50.5
t-3.5 -80.5q0 -59 18 -85.5t60 -26.5q2 0 4.5 0.5t4.5 0.5zM433 -4q-27 0 -52 12.5t-43.5 33.5t-30 49t-11.5 58t12 57.5t32 48.5t46.5 33.5t55.5 12.5q30 0 54.5 -10.5t42.5 -29.5t28 -44.5t10 -56.5q0 -34 -11.5 -64t-31 -52t-45.5 -35t-56 -13zM537 687l-483 -688l-25 -1
l475 671q-19 -6 -33 -10.5t-27.5 -6.5t-27.5 -3t-32 -1q-16 0 -28.5 0.5t-24.5 2t-26 4.5t-32 7q13 -16 21 -28.5t12.5 -24t6.5 -24t2 -28.5q0 -32 -11 -60t-30.5 -49t-45 -33.5t-55.5 -12.5t-56 12.5t-46 33.5t-31.5 49t-11.5 60q0 30 11 56.5t30 47t44 32.5t53 12
q16 0 38.5 -5t51.5 -14q39 -12 65 -16.5t57 -4.5q42 0 75 7.5t74 25.5zM777 10q17 0 34 6q15 6 24 13.5t13.5 23.5t6 42.5t1.5 71.5q0 119 -71 119q-48 0 -67.5 -29.5t-19.5 -101.5q0 -75 18 -109t57 -36h4zM773 -4q-27 0 -52 12.5t-43.5 33.5t-30 49t-11.5 58t12 57.5
t32 48.5t46.5 33.5t55.5 12.5q30 0 54.5 -10.5t42.5 -29.5t28 -44.5t10 -56.5q0 -34 -11.5 -64t-31 -52t-45.5 -35t-56 -13z" />
    <glyph glyph-name="guilsinglleft" unicode="&#x2039;" horiz-adv-x="250" 
d="M193 96q7 -6 11.5 -13.5t4.5 -15.5q0 -15 -11 -24.5t-23 -9.5q-14 0 -21.5 7t-12.5 15l-104 157v16l104 157q5 8 12.5 15t21.5 7q12 0 23 -9.5t11 -24.5q0 -8 -4.5 -15.5t-11.5 -13.5l-138 -124z" />
    <glyph glyph-name="guilsinglright" unicode="&#x203a;" horiz-adv-x="250" 
d="M195 220l-138 124q-7 6 -11.5 13.5t-4.5 15.5q0 15 11 24.5t23 9.5q14 0 21.5 -7t12.5 -15l104 -157v-16l-104 -157q-5 -8 -12.5 -15t-21.5 -7q-12 0 -23 9.5t-11 24.5q0 8 4.5 15.5t11.5 13.5z" />
    <glyph glyph-name="Euro" unicode="&#x20ac;" 
d="M174 255q2 -68 10.5 -116.5t26 -79.5t45.5 -45t69 -14q27 0 51.5 9t43 23.5t29.5 33t11 36.5q0 11 -10.5 15.5t-23 9.5t-23 15t-10.5 33q0 19 12.5 34.5t32.5 15.5q15 0 25 -8t16.5 -20.5t9.5 -26.5t3 -26q0 -35 -13.5 -64t-37 -50t-53.5 -33t-63 -12q-57 0 -102.5 21
t-78 57.5t-52.5 85.5t-27 106h-55v15h54q-1 12 -1.5 24.5t-0.5 25.5v17.5t1 17.5h-53v15h54q6 61 26.5 115t53 94t75 63t91.5 23q36 0 67 -9t54.5 -25.5t37 -41t13.5 -55.5q0 -26 -14.5 -43.5t-34.5 -17.5t-33.5 13t-13.5 33t8 30.5t18 17t18 11t8 12.5t-9 18.5t-25.5 19.5
t-40 15.5t-53.5 6.5q-35 0 -59.5 -19t-40.5 -55t-24.5 -88t-10.5 -118h235v-15h-236v-85h196v-15h-196z" />
    <glyph glyph-name="trademark" unicode="&#x2122;" horiz-adv-x="900" 
d="M852 687h-50v-321h50v-15h-164v15h50q0 80 1 160t1 161l-122 -343h-15l-122 343v-321h49v-15h-123l1 15h56v321h-54v16h130l95 -261l92 261h125v-16zM127 351v15h52v321h-24q-17 0 -33 -7.5t-28 -20.5t-19.5 -30t-8.5 -35h-18q4 23 5.5 43t1.5 35q0 10 -0.5 17t-1.5 14
h315v-31q0 -15 1 -35t5 -43h-18q-1 18 -8.5 35t-19.5 30t-28 20.5t-33 7.5h-24v-321h53v-15h-169z" />
    <glyph glyph-name="glyph218" horiz-adv-x="0" 
 />
    <glyph glyph-name="glyph220" horiz-adv-x="0" 
 />
    </font>
</defs>
</svg>
