<svg xmlns="http://www.w3.org/2000/svg" width="46.305" height="43.78" viewBox="0 0 46.305 43.78">
  <g id="转赠" transform="translate(-38.4 -79.872)">
    <path id="路径_189" data-name="路径 189" d="M297.8,105.9a1.568,1.568,0,0,0,.773.249,1.425,1.425,0,0,0,.8-.249l.05-.025c1.646-1.122,10.073-7.056,13.314-12.989a8.411,8.411,0,0,0-7.081-13.014c-3.341,0-5.759,2.618-7.031,4.089-1.2-1.371-3.715-4.089-7.031-4.089a8.459,8.459,0,0,0-8.452,8.452,8.356,8.356,0,0,0,1.346,4.563C287.973,99.444,297.7,105.851,297.8,105.9Zm7.8-23.212a5.618,5.618,0,0,1,5.61,5.61,5.437,5.437,0,0,1-.9,3.042c-.025.025-.025.05-.05.075l-.025.025c-2.493,4.637-8.876,9.524-11.668,11.519-2.792-1.994-9.2-6.906-11.668-11.519l-.025-.05c0-.025-.025-.05-.05-.075a5.706,5.706,0,0,1-.9-3.042,5.613,5.613,0,0,1,5.61-5.585c2.244,0,4.139,2.219,5.161,3.416.648.773,1.1,1.272,1.87,1.272s1.2-.5,1.87-1.247C301.461,84.908,303.356,82.689,305.6,82.689Z" transform="translate(-232.819 0)" fill="#153a5e"/>
    <path id="路径_190" data-name="路径 190" d="M82.754,567.43a3.587,3.587,0,0,0-1.82-.5c-1.77,0-3.166,1.421-3.765,2.044-1.6,1.646-3.515,3.291-4.388,4.014a4,4,0,0,0-1.3-.249c-2.967-.175-7.7-.7-8.8-1.4a31.882,31.882,0,0,1-3.116-2.094l-.15-.125c-2.643-1.87-4.687-3.366-9.823-3.366a13.831,13.831,0,0,0-4.114.8l-.15.05a12.3,12.3,0,0,1-3.74.723,3.214,3.214,0,0,0-3.191,3.191v7.429a3.214,3.214,0,0,0,3.191,3.191,54.718,54.718,0,0,1,8,.424,52.277,52.277,0,0,1,7.155,3.814l.05.05h.025a4.05,4.05,0,0,0,1.77.449H72.183A5.307,5.307,0,0,0,76,583.511c.7-1.172,2.668-3.964,7.9-10.646.175-.225.274-.374.274-.374,0-.025.025-.025.025-.05a2.236,2.236,0,0,1,.125-.2A3.668,3.668,0,0,0,82.754,567.43Zm-11.369,9.623-10.122.549c-.723-.025-2.792-1.5-3.79-2.194-.175-.124-.3-.224-.474-.349s-.3-.224-.474-.349a13.968,13.968,0,0,0-1.945-1.222,1.386,1.386,0,0,0-.7-.175,1.609,1.609,0,0,0-.748,3.042,12.932,12.932,0,0,1,1.945,1.247c.2.149.374.249.573.4l.075.05c2.019,1.421,3.914,2.493,5.61,2.493l10.122-.8c2.044-.025,3.715-1.2,3.715-3.241a10.473,10.473,0,0,0-.474-1.67,53.171,53.171,0,0,0,4.488-4.139,1.949,1.949,0,0,1,1.745-.5.589.589,0,0,1,.2.05.7.7,0,0,1,.374.648c-.5.648-6.457,8.177-8.277,11.169a2.731,2.731,0,0,1-1.047.8H58.62a.591.591,0,0,1-.224-.05l-.025-.025a53.035,53.035,0,0,0-7.754-4.114c-1.745-.573-7.754-.6-9-.624v-7.878a16.731,16.731,0,0,0,4.812-.9,9.884,9.884,0,0,1,3.141-.673c4.139,0,5.61,1.3,8,3.042l.15.124c.9.648,1.945,1.172,3.241,1.945a10.3,10.3,0,0,0,3.191,1.022,56.342,56.342,0,0,0,7.006.8h.175c.274,0,.5.474.5.748C71.883,576.58,71.659,577.054,71.385,577.054Z" transform="translate(0 -462.228)" fill="#153a5e"/>
  </g>
</svg>
