<svg xmlns="http://www.w3.org/2000/svg" width="43.611" height="38.001" viewBox="0 0 43.611 38.001">
  <path id="路径_2822" data-name="路径 2822" d="M41.248,2.644H17.317a2.486,2.486,0,1,0,0,4.971h23.94a2.486,2.486,0,0,0,0-4.971ZM9.606,3.19l-2.12-.308A.515.515,0,0,1,7.113,2.6L6.175.587A.962.962,0,0,0,4.4.587l-.935,2a.512.512,0,0,1-.368.294L.978,3.187A1.052,1.052,0,0,0,.433,4.956L1.959,6.5a.529.529,0,0,1,.15.458l-.371,2.18a1,1,0,0,0,1.442,1.09L5.069,9.2a.428.428,0,0,1,.455,0l1.908,1.03A1,1,0,0,0,8.781,9.8a1.014,1.014,0,0,0,.09-.662L8.5,6.961A.61.61,0,0,1,8.653,6.5l1.521-1.534a1.055,1.055,0,0,0,0-1.488A1.071,1.071,0,0,0,9.628,3.2ZM41.248,16.348H17.317a2.486,2.486,0,1,0,0,4.971h23.94a2.486,2.486,0,0,0,0-4.971Zm-31.642.4-2.12-.308a.515.515,0,0,1-.373-.286L6.175,14.14a.962.962,0,0,0-1.772,0l-.935,2a.512.512,0,0,1-.368.294L.978,16.74a1.052,1.052,0,0,0-.545,1.769l1.526,1.54a.529.529,0,0,1,.15.458l-.371,2.18a1,1,0,0,0,1.442,1.09l1.889-1.022a.428.428,0,0,1,.455,0l1.908,1.03a1,1,0,0,0,1.349-.428,1.014,1.014,0,0,0,.09-.662L8.5,20.515a.608.608,0,0,1,.153-.466l1.521-1.534a1.055,1.055,0,0,0-.019-1.488,1.09,1.09,0,0,0-.545-.273ZM41.248,30.751H17.317a2.486,2.486,0,1,0,0,4.971h23.94a2.486,2.486,0,0,0,0-4.971Zm-31.642.1-2.12-.308a.515.515,0,0,1-.373-.286l-.938-2.009a.962.962,0,0,0-1.772,0l-.935,2a.5.5,0,0,1-.368.292l-2.123.308a1.052,1.052,0,0,0-.545,1.769l1.526,1.54a.529.529,0,0,1,.15.458l-.371,2.18a1,1,0,0,0,1.442,1.09l1.889-1.022a.428.428,0,0,1,.455,0l1.908,1.03a1,1,0,0,0,1.349-.428,1.014,1.014,0,0,0,.09-.662L8.5,34.619a.61.61,0,0,1,.153-.466l1.521-1.534a1.052,1.052,0,0,0-.567-1.769" transform="translate(-0.131 0)" fill="#113668"/>
</svg>
