<svg xmlns="http://www.w3.org/2000/svg" width="47.993" height="47.891" viewBox="0 0 47.993 47.891">
  <g id="dc-icon-创新平台" transform="translate(-18.683 -20.825)">
    <g id="路径_191" data-name="路径 191" fill="#153a5e">
      <path d="M 47.78726577758789 68.46659851074219 L 37.57136535644531 68.46659851074219 C 36.82267379760742 68.46659851074219 36.29977416992188 67.94369506835938 36.29977416992188 67.19499969482422 C 36.29977416992188 66.44630432128906 36.82267379760742 65.92341613769531 37.57136535644531 65.92341613769531 L 47.78726577758789 65.92341613769531 C 48.53596496582031 65.92341613769531 49.05886459350586 66.44630432128906 49.05886459350586 67.19499969482422 C 49.05886459350586 67.94369506835938 48.53596496582031 68.46659851074219 47.78726577758789 68.46659851074219 Z M 52.895263671875 63.2563362121582 L 32.46341323852539 63.2563362121582 C 31.71472549438477 63.2563362121582 31.19182586669922 62.73343658447266 31.19182586669922 61.98473739624023 C 31.19182586669922 61.23604583740234 31.71472549438477 60.7131462097168 32.46341323852539 60.7131462097168 L 52.895263671875 60.7131462097168 C 53.64395523071289 60.7131462097168 54.16685485839844 61.23604583740234 54.16685485839844 61.98473739624023 C 54.16685485839844 62.73343658447266 53.64395523071289 63.2563362121582 52.895263671875 63.2563362121582 Z M 42.67931365966797 57.73977661132812 C 35.50010681152344 57.73977661132812 29.65939521789551 51.89906692504883 29.65939521789551 44.71986770629883 C 29.65939521789551 37.54065704345703 35.50010681152344 31.6999454498291 42.67931365966797 31.6999454498291 C 46.15529632568359 31.69993591308594 49.42439651489258 33.05472564697266 51.88441467285156 35.51474761962891 C 54.34444427490234 37.97476577758789 55.69923400878906 41.24387741088867 55.69923400878906 44.71985626220703 C 55.69923400878906 51.89906692504883 49.85852432250977 57.73977661132812 42.67931365966797 57.73977661132812 Z M 42.67931365966797 34.24313735961914 C 36.90243530273438 34.24313735961914 32.20259475708008 38.94297790527344 32.20259475708008 44.71985626220703 C 32.20259475708008 50.49673461914062 36.90243530273438 55.19657516479492 42.67931365966797 55.19657516479492 C 48.45620346069336 55.19657516479492 53.15604400634766 50.49673461914062 53.15604400634766 44.71985626220703 C 53.15604400634766 38.94297790527344 48.45620346069336 34.24313735961914 42.67931365966797 34.24313735961914 Z M 65.15435791015625 44.25472640991211 L 60.04641342163086 44.25472640991211 C 59.29771423339844 44.25472640991211 58.77481460571289 43.73182678222656 58.77481460571289 42.98313522338867 C 58.77481460571289 42.23444747924805 59.29771423339844 41.7115478515625 60.04641342163086 41.7115478515625 L 65.15435791015625 41.7115478515625 C 65.90305328369141 41.7115478515625 66.42595672607422 42.23444747924805 66.42595672607422 42.98313522338867 C 66.42595672607422 43.7685661315918 65.76589202880859 44.25472640991211 65.15435791015625 44.25472640991211 Z M 25.31226539611816 44.25472640991211 L 20.20429420471191 44.25472640991211 C 19.45560455322266 44.25472640991211 18.93270492553711 43.73182678222656 18.93270492553711 42.98313522338867 C 18.93270492553711 42.23444747924805 19.45560455322266 41.7115478515625 20.20429420471191 41.7115478515625 L 25.3122444152832 41.7115478515625 C 26.06093597412109 41.7115478515625 26.58383560180664 42.23444747924805 26.58383560180664 42.98313522338867 C 26.58383560180664 43.73182678222656 26.06093597412109 44.25472640991211 25.3122444152832 44.25472640991211 L 25.31226539611816 44.25472640991211 Z M 29.70508575439453 33.42587661743164 C 29.35086441040039 33.42587661743164 29.0757942199707 33.30877685546875 28.81319427490234 33.04617691040039 L 28.8094654083252 33.04243469238281 L 28.80589485168457 33.03855514526367 L 25.3358154296875 29.26229095458984 C 25.08382225036621 29.00829124450684 24.95516204833984 28.68663215637207 24.97347450256348 28.35598564147949 C 24.99195861816406 28.02223968505859 25.16170883178711 27.70904922485352 25.45186233520508 27.47269821166992 C 25.68762969970703 27.2415943145752 25.98513412475586 27.11450576782227 26.2911548614502 27.11450576782227 C 26.64995384216309 27.11450576782227 26.98615646362305 27.28631210327148 27.23873519897461 27.59849548339844 L 30.60105895996094 31.2664680480957 C 30.85299110412598 31.52045249938965 30.98160552978516 31.84206199645996 30.96330451965332 32.17265701293945 C 30.94541549682617 32.49565887451172 30.78586387634277 32.79940032958984 30.51259231567383 33.03289413452148 C 30.3323860168457 33.32003402709961 29.9384880065918 33.42586517333984 29.70510482788086 33.42586517333984 L 29.70508575439453 33.42587661743164 Z M 55.24490356445312 33.2215461730957 L 55.2448844909668 33.2215461730957 C 54.89065551757812 33.22152709960938 54.61559677124023 33.10441589355469 54.35300445556641 32.84183502197266 C 53.87367630004883 32.36249542236328 53.91758346557617 31.59563636779785 54.45515441894531 31.05804634094238 L 54.45888519287109 31.05430603027344 L 54.46277618408203 31.05073547363281 L 58.23891067504883 27.58077621459961 C 58.47562408447266 27.34591674804688 58.77563095092773 27.21662521362305 59.08425521850586 27.21662521362305 C 59.44155502319336 27.21662521362305 59.77645874023438 27.38701629638672 60.0286750793457 27.69674301147461 C 60.49754333496094 28.17669105529785 60.45054626464844 28.93669319152832 59.91667556762695 29.4705753326416 L 59.91293334960938 29.47430610656738 L 59.90905380249023 29.47787666320801 L 56.12917327880859 32.9513053894043 L 56.10327529907227 32.97510528564453 L 56.07179641723633 32.9908447265625 C 55.85552597045898 33.09897613525391 55.61039352416992 33.2215461730957 55.24490356445312 33.2215461730957 Z M 42.98579406738281 28.72652626037598 C 42.23710632324219 28.72652626037598 41.71420669555664 28.20362663269043 41.71420669555664 27.45493698120117 L 41.71420669555664 22.34698677062988 C 41.71420669555664 21.59829521179199 42.23710632324219 21.07539558410645 42.98579406738281 21.07539558410645 C 43.7344856262207 21.07539558410645 44.25738525390625 21.59829521179199 44.25738525390625 22.34698677062988 L 44.25738525390625 27.45493698120117 C 44.25738525390625 28.10855674743652 43.6394157409668 28.72652626037598 42.98579406738281 28.72652626037598 Z" stroke="none"/>
      <path d="M 42.98579406738281 21.32539367675781 C 42.37284469604492 21.32539367675781 41.96420669555664 21.73403167724609 41.96420669555664 22.34698486328125 L 41.96420669555664 27.45494079589844 C 41.96420669555664 28.06789398193359 42.37284469604492 28.47653198242188 42.98579406738281 28.47653198242188 C 43.49658584594727 28.47653198242188 44.00738525390625 27.96573257446289 44.00738525390625 27.45494079589844 L 44.00738525390625 22.34698486328125 C 44.00738525390625 21.73403930664062 43.5987434387207 21.32539367675781 42.98579406738281 21.32539367675781 M 26.2911491394043 27.36450576782227 C 26.05014801025391 27.36450576782227 25.81164169311523 27.46636199951172 25.61872482299805 27.65928268432617 C 25.10792541503906 28.06791305541992 25.10792541503906 28.68087387084961 25.51656341552734 29.08951187133789 L 28.98997497558594 32.86940383911133 C 29.19429397583008 33.07372283935547 29.39861679077148 33.17588043212891 29.70508575439453 33.17588043212891 L 29.70510482788086 33.17586135864258 C 29.90941619873047 33.17586135864258 30.21589660644531 33.07370376586914 30.31805419921875 32.86938095092773 C 30.8288459777832 32.46074295043945 30.8288459777832 31.84778213500977 30.42021560668945 31.43915176391602 L 27.04894638061523 27.76143264770508 C 26.83323287963867 27.49179077148438 26.56062698364258 27.36450576782227 26.2911491394043 27.36450576782227 M 59.08425140380859 27.46663284301758 C 58.8432502746582 27.46663284301758 58.6047477722168 27.56848526000977 58.41182708740234 27.76140213012695 L 54.63193511962891 31.23481369018555 C 54.22330474853516 31.64346313476562 54.12113571166992 32.25641250610352 54.52978515625 32.6650505065918 C 54.73409271240234 32.8693733215332 54.93841552734375 32.97152328491211 55.24489593505859 32.97152328491211 L 55.24490356445312 32.97154235839844 C 55.55137634277344 32.97154235839844 55.75569534301758 32.86939239501953 55.96001434326172 32.7672233581543 L 59.73989486694336 29.29379272460938 C 60.14853668212891 28.88515090942383 60.25069427490234 28.27220153808594 59.84205627441406 27.86356353759766 C 59.62633514404297 27.59392166137695 59.35372924804688 27.46663284301758 59.08425140380859 27.46663284301758 M 42.67931365966797 31.94993209838867 L 42.67931365966797 31.94994354248047 C 35.63034439086914 31.94994354248047 29.90939331054688 37.67084121704102 29.90939331054688 44.71987152099609 C 29.90939331054688 51.76888275146484 35.63034439086914 57.48978042602539 42.67931365966797 57.48978042602539 C 49.72829437255859 57.48978042602539 55.44923400878906 51.76882171630859 55.44923400878906 44.71985244750977 C 55.44923400878906 37.67088317871094 49.72829437255859 31.94993209838867 42.67931365966797 31.94993209838867 M 42.67931365966797 55.44657135009766 C 36.75406646728516 55.44657135009766 31.95259475708008 50.64510345458984 31.95259475708008 44.71985244750977 C 31.95259475708008 38.79460144042969 36.75406646728516 33.99313354492188 42.67931365966797 33.99313354492188 C 48.60456466674805 33.99313354492188 53.40603637695312 38.79460144042969 53.40603637695312 44.71985244750977 C 53.40603637695312 50.64510345458984 48.60456466674805 55.44657135009766 42.67931365966797 55.44657135009766 M 20.20429229736328 41.96155166625977 C 19.59133148193359 41.96155166625977 19.18269348144531 42.37019348144531 19.18269348144531 42.9831428527832 C 19.18269348144531 43.59609222412109 19.59133148193359 44.00473403930664 20.20429229736328 44.00473403930664 L 25.31223678588867 44.00473403930664 C 25.92519378662109 44.00473403930664 26.33383560180664 43.59609222412109 26.33383560180664 42.9831428527832 C 26.33383560180664 42.37019348144531 25.92519378662109 41.96155166625977 25.31223678588867 41.96155166625977 L 20.20429229736328 41.96155166625977 M 60.04641723632812 41.96155166625977 C 59.43346405029297 41.96155166625977 59.02481460571289 42.37019348144531 59.02481460571289 42.9831428527832 C 59.02481460571289 43.59609222412109 59.43346405029297 44.00473403930664 60.04641723632812 44.00473403930664 L 65.15435791015625 44.00473403930664 C 65.66515350341797 44.00473403930664 66.17594909667969 43.59609222412109 66.17594909667969 42.9831428527832 C 66.17594909667969 42.37019348144531 65.76730346679688 41.96155166625977 65.15435791015625 41.96155166625977 L 60.04641723632812 41.96155166625977 M 25.31226348876953 44.00473403930664 L 25.31223678588867 44.00473403930664 M 32.46341323852539 60.96314239501953 C 31.8504638671875 60.96314239501953 31.44181442260742 61.37178039550781 31.44181442260742 61.98473358154297 C 31.44181442260742 62.59768295288086 31.85045623779297 63.00633239746094 32.46341323852539 63.00633239746094 L 52.895263671875 63.00633239746094 C 53.50821685791016 63.00633239746094 53.91685485839844 62.59768295288086 53.91685485839844 61.98473358154297 C 53.91685485839844 61.37178039550781 53.50821685791016 60.96314239501953 52.895263671875 60.96314239501953 L 32.46341323852539 60.96314239501953 M 37.57136535644531 66.17341613769531 C 36.95841598510742 66.17341613769531 36.54977416992188 66.58204650878906 36.54977416992188 67.19499969482422 C 36.54977416992188 67.80795288085938 36.95840454101562 68.21659088134766 37.57136535644531 68.21659088134766 L 47.78726577758789 68.21659088134766 C 48.40022659301758 68.21659088134766 48.80886459350586 67.80795288085938 48.80886459350586 67.19499969482422 C 48.80886459350586 66.58204650878906 48.40022659301758 66.17341613769531 47.78726577758789 66.17341613769531 L 37.57136535644531 66.17341613769531 M 42.98579406738281 20.82539367675781 C 43.88168334960938 20.82539367675781 44.50738525390625 21.45109558105469 44.50738525390625 22.34698486328125 L 44.50738525390625 27.45494079589844 C 44.50738525390625 28.2370719909668 43.76792526245117 28.97653198242188 42.98579406738281 28.97653198242188 C 42.08990478515625 28.97653198242188 41.46420669555664 28.35083389282227 41.46420669555664 27.45494079589844 L 41.46420669555664 22.34698486328125 C 41.46420669555664 21.45109558105469 42.08990478515625 20.82539367675781 42.98579406738281 20.82539367675781 Z M 26.29114532470703 26.864501953125 C 26.72452545166016 26.864501953125 27.12762069702148 27.06697845458984 27.42803955078125 27.43504333496094 L 30.78219985961914 31.09409713745117 C 31.08222961425781 31.39840316772461 31.23509979248047 31.7858772277832 31.21291351318359 32.18649291992188 C 31.19179534912109 32.56773376464844 31.01125717163086 32.92422866821289 30.70199584960938 33.19941329956055 C 30.47469711303711 33.5258903503418 30.04079437255859 33.67586135864258 29.70510482788086 33.67586135864258 C 29.2850341796875 33.6758918762207 28.9454460144043 33.5319709777832 28.63642501831055 33.22295379638672 L 28.6218147277832 33.20771408081055 L 25.15491104125977 29.43490219116211 C 24.85465240478516 29.13053512573242 24.70166397094727 28.74292373657227 24.7238655090332 28.3421516418457 C 24.7461051940918 27.94065093994141 24.94512176513672 27.56663131713867 25.2851448059082 27.28609848022461 C 25.566650390625 27.01400756835938 25.92283248901367 26.864501953125 26.29114532470703 26.864501953125 Z M 59.08424377441406 26.96663284301758 C 59.51491928100586 26.96663284301758 59.91565322875977 27.16656112670898 60.21547698974609 27.53026962280273 C 60.77467727661133 28.1113395690918 60.72444152832031 29.0163459777832 60.09344482421875 29.64734268188477 L 60.07820510864258 29.66195297241211 L 56.24654388427734 33.1829719543457 L 56.18363571166992 33.21442413330078 C 55.95455551147461 33.32898330688477 55.66945648193359 33.47154235839844 55.24490356445312 33.47154235839844 C 54.82476425170898 33.47151184082031 54.48519515991211 33.32759094238281 54.17622375488281 33.01859283447266 C 53.59611511230469 32.43850326538086 53.64002227783203 31.5196418762207 54.27837371826172 30.88127136230469 L 54.29362487792969 30.86665344238281 L 58.06644439697266 27.39974212646484 C 58.34975433349609 27.12033462524414 58.71074676513672 26.96663284301758 59.08424377441406 26.96663284301758 Z M 42.67931365966797 31.44993209838867 C 49.99637603759766 31.44993209838867 55.94923400878906 37.40279388427734 55.94923400878906 44.71985244750977 C 55.94923400878906 52.03691101074219 49.99637603759766 57.98978424072266 42.67931365966797 57.98978424072266 C 35.36225509643555 57.98978424072266 29.40939331054688 52.03692245483398 29.40939331054688 44.71987152099609 C 29.40939331054688 37.40281295776367 35.36225509643555 31.44994354248047 42.67931365966797 31.44994354248047 L 42.67931365966797 31.44993209838867 Z M 42.67931365966797 54.94657135009766 C 48.31834411621094 54.94657135009766 52.90603637695312 50.35888290405273 52.90603637695312 44.71985244750977 C 52.90603637695312 39.0808219909668 48.31834411621094 34.49313354492188 42.67931365966797 34.49313354492188 C 37.040283203125 34.49313354492188 32.45259475708008 39.0808219909668 32.45259475708008 44.71985244750977 C 32.45259475708008 50.35888290405273 37.040283203125 54.94657135009766 42.67931365966797 54.94657135009766 Z M 20.20429229736328 41.46155166625977 L 25.31223678588867 41.46155166625977 C 26.20813369750977 41.46155166625977 26.83383560180664 42.08725357055664 26.83383560180664 42.9831428527832 C 26.83383560180664 43.87903213500977 26.20813369750977 44.50473403930664 25.31223678588867 44.50473403930664 L 20.20429229736328 44.50473403930664 C 19.30839538574219 44.50473403930664 18.68269348144531 43.87903213500977 18.68269348144531 42.9831428527832 C 18.68269348144531 42.08725357055664 19.30839538574219 41.46155166625977 20.20429229736328 41.46155166625977 Z M 60.04641723632812 41.46155166625977 L 65.15435791015625 41.46155166625977 C 66.05024719238281 41.46155166625977 66.67594909667969 42.08725357055664 66.67594909667969 42.9831428527832 C 66.67594909667969 43.82215118408203 65.99336242675781 44.50473403930664 65.15435791015625 44.50473403930664 L 60.04641723632812 44.50473403930664 C 59.1505126953125 44.50473403930664 58.52481460571289 43.87903213500977 58.52481460571289 42.9831428527832 C 58.52481460571289 42.08725357055664 59.1505126953125 41.46155166625977 60.04641723632812 41.46155166625977 Z M 32.46341323852539 60.46314239501953 L 52.895263671875 60.46314239501953 C 53.79115295410156 60.46314239501953 54.41685485839844 61.08884429931641 54.41685485839844 61.98473358154297 C 54.41685485839844 62.88063049316406 53.79115295410156 63.50633239746094 52.895263671875 63.50633239746094 L 32.46341323852539 63.50633239746094 C 31.5675163269043 63.50633239746094 30.94181442260742 62.88063049316406 30.94181442260742 61.98473358154297 C 30.94181442260742 61.08884429931641 31.5675163269043 60.46314239501953 32.46341323852539 60.46314239501953 Z M 37.57136535644531 65.67341613769531 L 47.78726577758789 65.67341613769531 C 48.68316650390625 65.67341613769531 49.30886459350586 66.29911041259766 49.30886459350586 67.19499969482422 C 49.30886459350586 68.09089660644531 48.68316650390625 68.71659088134766 47.78726577758789 68.71659088134766 L 37.57136535644531 68.71659088134766 C 36.67547607421875 68.71659088134766 36.04977416992188 68.09089660644531 36.04977416992188 67.19499969482422 C 36.04977416992188 66.29911041259766 36.67547607421875 65.67341613769531 37.57136535644531 65.67341613769531 Z" stroke="none" fill="#153a5e"/>
    </g>
    <g id="路径_192" data-name="路径 192" transform="translate(-295.876 -289.754)" fill="#153a5e">
      <path d="M 330.8938293457031 336.0521240234375 C 330.1451416015625 336.0521240234375 329.6222229003906 335.5292053222656 329.6222229003906 334.780517578125 C 329.6222229003906 332.2433166503906 330.6006164550781 329.8676452636719 332.3771362304688 328.0910949707031 C 334.1536865234375 326.3145751953125 336.5293884277344 325.336181640625 339.0665893554688 325.336181640625 C 339.8152770996094 325.336181640625 340.3381652832031 325.8590698242188 340.3381652832031 326.6077575683594 C 340.3381652832031 327.3564758300781 339.8152770996094 327.87939453125 339.0665893554688 327.87939453125 C 335.1968078613281 327.87939453125 332.1654663085938 330.9107360839844 332.1654663085938 334.780517578125 C 332.1654663085938 335.3920593261719 331.6792907714844 336.0521240234375 330.8938293457031 336.0521240234375 Z" stroke="none"/>
      <path d="M 330.8938293457031 335.8021240234375 C 331.5067749023438 335.8021240234375 331.9154663085938 335.2913208007812 331.9154663085938 334.780517578125 C 331.9154663085938 330.7962951660156 335.0823974609375 327.62939453125 339.0665893554688 327.62939453125 C 339.6795349121094 327.62939453125 340.0881652832031 327.2207336425781 340.0881652832031 326.6077575683594 C 340.0881652832031 325.9948425292969 339.6795349121094 325.586181640625 339.0665893554688 325.586181640625 C 333.9586181640625 325.586181640625 329.8722229003906 329.672607421875 329.8722229003906 334.780517578125 C 329.8722229003906 335.3934631347656 330.2808837890625 335.8021240234375 330.8938293457031 335.8021240234375 M 330.8938293457031 336.3021240234375 C 329.9979248046875 336.3021240234375 329.3722229003906 335.6764221191406 329.3722229003906 334.780517578125 C 329.3722229003906 332.1765441894531 330.3766174316406 329.7380676269531 332.2003784179688 327.9143371582031 C 334.0241088867188 326.090576171875 336.4625854492188 325.086181640625 339.0665893554688 325.086181640625 C 339.9624633789062 325.086181640625 340.5881652832031 325.7118835449219 340.5881652832031 326.6077575683594 C 340.5881652832031 327.503662109375 339.9624633789062 328.12939453125 339.0665893554688 328.12939453125 C 335.3369750976562 328.12939453125 332.4154663085938 331.0509033203125 332.4154663085938 334.780517578125 C 332.4154663085938 335.6195373535156 331.7328491210938 336.3021240234375 330.8938293457031 336.3021240234375 Z" stroke="none" fill="#153a5e"/>
    </g>
  </g>
</svg>
