<svg xmlns="http://www.w3.org/2000/svg" width="45.05" height="45.05" viewBox="0 0 45.05 45.05">
  <path id="团队" d="M108.716,127.05h-8.381a1.572,1.572,0,0,1-1.572-1.572v-6.81H97.191A1.572,1.572,0,0,1,95.62,117.1V100.334a1.571,1.571,0,0,1,1.572-1.572h14.667a1.572,1.572,0,0,1,1.572,1.572V117.1a1.572,1.572,0,0,1-1.572,1.572h-1.572v6.81A1.572,1.572,0,0,1,108.716,127.05Zm-6.81-3.143h5.238V117.1a1.572,1.572,0,0,1,1.572-1.572h1.572v-13.62H98.763v13.62h1.572a1.572,1.572,0,0,1,1.572,1.572Zm2.619-28.287a6.81,6.81,0,1,1,6.81-6.81A6.818,6.818,0,0,1,104.525,95.62Zm0-10.477a3.667,3.667,0,1,0,3.667,3.667A3.672,3.672,0,0,0,104.525,85.143ZM89.439,96.98A5.762,5.762,0,1,1,95.2,91.218,5.769,5.769,0,0,1,89.439,96.98Zm0-8.381a2.619,2.619,0,1,0,2.619,2.619A2.622,2.622,0,0,0,89.439,88.6Zm30.174,8.381a5.762,5.762,0,1,1,5.762-5.762A5.769,5.769,0,0,1,119.612,96.98Zm0-8.381a2.619,2.619,0,1,0,2.619,2.619A2.622,2.622,0,0,0,119.612,88.6Zm3.352,33.525h-5.029a1.572,1.572,0,1,1,0-3.143h3.457v-5.133a1.572,1.572,0,0,1,1.572-1.572h.943V102.009h-5.972a1.572,1.572,0,1,1,0-3.143h7.543a1.572,1.572,0,0,1,1.572,1.572v13.411a1.572,1.572,0,0,1-1.572,1.572h-.943v5.133A1.572,1.572,0,0,1,122.964,122.124Zm-31.849,0H86.086a1.572,1.572,0,0,1-1.572-1.572v-5.133h-.943A1.572,1.572,0,0,1,82,113.848V100.437a1.571,1.571,0,0,1,1.572-1.572h7.543a1.572,1.572,0,0,1,0,3.143H85.143v10.268h.943a1.572,1.572,0,0,1,1.572,1.572v5.133h3.457a1.572,1.572,0,0,1,0,3.143Z" transform="translate(-82 -82)" fill="#153a5e"/>
</svg>
