<svg xmlns="http://www.w3.org/2000/svg" width="44.353" height="51" viewBox="0 0 44.353 51">
  <g id="iso" transform="translate(0)">
    <path id="路径_187" data-name="路径 187" d="M110.284,10.454v-.075L89.855.179A1.236,1.236,0,0,0,89.332,0h-.2a1.444,1.444,0,0,0-.573.154l-21.028,10.2a1.492,1.492,0,0,0-.8,1.429l.921,11.809a30.431,30.431,0,0,0,2.261,8.8,36.761,36.761,0,0,0,4.771,8.133A28.094,28.094,0,0,0,89.033,51h.747a23.052,23.052,0,0,0,7.7-4,32.636,32.636,0,0,0,6.191-6.529,35.042,35.042,0,0,0,4.348-8.083,33.014,33.014,0,0,0,2.137-8.721l.921-11.809A1.444,1.444,0,0,0,110.284,10.454ZM106.7,23.333c-1,9-7.257,20.938-17.4,24.046-9.318-2.8-17.1-13.746-18.293-24.046l-.647-10.354L89.207,3.825l18.169,9.154Z" transform="translate(-66.732)" fill="#153a5e"/>
    <path id="路径_188" data-name="路径 188" d="M285.425,273.056a11.857,11.857,0,0,0,1.972,14.065,11.125,11.125,0,0,0,13.761,1.619l.518-.354,2.46,2.774a1.64,1.64,0,0,0,2.042.025,1.569,1.569,0,0,0,.174-2.1l-2.46-2.749a10.386,10.386,0,0,0,1.23-1.768,11.7,11.7,0,0,0,1.524-5.8,11.58,11.58,0,0,0-8.462-11.246A11.238,11.238,0,0,0,285.425,273.056ZM298.27,271a8.453,8.453,0,0,1,5.18,7.77,8.076,8.076,0,0,1-1.718,5.155l-1.753-1.9a1.5,1.5,0,0,0-2.067,0,1.524,1.524,0,0,0-.125,2.072l1.8,2.017a7.559,7.559,0,0,1-4.208,1.185,8.229,8.229,0,0,1-7.73-5.075,8.613,8.613,0,0,1,1.644-9.264A8.1,8.1,0,0,1,298.27,271Z" transform="translate(-273.14 -253.837)" fill="#153a5e"/>
  </g>
</svg>
